<?xml version="1.0" encoding="utf-8"?>
<!-- Generator: Adobe Illustrator 26.4.1, SVG Export Plug-In . SVG Version: 6.00 Build 0)  -->
<svg version="1.1" id="Layer_1" xmlns="http://www.w3.org/2000/svg" xmlns:xlink="http://www.w3.org/1999/xlink" x="0px" y="0px"
	 viewBox="0 0 28 21.6" style="enable-background:new 0 0 28 21.6;" xml:space="preserve">
<style type="text/css">
	.st0{fill-rule:evenodd;clip-rule:evenodd;fill:#FFFFFF;}
	.st1{fill-rule:evenodd;clip-rule:evenodd;}
	.st2{fill:#FFFFFF;}
</style>
<path d="M11.1,6.8l2.3,1.3l0.9-0.9l3.2-0.4l1.9,2.1l0.3,3l-2.2,1.9l-4.1,1.7l-5-2l-1.3-2.6l0.9-3L11.1,6.8z"/>
<path class="st0" d="M7,20.9c-2,0-3.9-0.4-5.5-1.2l6.6-6.1c-0.9-0.8-1.5-1.9-1.5-3.2c0-1.3,0.6-2.5,1.6-3.2V6.4h2.6c1,0,2,0.4,2.7,1
	c0.7-0.6,1.7-1,2.7-1h2.6v0.9c0.9,0.8,1.6,1.9,1.6,3.2c0,1.6-1,3.1-2.3,3.7c-0.5,1.5-1.4,2.8-2.7,3.9V20H12
	C10.5,20.6,8.8,20.9,7,20.9z M10.7,13.7c0.7,0,1.4-0.3,2-0.7l0.7,1.6l0.7-1.6c0.5,0.4,1.2,0.7,2,0.7c1.7,0,3.2-1.4,3.2-3.2
	c0-1.7-1.4-3.2-3.2-3.2c-1.1,0-2.1,0.6-2.7,1.5c-0.6-0.9-1.6-1.5-2.7-1.5c-1.7,0-3.2,1.4-3.2,3.2C7.5,12.2,9,13.7,10.7,13.7z
	 M10.7,12.7c1.2,0,2.2-1,2.2-2.2s-1-2.2-2.2-2.2s-2.2,1-2.2,2.2S9.5,12.7,10.7,12.7z M10.7,11.8c0.7,0,1.3-0.6,1.3-1.3
	s-0.6-1.3-1.3-1.3c-0.7,0-1.3,0.6-1.3,1.3S10,11.8,10.7,11.8z M18.3,10.5c0,1.2-1,2.2-2.2,2.2c-1.2,0-2.2-1-2.2-2.2s1-2.2,2.2-2.2
	C17.3,8.3,18.3,9.3,18.3,10.5z M17.3,10.5c0,0.7-0.6,1.3-1.3,1.3c-0.7,0-1.3-0.6-1.3-1.3s0.6-1.3,1.3-1.3
	C16.8,9.2,17.3,9.8,17.3,10.5z"/>
<path class="st1" d="M0.3,19.9l6.9-6.3C6.4,12.8,6,11.7,6,10.5C6,9.1,6.6,7.9,7.5,7V5.8h3.2c1,0,1.9,0.3,2.7,0.8
	c0.8-0.5,1.7-0.8,2.7-0.8h3.2V7c1,0.9,1.6,2.1,1.6,3.5c0,1.8-1,3.4-2.5,4.2c-0.5,1.4-1.4,2.6-2.6,3.7v2.2h-3.7c-1.6,0.6-3.3,1-5.1,1
	c-2.1,0-4.1-0.4-5.8-1.2L0.3,19.9z M12,20h3.1v-1.9c1.2-1.1,2.2-2.4,2.7-3.9c1.4-0.7,2.3-2.1,2.3-3.7c0-1.3-0.6-2.5-1.6-3.2V6.4
	h-2.6c-1,0-2,0.4-2.7,1c-0.7-0.6-1.7-1-2.7-1H8.1v0.9C7.2,8,6.6,9.2,6.6,10.5c0,1,0.4,2,1,2.7c0.1,0.2,0.3,0.3,0.5,0.4l-6.6,6.1
	c0.2,0.1,0.4,0.2,0.6,0.3c1.5,0.6,3.1,0.9,4.9,0.9C8.8,20.9,10.5,20.6,12,20z M13,8.3c-0.6-0.6-1.4-1-2.3-1c-1.7,0-3.2,1.4-3.2,3.2
	c0,1.7,1.4,3.2,3.2,3.2c0.5,0,1-0.1,1.4-0.3c0.2-0.1,0.4-0.2,0.5-0.4l0.7,1.6l0.7-1.6c0.2,0.1,0.3,0.3,0.5,0.4
	c0.4,0.2,0.9,0.3,1.4,0.3c1.7,0,3.2-1.4,3.2-3.2c0-1.7-1.4-3.2-3.2-3.2c-0.9,0-1.7,0.4-2.3,1c-0.2,0.2-0.3,0.3-0.4,0.5
	C13.3,8.6,13.1,8.5,13,8.3z M13.4,13l0.4-0.8c-0.2-0.2-0.3-0.4-0.4-0.7c-0.1,0.3-0.2,0.5-0.4,0.7L13.4,13z M10.7,11.1
	c0.3,0,0.6-0.3,0.6-0.6c0-0.3-0.3-0.6-0.6-0.6c-0.3,0-0.6,0.3-0.6,0.6C10.1,10.8,10.4,11.1,10.7,11.1z M16.1,11.1
	c0.3,0,0.6-0.3,0.6-0.6c0-0.3-0.3-0.6-0.6-0.6c-0.3,0-0.6,0.3-0.6,0.6C15.4,10.8,15.7,11.1,16.1,11.1z M12.9,10.5
	c0,1.2-1,2.2-2.2,2.2s-2.2-1-2.2-2.2s1-2.2,2.2-2.2S12.9,9.3,12.9,10.5z M12,10.5c0,0.7-0.6,1.3-1.3,1.3c-0.7,0-1.3-0.6-1.3-1.3
	s0.6-1.3,1.3-1.3C11.4,9.2,12,9.8,12,10.5z M16.1,12.7c1.2,0,2.2-1,2.2-2.2s-1-2.2-2.2-2.2c-1.2,0-2.2,1-2.2,2.2
	S14.8,12.7,16.1,12.7z M16.1,11.8c0.7,0,1.3-0.6,1.3-1.3s-0.6-1.3-1.3-1.3c-0.7,0-1.3,0.6-1.3,1.3S15.4,11.8,16.1,11.8z"/>
<path class="st0" d="M7,20.9c-2,0-3.9-0.4-5.5-1.2l6.6-6.1c-0.9-0.8-1.5-1.9-1.5-3.2c0-1.3,0.6-2.5,1.6-3.2V6.4h2.6c1,0,2,0.4,2.7,1
	c0.7-0.6,1.7-1,2.7-1h2.6v0.9c0.9,0.8,1.6,1.9,1.6,3.2c0,1.6-1,3.1-2.3,3.7c-0.5,1.5-1.4,2.8-2.7,3.9V20H12
	C10.5,20.6,8.8,20.9,7,20.9z M10.7,13.7c0.7,0,1.4-0.3,2-0.7l0.7,1.6l0.7-1.6c0.5,0.4,1.2,0.7,2,0.7c1.7,0,3.2-1.4,3.2-3.2
	c0-1.7-1.4-3.2-3.2-3.2c-1.1,0-2.1,0.6-2.7,1.5c-0.6-0.9-1.6-1.5-2.7-1.5c-1.7,0-3.2,1.4-3.2,3.2C7.5,12.2,9,13.7,10.7,13.7z
	 M10.7,12.7c1.2,0,2.2-1,2.2-2.2s-1-2.2-2.2-2.2s-2.2,1-2.2,2.2S9.5,12.7,10.7,12.7z M10.7,11.8c0.7,0,1.3-0.6,1.3-1.3
	s-0.6-1.3-1.3-1.3c-0.7,0-1.3,0.6-1.3,1.3S10,11.8,10.7,11.8z M18.3,10.5c0,1.2-1,2.2-2.2,2.2c-1.2,0-2.2-1-2.2-2.2s1-2.2,2.2-2.2
	C17.3,8.3,18.3,9.3,18.3,10.5z M17.3,10.5c0,0.7-0.6,1.3-1.3,1.3c-0.7,0-1.3-0.6-1.3-1.3s0.6-1.3,1.3-1.3
	C16.8,9.2,17.3,9.8,17.3,10.5z"/>
<path d="M13.8,10.5c0,1.7-1.4,3.2-3.2,3.2s-3.2-1.4-3.2-3.2c0-1.7,1.4-3.2,3.2-3.2S13.8,8.7,13.8,10.5z"/>
<path d="M19.2,10.5c0,1.7-1.4,3.2-3.2,3.2s-3.2-1.4-3.2-3.2c0-1.7,1.4-3.2,3.2-3.2S19.2,8.7,19.2,10.5z"/>
<path class="st2" d="M12.9,10.5c0,1.2-1,2.2-2.2,2.2c-1.2,0-2.2-1-2.2-2.2c0-1.2,1-2.2,2.2-2.2C11.9,8.3,12.9,9.3,12.9,10.5z"/>
<path class="st2" d="M18.3,10.5c0,1.2-1,2.2-2.2,2.2s-2.2-1-2.2-2.2c0-1.2,1-2.2,2.2-2.2S18.3,9.3,18.3,10.5z"/>
<path d="M11.9,10.5c0,0.7-0.6,1.3-1.3,1.3c-0.7,0-1.3-0.6-1.3-1.3c0-0.7,0.6-1.3,1.3-1.3C11.4,9.2,11.9,9.8,11.9,10.5z"/>
<path d="M17.3,10.5c0,0.7-0.6,1.3-1.3,1.3c-0.7,0-1.3-0.6-1.3-1.3c0-0.7,0.6-1.3,1.3-1.3C16.7,9.2,17.3,9.8,17.3,10.5z"/>
<path d="M13.4,14.5l-1.1-2.5h2.2L13.4,14.5z"/>
</svg>
