<?xml version="1.0" standalone="no"?>
<!DOCTYPE svg PUBLIC "-//W3C//DTD SVG 20010904//EN"
 "http://www.w3.org/TR/2001/REC-SVG-20010904/DTD/svg10.dtd">
<svg version="1.0" xmlns="http://www.w3.org/2000/svg"
 width="700.000000pt" height="700.000000pt" viewBox="0 0 700.000000 700.000000"
 preserveAspectRatio="xMidYMid meet">
<metadata>
Created by potrace 1.14, written by Peter Selinger 2001-2017
</metadata>
<g transform="translate(0.000000,700.000000) scale(0.100000,-0.100000)"
fill="#000000" stroke="none">
<path d="M2649 6996 c-2 -2 -29 -7 -59 -10 -153 -18 -350 -94 -500 -194 -92
-61 -245 -206 -301 -287 -41 -58 -120 -192 -326 -550 -244 -425 -379 -658
-428 -741 -112 -190 -172 -354 -192 -529 -14 -126 -6 -309 18 -400 6 -22 13
-49 15 -59 13 -67 87 -239 145 -336 18 -29 253 -437 309 -535 89 -155 399
-689 418 -720 69 -109 208 -253 323 -333 41 -29 80 -65 86 -80 7 -15 49 -115
93 -222 45 -107 108 -258 140 -335 33 -77 107 -255 165 -395 101 -242 196
-470 308 -734 106 -252 214 -388 378 -474 139 -73 319 -80 460 -17 130 58 262
192 343 345 28 53 249 571 341 800 35 87 145 351 166 397 10 24 19 45 19 48 0
3 9 24 19 48 11 23 38 87 61 142 23 55 47 114 54 130 7 17 39 91 70 165 52
123 60 137 96 157 45 27 151 112 195 158 103 109 154 181 265 375 75 131 170
296 328 570 30 52 66 115 79 140 14 25 38 65 53 90 58 95 195 338 225 400 86
174 118 321 118 535 0 171 -10 237 -59 381 -40 121 -65 167 -406 754 -46 80
-87 152 -91 160 -4 8 -17 31 -28 50 -12 19 -46 78 -76 130 -29 52 -58 102 -63
110 -48 79 -100 174 -100 181 0 5 -4 9 -10 9 -5 0 -10 5 -10 10 0 17 -79 140
-135 210 -149 186 -341 322 -560 395 -186 63 -198 64 -1111 64 -457 1 -832 -1
-835 -3z"/>
</g>
</svg>
