<svg id="egES3QNz75K1" xmlns="http://www.w3.org/2000/svg" xmlns:xlink="http://www.w3.org/1999/xlink"
    viewBox="0 0 71.55 119.53" shape-rendering="geometricPrecision" text-rendering="geometricPrecision">
    <defs>
        <linearGradient id="f" x1="31.5" y1="75.3" x2="31.5" y2="69.51"
            gradientTransform="translate(0 108.13) scale(1 -1)" gradientUnits="userSpaceOnUse">
            <stop offset="0" stop-color="#fff" />
            <stop offset="1" stop-color="#fff" stop-opacity=".9" />
        </linearGradient>

        <clipPath id="k">
            <rect x="25.02" y="26.68" width="12.37" height="9.46" fill="none" />
        </clipPath>
        <linearGradient id="l" x1="27.41" y1="74.11" x2="27.41" y2="80.5"
            gradientTransform="translate(0 108.13) scale(1 -1)" gradientUnits="userSpaceOnUse">
            <stop offset="0" stop-color="#edcf00" />
            <stop offset=".33" stop-color="#f0d500" />
            <stop offset=".77" stop-color="#f9e500" />
            <stop offset="1" stop-color="#fff100" />
        </linearGradient>
        <linearGradient id="m" x1="36.2" y1="74.06" x2="36.2" y2="78.69"
            gradientTransform="translate(0 108.13) scale(1 -1)" gradientUnits="userSpaceOnUse">
            <stop offset="0" stop-color="#edcf00" />
            <stop offset=".59" stop-color="#f7e100" />
            <stop offset="1" stop-color="#fff100" />
        </linearGradient>
        <radialGradient id="n" cx="-785.19" cy="518.7" fx="-785.19" fy="518.7" r="1.03"
            gradientTransform="translate(3525.68 2477.33) scale(4.46 -4.7)" gradientUnits="userSpaceOnUse">
            <stop offset="0" stop-color="#fff100" />
            <stop offset=".23" stop-color="#f9e500" />
            <stop offset=".67" stop-color="#f0d500" />
            <stop offset="1" stop-color="#edcf00" />
        </radialGradient>
        <linearGradient id="o" x1="25.59" y1="88.03" x2="35.49" y2="68.23" xlink:href="#i" />
        <linearGradient id="p" x1="25.59" y1="88.23" x2="35.49" y2="68.43" xlink:href="#i" />
    </defs>
    <g transform="matrix(.883966 0 0 0.883968 4.150835 6.934653)">
        <g id="egES3QNz75K3" shape-rendering="geometricPrecision" text-rendering="geometricPrecision">
            <g id="d">
                <g>
                    <path
                        d="M47.67,44.07c-.82,.2-1.46,.87-1.64,1.7l-5.05,22.94c-.19,.87,.15,1.77,.87,2.29l12.07,8.84c1.13,.83,2.59,1.03,3.9,.51,.55-.21,1.03-.53,1.42-.93,.56-.56,.95-1.27,1.11-2.08l2.78-13.6c.37-1.81-.11-3.66-1.32-5.07l-11.9-13.9c-.56-.65-1.42-.93-2.25-.72h0Z"
                        fill="#fff100" />
                    <path
                        d="M15.59,43.71c-.82-.2-1.7,.07-2.25,.72L1.44,58.32c-1.2,1.41-1.68,3.25-1.32,5.07l2.78,13.6c.28,1.38,1.23,2.5,2.54,3.01s2.77,.31,3.9-.51l12.07-8.84c.1-.07,.19-.14,.27-.22,.54-.54,.77-1.32,.6-2.07l-5.05-22.94c-.19-.83-.82-1.49-1.64-1.7h0Z"
                        fill="#fff100" />
                </g>
                <g id="egES3QNz75K7">
                    <path
                        d="M23.62,95.44c.41-.41,.65-.96,.65-1.59v-10.36c0-1.24-1.01-2.25-2.25-2.25s-2.25,1.01-2.25,2.25v10.36c0,1.24,1.01,2.25,2.25,2.25,.62,0,1.18-.25,1.59-.65Z"
                        fill="#f96" />
                    <path
                        d="M31.53,81.25c-1.24,0-2.25,1.01-2.25,2.25v19.92c0,1.24,1.01,2.25,2.25,2.25,.62,0,1.18-.25,1.59-.65s.65-.96,.65-1.59v-19.92c0-1.24-1.01-2.25-2.25-2.25Z"
                        fill="#f96" />
                    <path
                        d="M41.03,81.25c-1.24,0-2.25,1.01-2.25,2.25v10.36c0,1.24,1.01,2.25,2.25,2.25,.62,0,1.18-.25,1.59-.65s.65-.96,.65-1.59v-10.36c0-1.24-1.01-2.25-2.25-2.25h0Z"
                        fill="#923d0f" />
                    <path
                        d="M31.53,105.66c.62,0,1.18-.25,1.59-.65s.65-.96,.65-1.59v-19.92c0-1.24-1.01-2.25-2.25-2.25v24.41h0Z"
                        fill="#c86a3a" />
                </g>
                <g>
                    <path
                        d="M47.67,44.07c-.82,.2-1.46,.87-1.64,1.7l-5.05,22.94c-.19,.87,.15,1.77,.87,2.29l12.07,8.84c1.13,.83,2.59,1.03,3.9,.51,.55-.21,1.03-.53,1.42-.93,.56-.56,.95-1.27,1.11-2.08l2.78-13.6c.37-1.81-.11-3.66-1.32-5.07l-11.9-13.9c-.56-.65-1.42-.93-2.25-.72h0Z"
                        isolation="isolate" opacity=".26" />
                    <path
                        d="M41.38,75.63c1.26,0,2.46-.6,3.19-1.63,10.76-15.08,10.29-36,6.66-47.42C47.19,13.91,38.53,4.92,34.16,1.01c-1.49-1.34-3.76-1.34-5.25,0-4.37,3.92-13.04,12.91-17.07,25.58-3.63,11.41-4.1,32.34,6.66,47.42,.73,1.03,1.93,1.63,3.19,1.63h19.69Z"
                        fill="#f1f1fb" />
                    <path
                        d="M31.53,0V75.63h9.86c1.26,0,2.46-.6,3.19-1.63,10.76-15.08,10.29-36,6.66-47.42C47.19,13.91,38.53,4.92,34.16,1.01c-.75-.67-1.69-1.01-2.63-1.01h0Z"
                        fill="#d7d6fb" />
                    <path
                        d="M18.49,74.01c.73,1.03,1.93,1.63,3.19,1.63h19.71c1.26,0,2.46-.6,3.19-1.63,2.34-3.28,4.15-6.84,5.51-10.52H12.98c1.36,3.68,3.17,7.23,5.51,10.52Z"
                        fill="#5d7c9e" />
                    <path d="M31.53,75.63h9.86c1.26,0,2.46-.6,3.19-1.63,2.34-3.28,4.15-6.84,5.51-10.52H31.53v12.15Z"
                        fill="#2f506f" />
                </g>
            </g>

            <!-- Hardhat -->
            <g>
                <path
                    d="M31.21,21.59h0c5.63,0,10.19,4.56,10.19,10.19h0c0,5.63-4.56,10.19-10.19,10.19h0c-5.63,0-10.19-4.56-10.19-10.19h0c0-5.63,4.56-10.19,10.19-10.19Z"
                    fill="url(#j)" />
                <g clip-path="url(#k)">
                    <g>
                        <path
                            d="M37.37,34.99v-.64c0-.12-.19-.23-.52-.33v-.79c0-1.22-.35-2.41-1.01-3.41-.65-.99-1.59-1.75-2.69-2.18l-.02-.16c-.01-.08-.05-.16-.1-.23-.05-.06-.12-.11-.2-.14-1.04-.32-2.16-.32-3.2,0-.08,.03-.15,.07-.2,.14-.05,.07-.09,.14-.1,.23l-.02,.15c-1.11,.43-2.06,1.19-2.71,2.18-.67,1.01-1.03,2.21-1.03,3.42v.8c-.33,.1-.52,.21-.52,.33v.64s0,.07,.02,.11c.17-.13,.35-.22,.56-.27,.51-.13,1.03-.22,1.56-.28,.15-.02,.3,0,.44,.05s.27,.13,.38,.23c.4,.39,.93,.61,1.49,.61h3.46c.55,0,1.08-.22,1.49-.61,.11-.1,.24-.18,.38-.23,.14-.05,.29-.07,.44-.05,.53,.05,1.05,.14,1.56,.27,.19,.04,.37,.12,.53,.24,0,0,.02,.02,.03,.03,.02-.03,.03-.07,.02-.11Z"
                            fill="#fff100" />
                        <path
                            d="M27.99,33.65c0-.15,0-.29,0-.44,0-2.21,.49-4.2,1.3-5.58-1.11,.42-2.06,1.19-2.71,2.18-.67,1.01-1.03,2.21-1.03,3.42v.8c.8-.2,1.62-.33,2.45-.37Z"
                            fill="url(#l)" />
                        <path
                            d="M36.85,33.23c0-1.37-.45-2.7-1.29-3.78,.36,1.22,.54,2.49,.54,3.77,0,.22,0,.43-.01,.64,.26,.04,.51,.1,.76,.17v-.79Z"
                            fill="url(#m)" />
                        <path
                            d="M36.79,34.83c-.51-.13-1.03-.22-1.56-.27-.15-.02-.3,0-.44,.05-.14,.05-.27,.13-.38,.23-.4,.39-.93,.61-1.49,.61h-3.45c-.56,0-1.09-.22-1.49-.61-.11-.1-.24-.18-.38-.23-.14-.05-.29-.06-.44-.05-.53,.05-1.05,.14-1.56,.27-.2,.05-.39,.14-.56,.27,.26,.42,2.92,.87,6.15,.87s5.89-.45,6.15-.87c0,0-.02-.02-.03-.03-.16-.12-.34-.2-.53-.24Z"
                            fill="url(#n)" />
                        <path d="M31.19,28.74l-1.32,2.37,1.32,.86v-3.24h0Z" fill="#0a0a0a" />
                        <path d="M31.19,28.74v3.23l1.32-.86-1.32-2.37Zm0,3.71v1.13s1.32-1.99,1.32-1.99l-1.32,.87Z"
                            fill="#4b4d4d" />
                        <path d="M31.19,32.44l-1.32-.86,1.32,1.99v-1.13Z" fill="#0a0a0a" />
                    </g>
                </g>
            </g>

        </g>
    </g>
    <script>
        <![CDATA[
        (function(s,i,u,o,c,w,d,t,n,x,e,p,a,b){(a=document.getElementById(i.root)).svgatorPlayer={ready:(function(a){b=[];return function(c){return c?(b.push(c),a.svgatorPlayer):b}})(a)};w[o]=w[o]||{};w[o][s]=w[o][s]||[];w[o][s].push(i);e=d.createElementNS(n,t);e.async=true;e.setAttributeNS(x,'href',[u,s,'.','j','s','?','v','=',c].join(''));e.setAttributeNS(null,'src',[u,s,'.','j','s','?','v','=',c].join(''));p=d.getElementsByTagName(t)[0];p.parentNode.insertBefore(e,p);})('91c80d77',{"root":"egES3QNz75K1","version":"2022-05-04","animations":[{"elements":{"egES3QNz75K3":{"transform":{"data":{"t":{"x":-35.772576,"y":-59.765003}},"keys":{"o":[{"t":0,"v":{"x":35.772576,"y":59.765003,"type":"corner"}},{"t":500,"v":{"x":35.775314,"y":56.2605,"type":"corner"}},{"t":1400,"v":{"x":35.774328,"y":65.440962,"type":"corner"}},{"t":1800,"v":{"x":35.77389,"y":60.628183,"type":"corner"}},{"t":2300,"v":{"x":35.773343,"y":62.531051,"type":"corner"}},{"t":3000,"v":{"x":35.772576,"y":59.765003,"type":"corner"}}]}}},"egES3QNz75K7":{"transform":{"data":{"o":{"x":35.664999,"y":105.720001,"type":"corner"},"t":{"x":-35.664999,"y":-105.720001}},"keys":{"s":[{"t":0,"v":{"x":1,"y":1}},{"t":300,"v":{"x":1,"y":1.144971}},{"t":600,"v":{"x":1,"y":0.951565}},{"t":900,"v":{"x":1,"y":1.048265}},{"t":1200,"v":{"x":1,"y":0.963651}},{"t":1500,"v":{"x":1,"y":0.987923}},{"t":1800,"v":{"x":1,"y":1}},{"t":2100,"v":{"x":1,"y":1.144971}},{"t":2400,"v":{"x":1,"y":0.951565}},{"t":2700,"v":{"x":1,"y":1.048265}},{"t":3000,"v":{"x":1,"y":0.963651}}]}}}},"s":"MDYA1MzhiMzI3NPDg1ODJVNzE4BNDc5N2Y3ZTMSyNGE0M1Y0MDJQwNDAzYzMyNSzQ3OTgyNzU3XMzg0Nzk3ZjdOlMzI0YTQxM2JMzMjc5ODQ3NLTgyNzE4NDc5VN2ZXN2U4MzMIyNGE0MDNjMzCI3Njc5N2M3YEzMyNGFQNDEzOY0UzMjcxUjdUjODQ3NVA4MjKdlNzE4NDc1MWzI0YTc2NzE3PY1I4Mzc1M2MPzMjgzODA3NTRc1NzQzMjRhNYDE4ZFU/"}],"options":"MDLAxMDgyMjk3YXTdiNjhOUjc5RN2IyOTQxMjkU3Mzc2Njg2YjKI5ODQ/"},'https://cdn.svgator.com/ply/','__SVGATOR_PLAYER__','2022-05-04',window,document,'script','http://www.w3.org/2000/svg','http://www.w3.org/1999/xlink')
        ]]>
    </script>
</svg>