<svg id="egES3QNz75K1" xmlns="http://www.w3.org/2000/svg" xmlns:xlink="http://www.w3.org/1999/xlink"
    viewBox="0 0 71.55 119.53" shape-rendering="geometricPrecision" text-rendering="geometricPrecision">
    <defs>
        <linearGradient id="f" x1="31.5" y1="75.3" x2="31.5" y2="69.51"
            gradientTransform="translate(0 108.13) scale(1 -1)" gradientUnits="userSpaceOnUse">
            <stop offset="0" stop-color="#fff" />
            <stop offset="1" stop-color="#fff" stop-opacity=".9" />
        </linearGradient>
        <mask id="g" x="19.39" y="21.63" width="22.01" height="22.01" maskUnits="userSpaceOnUse">
            <g id="h">
                <path
                    d="M31.43,21.63h0c5.5,0,9.95,4.59,9.95,10.26h0c0,5.67-4.46,10.26-9.95,10.26h0c-5.5,0-9.95-4.59-9.95-10.26h0c0-5.67,4.46-10.26,9.95-10.26Z"
                    fill="#c4c4c4" />
            </g>
        </mask>
        <linearGradient id="i" x1="25.31" y1="88.48" x2="35.51" y2="68.07"
            gradientTransform="translate(0 108.13) scale(1 -1)" gradientUnits="userSpaceOnUse">
            <stop offset="0" stop-color="#fff" />
            <stop offset="1" stop-color="#fff" stop-opacity="0" />
        </linearGradient>
        <linearGradient id="j" x1="31.21" y1="86.54" x2="31.21" y2="66.16"
            gradientTransform="translate(0 108.13) scale(1 -1)" gradientUnits="userSpaceOnUse">
            <stop offset="0" stop-color="#f7f1fd" />
            <stop offset="1" stop-color="#fbfcdc" />
        </linearGradient>
        <clipPath id="k">
            <rect x="25.02" y="26.68" width="12.37" height="9.46" fill="none" />
        </clipPath>
        <linearGradient id="l" x1="27.41" y1="74.11" x2="27.41" y2="80.5"
            gradientTransform="translate(0 108.13) scale(1 -1)" gradientUnits="userSpaceOnUse">
            <stop offset="0" stop-color="#edcf00" />
            <stop offset=".33" stop-color="#f0d500" />
            <stop offset=".77" stop-color="#f9e500" />
            <stop offset="1" stop-color="#fff100" />
        </linearGradient>
        <linearGradient id="m" x1="36.2" y1="74.06" x2="36.2" y2="78.69"
            gradientTransform="translate(0 108.13) scale(1 -1)" gradientUnits="userSpaceOnUse">
            <stop offset="0" stop-color="#edcf00" />
            <stop offset=".59" stop-color="#f7e100" />
            <stop offset="1" stop-color="#fff100" />
        </linearGradient>
        <radialGradient id="n" cx="-785.19" cy="518.7" fx="-785.19" fy="518.7" r="1.03"
            gradientTransform="translate(3525.68 2477.33) scale(4.46 -4.7)" gradientUnits="userSpaceOnUse">
            <stop offset="0" stop-color="#fff100" />
            <stop offset=".23" stop-color="#f9e500" />
            <stop offset=".67" stop-color="#f0d500" />
            <stop offset="1" stop-color="#edcf00" />
        </radialGradient>
        <linearGradient id="o" x1="25.59" y1="88.03" x2="35.49" y2="68.23" xlink:href="#i" />
        <linearGradient id="p" x1="25.59" y1="88.23" x2="35.49" y2="68.43" xlink:href="#i" />
    </defs>
    <g transform="matrix(.883966 0 0 0.883968 4.150835 6.934653)">
        <g id="egES3QNz75K3" shape-rendering="geometricPrecision" text-rendering="geometricPrecision">
            <g id="d">
                <g>
                    <path
                        d="M47.67,44.07c-.82,.2-1.46,.87-1.64,1.7l-5.05,22.94c-.19,.87,.15,1.77,.87,2.29l12.07,8.84c1.13,.83,2.59,1.03,3.9,.51,.55-.21,1.03-.53,1.42-.93,.56-.56,.95-1.27,1.11-2.08l2.78-13.6c.37-1.81-.11-3.66-1.32-5.07l-11.9-13.9c-.56-.65-1.42-.93-2.25-.72h0Z"
                        fill="#8247e5" />
                    <path
                        d="M15.59,43.71c-.82-.2-1.7,.07-2.25,.72L1.44,58.32c-1.2,1.41-1.68,3.25-1.32,5.07l2.78,13.6c.28,1.38,1.23,2.5,2.54,3.01s2.77,.31,3.9-.51l12.07-8.84c.1-.07,.19-.14,.27-.22,.54-.54,.77-1.32,.6-2.07l-5.05-22.94c-.19-.83-.82-1.49-1.64-1.7h0Z"
                        fill="#8247e5" />
                </g>
                <g id="egES3QNz75K7">
                    <path
                        d="M23.62,95.44c.41-.41,.65-.96,.65-1.59v-10.36c0-1.24-1.01-2.25-2.25-2.25s-2.25,1.01-2.25,2.25v10.36c0,1.24,1.01,2.25,2.25,2.25,.62,0,1.18-.25,1.59-.65Z"
                        fill="#f96" />
                    <path
                        d="M31.53,81.25c-1.24,0-2.25,1.01-2.25,2.25v19.92c0,1.24,1.01,2.25,2.25,2.25,.62,0,1.18-.25,1.59-.65s.65-.96,.65-1.59v-19.92c0-1.24-1.01-2.25-2.25-2.25Z"
                        fill="#f96" />
                    <path
                        d="M41.03,81.25c-1.24,0-2.25,1.01-2.25,2.25v10.36c0,1.24,1.01,2.25,2.25,2.25,.62,0,1.18-.25,1.59-.65s.65-.96,.65-1.59v-10.36c0-1.24-1.01-2.25-2.25-2.25h0Z"
                        fill="#923d0f" />
                    <path
                        d="M31.53,105.66c.62,0,1.18-.25,1.59-.65s.65-.96,.65-1.59v-19.92c0-1.24-1.01-2.25-2.25-2.25v24.41h0Z"
                        fill="#c86a3a" />
                </g>
                <g>
                    <path
                        d="M47.67,44.07c-.82,.2-1.46,.87-1.64,1.7l-5.05,22.94c-.19,.87,.15,1.77,.87,2.29l12.07,8.84c1.13,.83,2.59,1.03,3.9,.51,.55-.21,1.03-.53,1.42-.93,.56-.56,.95-1.27,1.11-2.08l2.78-13.6c.37-1.81-.11-3.66-1.32-5.07l-11.9-13.9c-.56-.65-1.42-.93-2.25-.72h0Z"
                        isolation="isolate" opacity=".26" />
                    <path
                        d="M41.38,75.63c1.26,0,2.46-.6,3.19-1.63,10.76-15.08,10.29-36,6.66-47.42C47.19,13.91,38.53,4.92,34.16,1.01c-1.49-1.34-3.76-1.34-5.25,0-4.37,3.92-13.04,12.91-17.07,25.58-3.63,11.41-4.1,32.34,6.66,47.42,.73,1.03,1.93,1.63,3.19,1.63h19.69Z"
                        fill="#f1f1fb" />
                    <path
                        d="M31.53,0V75.63h9.86c1.26,0,2.46-.6,3.19-1.63,10.76-15.08,10.29-36,6.66-47.42C47.19,13.91,38.53,4.92,34.16,1.01c-.75-.67-1.69-1.01-2.63-1.01h0Z"
                        fill="#d7d6fb" />
                    <path
                        d="M18.49,74.01c.73,1.03,1.93,1.63,3.19,1.63h19.71c1.26,0,2.46-.6,3.19-1.63,2.34-3.28,4.15-6.84,5.51-10.52H12.98c1.36,3.68,3.17,7.23,5.51,10.52Z"
                        fill="#5d7c9e" />
                    <path d="M31.53,75.63h9.86c1.26,0,2.46-.6,3.19-1.63,2.34-3.28,4.15-6.84,5.51-10.52H31.53v12.15Z"
                        fill="#2f506f" />
                </g>

            </g>
            <!-- Polygon -->
            <g>
                <path
                    d="M31.53,21.88h0c5.47,0,9.9,4.43,9.9,9.9h0c0,5.47-4.43,9.9-9.9,9.9h0c-5.47,0-9.9-4.43-9.9-9.9h0c0-5.47,4.43-9.9,9.9-9.9Z"
                    fill="#8247e5" />
                <path
                    d="M31.53,21.88h0c5.47,0,9.9,4.43,9.9,9.9h0c0,5.47-4.43,9.9-9.9,9.9h0c-5.47,0-9.9-4.43-9.9-9.9h0c0-5.47,4.43-9.9,9.9-9.9Z"
                    fill="url(#p)" fill-opacity=".3" />
                <path
                    d="M34.56,29.6c-.23-.13-.52-.13-.75,0l-1.7,1-1.17,.66-1.7,1.01c-.22,.13-.51,.13-.75,0l-1.36-.79c-.23-.13-.37-.37-.37-.64v-1.56c0-.27,.14-.51,.37-.64l1.34-.76c.21-.13,.49-.13,.74,0l1.34,.77c.21,.13,.37,.37,.37,.64v1l1.16-.68v-1.01c0-.26-.14-.51-.37-.64l-2.48-1.44c-.23-.13-.52-.13-.75,0l-2.52,1.45c-.23,.12-.38,.37-.37,.64v2.91c0,.27,.14,.51,.37,.64l2.52,1.44c.22,.13,.5,.13,.75,0l1.7-.99,1.17-.67,1.7-.99c.22-.13,.51-.13,.75,0l1.34,.77c.21,.13,.37,.37,.37,.64v1.56c0,.27-.14,.51-.37,.64l-1.34,.78c-.21,.13-.5,.13-.74,0l-1.34-.76c-.22-.13-.36-.38-.37-.64v-1.01l-1.17,.68v1.01c0,.27,.14,.51,.37,.64l2.52,1.44c.22,.13,.51,.13,.75,0l2.52-1.44c.22-.13,.37-.37,.37-.64v-2.92c0-.27-.14-.51-.37-.64l-2.55-1.46h0Z"
                    fill="#fff" />
            </g>
        </g>
    </g>
    <script>
        <![CDATA[
        (function(s,i,u,o,c,w,d,t,n,x,e,p,a,b){(a=document.getElementById(i.root)).svgatorPlayer={ready:(function(a){b=[];return function(c){return c?(b.push(c),a.svgatorPlayer):b}})(a)};w[o]=w[o]||{};w[o][s]=w[o][s]||[];w[o][s].push(i);e=d.createElementNS(n,t);e.async=true;e.setAttributeNS(x,'href',[u,s,'.','j','s','?','v','=',c].join(''));e.setAttributeNS(null,'src',[u,s,'.','j','s','?','v','=',c].join(''));p=d.getElementsByTagName(t)[0];p.parentNode.insertBefore(e,p);})('91c80d77',{"root":"egES3QNz75K1","version":"2022-05-04","animations":[{"elements":{"egES3QNz75K3":{"transform":{"data":{"t":{"x":-35.772576,"y":-59.765003}},"keys":{"o":[{"t":0,"v":{"x":35.772576,"y":59.765003,"type":"corner"}},{"t":500,"v":{"x":35.775314,"y":56.2605,"type":"corner"}},{"t":1400,"v":{"x":35.774328,"y":65.440962,"type":"corner"}},{"t":1800,"v":{"x":35.77389,"y":60.628183,"type":"corner"}},{"t":2300,"v":{"x":35.773343,"y":62.531051,"type":"corner"}},{"t":3000,"v":{"x":35.772576,"y":59.765003,"type":"corner"}}]}}},"egES3QNz75K7":{"transform":{"data":{"o":{"x":35.664999,"y":105.720001,"type":"corner"},"t":{"x":-35.664999,"y":-105.720001}},"keys":{"s":[{"t":0,"v":{"x":1,"y":1}},{"t":300,"v":{"x":1,"y":1.144971}},{"t":600,"v":{"x":1,"y":0.951565}},{"t":900,"v":{"x":1,"y":1.048265}},{"t":1200,"v":{"x":1,"y":0.963651}},{"t":1500,"v":{"x":1,"y":0.987923}},{"t":1800,"v":{"x":1,"y":1}},{"t":2100,"v":{"x":1,"y":1.144971}},{"t":2400,"v":{"x":1,"y":0.951565}},{"t":2700,"v":{"x":1,"y":1.048265}},{"t":3000,"v":{"x":1,"y":0.963651}}]}}}},"s":"MDYA1MzhiMzI3NPDg1ODJVNzE4BNDc5N2Y3ZTMSyNGE0M1Y0MDJQwNDAzYzMyNSzQ3OTgyNzU3XMzg0Nzk3ZjdOlMzI0YTQxM2JMzMjc5ODQ3NLTgyNzE4NDc5VN2ZXN2U4MzMIyNGE0MDNjMzCI3Njc5N2M3YEzMyNGFQNDEzOY0UzMjcxUjdUjODQ3NVA4MjKdlNzE4NDc1MWzI0YTc2NzE3PY1I4Mzc1M2MPzMjgzODA3NTRc1NzQzMjRhNYDE4ZFU/"}],"options":"MDLAxMDgyMjk3YXTdiNjhOUjc5RN2IyOTQxMjkU3Mzc2Njg2YjKI5ODQ/"},'https://cdn.svgator.com/ply/','__SVGATOR_PLAYER__','2022-05-04',window,document,'script','http://www.w3.org/2000/svg','http://www.w3.org/1999/xlink')
        ]]>
    </script>
</svg>