<?xml version="1.0"?>
<svg xmlns="http://www.w3.org/2000/svg" xmlns:xlink="http://www.w3.org/1999/xlink" xmlns:svgjs="http://svgjs.com/svgjs" version="1.1" width="512" height="512" x="0" y="0" viewBox="0 0 24 24" style="enable-background:new 0 0 512 512" xml:space="preserve" class=""><g><path xmlns="http://www.w3.org/2000/svg" d="m12 1a11 11 0 1 0 11 11 11.013 11.013 0 0 0 -11-11zm0 20a9 9 0 1 1 9-9 9.01 9.01 0 0 1 -9 9z" fill="#78c37b" data-original="#000000" class=""/><path xmlns="http://www.w3.org/2000/svg" d="m16.324 8.763-5.294 4.853-2.323-2.323a1 1 0 1 0 -1.414 1.414l3 3a1 1 0 0 0 1.383.03l6-5.5a1 1 0 1 0 -1.352-1.474z" fill="#78c37b" data-original="#000000" class=""/></g></svg>
