<?xml version="1.0"?>
<svg xmlns="http://www.w3.org/2000/svg" xmlns:xlink="http://www.w3.org/1999/xlink" xmlns:svgjs="http://svgjs.com/svgjs" version="1.1" width="512" height="512" x="0" y="0" viewBox="0 0 24 24" style="enable-background:new 0 0 512 512" xml:space="preserve" class=""><g><g xmlns="http://www.w3.org/2000/svg" id="exclmation_mark"><g><path d="m12 2c-5.514 0-10 4.486-10 10s4.486 10 10 10 10-4.486 10-10-4.486-10-10-10zm0 18c-4.411 0-8-3.589-8-8s3.589-8 8-8 8 3.589 8 8-3.589 8-8 8z" fill="#f27573" data-original="#000000" class=""/><path d="m12 7c-.553 0-1 .448-1 1v5c0 .552.447 1 1 1s1-.448 1-1v-5c0-.552-.447-1-1-1z" fill="#f27573" data-original="#000000" class=""/><path d="m12 15c-.26 0-.52.11-.71.29-.181.19-.29.45-.29.71s.109.52.29.71c.38.37 1.04.37 1.42 0 .18-.19.29-.45.29-.71s-.11-.52-.29-.71c-.19-.18-.45-.29-.71-.29z" fill="#f27573" data-original="#000000" class=""/></g></g></g></svg>
