<?xml version="1.0" encoding="UTF-8"?><svg id="b" xmlns="http://www.w3.org/2000/svg"
    xmlns:xlink="http://www.w3.org/1999/xlink" viewBox="0 0 1318.5 1318.5">
    <defs>
        <linearGradient id="d" x1="659.25" y1="1420" x2="659.25" y2="101.5"
            gradientTransform="translate(0 1420) scale(1 -1)" gradientUnits="userSpaceOnUse">
            <stop offset="0" stop-color="#174299" />
            <stop offset="1" stop-color="#001e59" />
        </linearGradient>
        <linearGradient id="e" x1="659.25" y1="1420" x2="659.25" y2="101.5"
            gradientTransform="translate(0 1420) scale(1 -1)" gradientUnits="userSpaceOnUse">
            <stop offset="0" stop-color="#d2d8e4" />
            <stop offset="1" stop-color="#c2c9d6" />
        </linearGradient>
        <radialGradient id="f" cx="-502.61" cy="951.68" fx="-502.61" fy="951.68" r="27.47"
            gradientTransform="translate(82269.85 35093.3) rotate(-40.08) scale(82.9 -82.9)"
            gradientUnits="userSpaceOnUse">
            <stop offset=".28" stop-color="#6f9" />
            <stop offset=".46" stop-color="#667fff" />
            <stop offset=".76" stop-color="#f6c" />
            <stop offset="1" stop-color="#8cabcf" />
        </radialGradient>
        <radialGradient id="g" cx="-497.06" cy="971.82" fx="-497.06" fy="971.82" r="27.47"
            gradientTransform="translate(-23153.45 71234.23) rotate(45) scale(68.68 -68.68)"
            gradientUnits="userSpaceOnUse">
            <stop offset="0" stop-color="#c73154" />
            <stop offset="1" stop-color="#2053cb" />
        </radialGradient>
    </defs>
    <g id="c">
        <g>
            <path
                d="M0,439.5C0,285.67,0,208.76,29.94,149.98,56.28,98.3,98.3,56.28,149.98,29.94,208.76,0,285.67,0,439.5,0h439.5c153.82,0,230.74,0,289.52,29.94,51.68,26.33,93.7,68.35,120.04,120.04,29.94,58.78,29.94,135.7,29.94,289.52v439.5c0,153.82,0,230.74-29.94,289.52-26.34,51.68-68.36,93.7-120.04,120.04-58.78,29.94-135.7,29.94-289.52,29.94H439.5c-153.83,0-230.74,0-289.52-29.94-51.68-26.33-93.7-68.35-120.04-120.04C0,1109.74,0,1032.82,0,879V439.5Z"
                fill="url(#d)" />
            <path
                d="M0,439.5C0,285.67,0,208.76,29.94,149.98,56.28,98.3,98.3,56.28,149.98,29.94,208.76,0,285.67,0,439.5,0h439.5c153.82,0,230.74,0,289.52,29.94,51.68,26.33,93.7,68.35,120.04,120.04,29.94,58.78,29.94,135.7,29.94,289.52v439.5c0,153.82,0,230.74-29.94,289.52-26.34,51.68-68.36,93.7-120.04,120.04-58.78,29.94-135.7,29.94-289.52,29.94H439.5c-153.83,0-230.74,0-289.52-29.94-51.68-26.33-93.7-68.35-120.04-120.04C0,1109.74,0,1032.82,0,879V439.5Z"
                fill="url(#e)" />
            <path
                d="M31.12,261.31c-3.65,44.44-3.65,100.81-3.65,178.19v439.5c0,77.38,0,133.77,3.65,178.16,3.6,44.11,10.63,74.03,23.29,98.89,23.7,46.52,61.52,84.33,108.03,108.03,24.86,12.66,54.77,19.7,98.89,23.29,44.39,3.65,100.78,3.65,178.16,3.65h439.5c77.38,0,133.77,0,178.16-3.65,44.11-3.6,74.03-10.63,98.89-23.29,46.52-23.7,84.33-61.52,108.03-108.03,12.66-24.86,19.7-54.77,23.29-98.89,3.65-44.39,3.65-100.81,3.65-178.16V439.5c0-77.38,0-133.77-3.65-178.19-3.6-44.09-10.63-74-23.29-98.86-23.7-46.52-61.52-84.33-108.03-108.03-24.86-12.66-54.77-19.7-98.89-23.29-44.39-3.65-100.81-3.65-178.16-3.65H439.5c-77.38,0-133.77,0-178.19,3.65-44.09,3.6-74,10.63-98.86,23.29-46.52,23.7-84.33,61.52-108.03,108.03-12.66,24.86-19.7,54.77-23.29,98.89v-.03Zm-1.18-111.33C0,208.76,0,285.67,0,439.5v439.5c0,153.82,0,230.74,29.94,289.52,26.33,51.68,68.35,93.7,120.04,120.04,58.78,29.94,135.7,29.94,289.52,29.94h439.5c153.82,0,230.74,0,289.52-29.94,51.68-26.34,93.7-68.36,120.04-120.04,29.94-58.78,29.94-135.7,29.94-289.52V439.5c0-153.83,0-230.74-29.94-289.52-26.33-51.68-68.35-93.7-120.04-120.04C1109.74,0,1032.82,0,879,0H439.5C285.67,0,208.76,0,149.98,29.94,98.3,56.28,56.28,98.3,29.94,149.98Z"
                fill-rule="evenodd" />
            <g>
                <path
                    d="M82.41,390.06c0-107.68,0-161.52,20.96-202.66,18.44-36.18,47.87-65.6,84.05-84.03,41.07-20.96,94.96-20.96,202.64-20.96H928.44c107.68,0,161.52,0,202.66,20.96,36.18,18.44,65.6,47.87,84.03,84.05,20.96,41.07,20.96,94.96,20.96,202.64V928.44c0,107.68,0,161.52-20.96,202.66-18.44,36.18-47.87,65.6-84.05,84.03-41.07,20.96-94.96,20.96-202.64,20.96H390.06c-107.68,0-161.52,0-202.66-20.96-36.18-18.44-65.6-47.87-84.03-84.05-20.96-41.07-20.96-94.96-20.96-202.64V390.06Z"
                    fill="url(#f)" />
                <path
                    d="M82.41,390.06c0-107.68,0-161.52,20.96-202.66,18.44-36.18,47.87-65.6,84.05-84.03,41.07-20.96,94.96-20.96,202.64-20.96H928.44c107.68,0,161.52,0,202.66,20.96,36.18,18.44,65.6,47.87,84.03,84.05,20.96,41.07,20.96,94.96,20.96,202.64V928.44c0,107.68,0,161.52-20.96,202.66-18.44,36.18-47.87,65.6-84.05,84.03-41.07,20.96-94.96,20.96-202.64,20.96H390.06c-107.68,0-161.52,0-202.66-20.96-36.18-18.44-65.6-47.87-84.03-84.05-20.96-41.07-20.96-94.96-20.96-202.64V390.06Z"
                    fill="url(#g)" fill-opacity=".7" opacity=".67" />
            </g>
            <path
                d="M98.72,264.88c-2.58,31.37-2.58,71.12-2.58,125.18V928.44c0,54.06,0,93.81,2.58,125.18,2.55,31.2,7.55,52.96,16.87,71.25,17.12,33.59,44.44,60.9,78.04,78.01,18.32,9.34,40.05,14.34,71.25,16.89,31.37,2.58,71.12,2.58,125.18,2.58H928.44c54.06,0,93.81,0,125.18-2.58,31.2-2.55,52.96-7.55,71.25-16.87,33.59-17.12,60.9-44.44,78.01-78.04,9.34-18.29,14.34-40.05,16.89-71.25,2.58-31.37,2.58-71.12,2.58-125.18V390.06c0-54.06,0-93.81-2.58-125.18-2.55-31.2-7.55-52.93-16.87-71.25-17.12-33.59-44.44-60.9-78.04-78.01-18.29-9.34-40.05-14.34-71.25-16.89-31.37-2.58-71.12-2.58-125.18-2.58H390.06c-54.06,0-93.81,0-125.18,2.58-31.2,2.55-52.93,7.55-71.25,16.87-33.59,17.14-60.88,44.46-77.98,78.07-9.34,18.32-14.34,40.05-16.89,71.25l-.03-.03Zm4.64-77.46c-20.96,41.07-20.96,94.96-20.96,202.64V928.44c0,107.68,0,161.52,20.96,202.66,18.44,36.18,47.87,65.6,84.05,84.03,41.07,20.96,94.96,20.96,202.64,20.96H928.44c107.68,0,161.52,0,202.66-20.96,36.18-18.44,65.6-47.87,84.03-84.05,20.96-41.07,20.96-94.96,20.96-202.64V390.06c0-107.68,0-161.52-20.96-202.66-18.44-36.18-47.87-65.6-84.05-84.03-41.07-20.96-94.96-20.96-202.64-20.96H390.06c-107.68,0-161.52,0-202.66,20.96-36.18,18.44-65.6,47.87-84.03,84.05Z"
                fill-rule="evenodd" />
            <path
                d="M125.94,266.78c-2.31,28.4-2.33,64.58-2.33,115.04V936.68c0,50.46,0,86.64,2.33,115.04,2.31,28.07,6.7,46.09,14.12,60.68,14.49,28.42,37.61,51.53,66.03,66.01,14.56,7.42,32.61,11.81,60.71,14.12,28.38,2.31,64.55,2.33,115.01,2.33H936.68c50.46,0,86.64,0,115.04-2.33,28.07-2.31,46.09-6.7,60.68-14.12,28.43-14.49,51.55-37.6,66.03-66.03,7.42-14.56,11.81-32.61,14.12-60.71,2.31-28.38,2.33-64.55,2.33-115.01V381.82c0-50.46,0-86.64-2.33-115.04-2.31-28.07-6.7-46.09-14.12-60.68-14.5-28.43-37.62-51.53-66.06-66.01-14.56-7.42-32.61-11.81-60.71-14.12-28.38-2.31-64.55-2.33-115.01-2.33H381.82c-50.46,0-86.64,0-115.04,2.33-28.07,2.31-46.09,6.7-60.68,14.12-28.42,14.48-51.52,37.59-66.01,66.01-7.42,14.56-11.81,32.61-14.12,60.71l-.03-.03Zm-10.36-73.12c-19.45,38.18-19.45,88.17-19.45,188.16V936.68c0,99.99,0,149.98,19.45,188.16,17.12,33.6,44.44,60.92,78.04,78.04,38.18,19.48,88.17,19.48,188.19,19.48H936.68c99.99,0,149.98,0,188.16-19.48,33.6-17.11,60.92-44.42,78.04-78.01,19.48-38.18,19.48-88.17,19.48-188.19V381.82c0-99.99,0-149.98-19.48-188.16-17.11-33.61-44.42-60.94-78.01-78.07-38.21-19.45-88.2-19.45-188.19-19.45H381.82c-99.99,0-149.98,0-188.16,19.45-33.63,17.12-60.97,44.45-78.09,78.07h.03Z"
                fill="rgba(255,255,255,.2)" fill-rule="evenodd" />
            <g opacity=".56">
                <g>
                    <path
                        d="M460.11,1130.65c-43.42,0-83.86-23.37-105.53-60.99l-198.96-344.62c-21.63-37.57-21.63-84.22-.02-121.77l198.99-344.67c21.65-37.58,62.07-60.95,105.46-60.97h398.22c43.42,0,83.86,23.37,105.53,60.99l198.96,344.62c21.67,37.5,21.75,84.15,.19,121.73l-199.01,344.7c-21.66,37.6-62.1,60.97-105.52,60.97H460.11Zm89.44-719.15c-22.38,0-43.23,12.05-54.42,31.43l-109.61,189.87c-11.18,19.38-11.18,43.47,0,62.86l109.6,189.86c11.19,19.37,32.04,31.41,54.42,31.42h219.28c22.37,0,43.22-12.05,54.41-31.43l109.61-189.87c11.18-19.38,11.18-43.47,0-62.86l-109.6-189.86c-11.19-19.37-32.04-31.41-54.42-31.42h-219.27Z"
                        fill="#fff" opacity=".41" />
                    <path
                        d="M1139.37,616.75l-198.97-344.64c-16.94-29.4-48.3-47.51-82.24-47.47H460.07c-33.88,.02-65.17,18.11-82.08,47.47l-198.97,344.64c-16.89,29.34-16.89,65.45,0,94.79l198.97,344.64c16.94,29.4,48.3,47.51,82.24,47.47h398.1c33.93,.04,65.3-18.07,82.24-47.47l198.97-344.64c16.85-29.36,16.79-65.48-.15-94.79Zm-183.12,92.4l-109.61,189.87c-16.05,27.79-45.71,44.91-77.8,44.93h-219.29c-32.09-.01-61.75-17.14-77.8-44.93l-109.61-189.87c-16.04-27.81-16.04-62.05,0-89.86l109.61-189.87c16.05-27.79,45.71-44.91,77.8-44.93h219.29c32.09,.01,61.75,17.14,77.8,44.93l109.61,189.87c16.04,27.81,16.04,62.05,0,89.86h0Z" />
                    <path
                        d="M597.43,887.62c-38.43,0-74.25-20.67-93.49-53.95l-7.81-13.51,216.28-374.62h15.6c38.45,0,74.28,20.7,93.49,54l65.29,113.09c19.21,33.28,19.21,74.63,0,107.91l-65.29,113.1c-19.24,33.29-55.06,53.96-93.49,53.96h-130.58Z" />
                    <path
                        d="M728,472.56l-200.68,347.6c14.47,25.03,41.19,40.45,70.1,40.45h130.58c28.91,0,55.63-15.42,70.1-40.45l65.29-113.1c14.45-25.04,14.45-55.87,0-80.91l-65.29-113.1c-14.46-25.05-41.18-40.49-70.1-40.49Z" />
                    <path
                        d="M431.59,715.78c-19.2-33.28-19.2-74.63,0-107.9l65.29-113.1c19.24-33.28,55.06-53.96,93.49-53.96h46.79l-182.19,315.49-23.38-40.53Z" />
                    <path
                        d="M590.38,467.82c-28.91,0-55.63,15.42-70.1,40.45l-65.29,113.1c-14.45,25.04-14.45,55.87,0,80.91l135.39-234.46Z" />
                </g>
            </g>
        </g>
    </g>
</svg>