<?xml version="1.0" encoding="UTF-8"?><svg id="b" xmlns="http://www.w3.org/2000/svg" xmlns:xlink="http://www.w3.org/1999/xlink" viewBox="0 0 1318.5 1318.5"><defs><linearGradient id="d" x1="659.25" y1="1321.18" x2="659.25" y2="2.68" gradientTransform="translate(0 1321.18) scale(1 -1)" gradientUnits="userSpaceOnUse"><stop offset="0" stop-color="#174299"/><stop offset="1" stop-color="#001e59"/></linearGradient><linearGradient id="e" x1="659.25" y1="1321.18" x2="659.25" y2="2.68" gradientTransform="translate(0 1321.18) scale(1 -1)" gradientUnits="userSpaceOnUse"><stop offset="0" stop-color="#d2d8e4"/><stop offset="1" stop-color="#c2c9d6"/></linearGradient><radialGradient id="f" cx="-308.71" cy="903.33" fx="-308.71" fy="903.33" r="27.47" gradientTransform="translate(67388.97 42376.13) rotate(-40.08) scale(82.9 -82.9)" gradientUnits="userSpaceOnUse"><stop offset=".28" stop-color="#6f9"/><stop offset=".46" stop-color="#667fff"/><stop offset=".76" stop-color="#f6c"/><stop offset="1" stop-color="#8cabcf"/></radialGradient><radialGradient id="g" cx="-302.47" cy="919.88" fx="-302.47" fy="919.88" r="27.47" gradientTransform="translate(-30080.74 59262.49) rotate(45) scale(68.68 -68.68)" gradientUnits="userSpaceOnUse"><stop offset="0" stop-color="#c73154"/><stop offset="1" stop-color="#2053cb"/></radialGradient></defs><g id="c"><g><path d="M0,439.5C0,285.67,0,208.76,29.94,149.98,56.28,98.3,98.3,56.28,149.98,29.94,208.76,0,285.67,0,439.5,0h439.5c153.82,0,230.74,0,289.52,29.94,51.68,26.33,93.7,68.35,120.04,120.04,29.94,58.78,29.94,135.7,29.94,289.52v439.5c0,153.82,0,230.74-29.94,289.52-26.34,51.68-68.36,93.7-120.04,120.04-58.78,29.94-135.7,29.94-289.52,29.94H439.5c-153.83,0-230.74,0-289.52-29.94-51.68-26.33-93.7-68.35-120.04-120.04C0,1109.74,0,1032.82,0,879V439.5Z" fill="url(#d)"/><path d="M0,439.5C0,285.67,0,208.76,29.94,149.98,56.28,98.3,98.3,56.28,149.98,29.94,208.76,0,285.67,0,439.5,0h439.5c153.82,0,230.74,0,289.52,29.94,51.68,26.33,93.7,68.35,120.04,120.04,29.94,58.78,29.94,135.7,29.94,289.52v439.5c0,153.82,0,230.74-29.94,289.52-26.34,51.68-68.36,93.7-120.04,120.04-58.78,29.94-135.7,29.94-289.52,29.94H439.5c-153.83,0-230.74,0-289.52-29.94-51.68-26.33-93.7-68.35-120.04-120.04C0,1109.74,0,1032.82,0,879V439.5Z" fill="url(#e)"/><path d="M31.12,261.31c-3.65,44.44-3.65,100.81-3.65,178.19v439.5c0,77.38,0,133.77,3.65,178.16,3.6,44.11,10.63,74.03,23.29,98.89,23.7,46.52,61.52,84.33,108.03,108.03,24.86,12.66,54.77,19.7,98.89,23.29,44.39,3.65,100.78,3.65,178.16,3.65h439.5c77.38,0,133.77,0,178.16-3.65,44.11-3.6,74.03-10.63,98.89-23.29,46.52-23.7,84.33-61.52,108.03-108.03,12.66-24.86,19.7-54.77,23.29-98.89,3.65-44.39,3.65-100.81,3.65-178.16V439.5c0-77.38,0-133.77-3.65-178.19-3.6-44.09-10.63-74-23.29-98.86-23.7-46.52-61.52-84.33-108.03-108.03-24.86-12.66-54.77-19.7-98.89-23.29-44.39-3.65-100.81-3.65-178.16-3.65H439.5c-77.38,0-133.77,0-178.19,3.65-44.09,3.6-74,10.63-98.86,23.29-46.52,23.7-84.33,61.52-108.03,108.03-12.66,24.86-19.7,54.77-23.29,98.89v-.03Zm-1.18-111.33C0,208.76,0,285.67,0,439.5v439.5c0,153.82,0,230.74,29.94,289.52,26.33,51.68,68.35,93.7,120.04,120.04,58.78,29.94,135.7,29.94,289.52,29.94h439.5c153.82,0,230.74,0,289.52-29.94,51.68-26.34,93.7-68.36,120.04-120.04,29.94-58.78,29.94-135.7,29.94-289.52V439.5c0-153.83,0-230.74-29.94-289.52-26.33-51.68-68.35-93.7-120.04-120.04C1109.74,0,1032.82,0,879,0H439.5C285.67,0,208.76,0,149.98,29.94,98.3,56.28,56.28,98.3,29.94,149.98Z" fill-rule="evenodd"/><g><path d="M82.41,390.06c0-107.68,0-161.52,20.96-202.66,18.44-36.18,47.87-65.6,84.05-84.03,41.07-20.96,94.96-20.96,202.64-20.96H928.44c107.68,0,161.52,0,202.66,20.96,36.18,18.44,65.6,47.87,84.03,84.05,20.96,41.07,20.96,94.96,20.96,202.64V928.44c0,107.68,0,161.52-20.96,202.66-18.44,36.18-47.87,65.6-84.05,84.03-41.07,20.96-94.96,20.96-202.64,20.96H390.06c-107.68,0-161.52,0-202.66-20.96-36.18-18.44-65.6-47.87-84.03-84.05-20.96-41.07-20.96-94.96-20.96-202.64V390.06Z" fill="url(#f)"/><path d="M82.41,390.06c0-107.68,0-161.52,20.96-202.66,18.44-36.18,47.87-65.6,84.05-84.03,41.07-20.96,94.96-20.96,202.64-20.96H928.44c107.68,0,161.52,0,202.66,20.96,36.18,18.44,65.6,47.87,84.03,84.05,20.96,41.07,20.96,94.96,20.96,202.64V928.44c0,107.68,0,161.52-20.96,202.66-18.44,36.18-47.87,65.6-84.05,84.03-41.07,20.96-94.96,20.96-202.64,20.96H390.06c-107.68,0-161.52,0-202.66-20.96-36.18-18.44-65.6-47.87-84.03-84.05-20.96-41.07-20.96-94.96-20.96-202.64V390.06Z" fill="url(#g)" fill-opacity=".7" opacity=".67"/></g><path d="M98.72,264.88c-2.58,31.37-2.58,71.12-2.58,125.18V928.44c0,54.06,0,93.81,2.58,125.18,2.55,31.2,7.55,52.96,16.87,71.25,17.12,33.59,44.44,60.9,78.04,78.01,18.32,9.34,40.05,14.34,71.25,16.89,31.37,2.58,71.12,2.58,125.18,2.58H928.44c54.06,0,93.81,0,125.18-2.58,31.2-2.55,52.96-7.55,71.25-16.87,33.59-17.12,60.9-44.44,78.01-78.04,9.34-18.29,14.34-40.05,16.89-71.25,2.58-31.37,2.58-71.12,2.58-125.18V390.06c0-54.06,0-93.81-2.58-125.18-2.55-31.2-7.55-52.93-16.87-71.25-17.12-33.59-44.44-60.9-78.04-78.01-18.29-9.34-40.05-14.34-71.25-16.89-31.37-2.58-71.12-2.58-125.18-2.58H390.06c-54.06,0-93.81,0-125.18,2.58-31.2,2.55-52.93,7.55-71.25,16.87-33.59,17.14-60.88,44.46-77.98,78.07-9.34,18.32-14.34,40.05-16.89,71.25l-.03-.03Zm4.64-77.46c-20.96,41.07-20.96,94.96-20.96,202.64V928.44c0,107.68,0,161.52,20.96,202.66,18.44,36.18,47.87,65.6,84.05,84.03,41.07,20.96,94.96,20.96,202.64,20.96H928.44c107.68,0,161.52,0,202.66-20.96,36.18-18.44,65.6-47.87,84.03-84.05,20.96-41.07,20.96-94.96,20.96-202.64V390.06c0-107.68,0-161.52-20.96-202.66-18.44-36.18-47.87-65.6-84.05-84.03-41.07-20.96-94.96-20.96-202.64-20.96H390.06c-107.68,0-161.52,0-202.66,20.96-36.18,18.44-65.6,47.87-84.03,84.05Z" fill-rule="evenodd"/><path d="M125.94,266.78c-2.31,28.4-2.33,64.58-2.33,115.04V936.68c0,50.46,0,86.64,2.33,115.04,2.31,28.07,6.7,46.09,14.12,60.68,14.49,28.42,37.61,51.53,66.03,66.01,14.56,7.42,32.61,11.81,60.71,14.12,28.38,2.31,64.55,2.33,115.01,2.33H936.68c50.46,0,86.64,0,115.04-2.33,28.07-2.31,46.09-6.7,60.68-14.12,28.43-14.49,51.55-37.6,66.03-66.03,7.42-14.56,11.81-32.61,14.12-60.71,2.31-28.38,2.33-64.55,2.33-115.01V381.82c0-50.46,0-86.64-2.33-115.04-2.31-28.07-6.7-46.09-14.12-60.68-14.5-28.43-37.62-51.53-66.06-66.01-14.56-7.42-32.61-11.81-60.71-14.12-28.38-2.31-64.55-2.33-115.01-2.33H381.82c-50.46,0-86.64,0-115.04,2.33-28.07,2.31-46.09,6.7-60.68,14.12-28.42,14.48-51.52,37.59-66.01,66.01-7.42,14.56-11.81,32.61-14.12,60.71l-.03-.03Zm-10.36-73.12c-19.45,38.18-19.45,88.17-19.45,188.16V936.68c0,99.99,0,149.98,19.45,188.16,17.12,33.6,44.44,60.92,78.04,78.04,38.18,19.48,88.17,19.48,188.19,19.48H936.68c99.99,0,149.98,0,188.16-19.48,33.6-17.11,60.92-44.42,78.04-78.01,19.48-38.18,19.48-88.17,19.48-188.19V381.82c0-99.99,0-149.98-19.48-188.16-17.11-33.61-44.42-60.94-78.01-78.07-38.21-19.45-88.2-19.45-188.19-19.45H381.82c-99.99,0-149.98,0-188.16,19.45-33.63,17.12-60.97,44.45-78.09,78.07h.03Z" fill="rgba(255,255,255,.2)" fill-rule="evenodd"/><g opacity=".56"><g><path d="M502.51,1026.47c-34.18,0-66.01-18.4-83.07-48.01l-156.62-271.27c-17.03-29.58-17.03-66.3-.01-95.85l156.64-271.31c17.04-29.58,48.86-47.98,83.02-48h313.46c34.18,0,66.01,18.4,83.07,48.01l156.62,271.27c17.06,29.52,17.12,66.24,.15,95.82l-156.65,271.34c-17.05,29.6-48.89,48-83.06,48H502.51Zm70.41-566.09c-17.61,0-34.03,9.49-42.84,24.74l-86.28,149.46c-8.8,15.26-8.8,34.22,0,49.48l86.28,149.45c8.81,15.25,25.22,24.73,42.84,24.73h172.61c17.61,0,34.02-9.49,42.83-24.74l86.28-149.46c8.8-15.26,8.8-34.22,0-49.48l-86.28-149.45c-8.81-15.25-25.22-24.73-42.84-24.74h-172.6Z" fill="#fff" opacity=".41"/><path d="M1037.2,621.94l-156.62-271.29c-13.33-23.14-38.02-37.4-64.73-37.37H502.47c-26.67,.01-51.3,14.26-64.61,37.37l-156.63,271.29c-13.3,23.09-13.3,51.52,0,74.61l156.63,271.29c13.33,23.14,38.02,37.4,64.73,37.37h313.37c26.71,.03,51.4-14.22,64.73-37.37l156.63-271.29c13.26-23.11,13.21-51.54-.12-74.61Zm-144.15,72.73l-86.28,149.46c-12.64,21.88-35.98,35.35-61.24,35.37h-172.62c-25.26-.01-48.6-13.49-61.24-35.37l-86.28-149.46c-12.62-21.89-12.62-48.84,0-70.73l86.28-149.46c12.64-21.88,35.98-35.35,61.24-35.37h172.62c25.26,.01,48.6,13.49,61.24,35.37l86.28,149.46c12.62,21.89,12.62,48.84,0,70.73h0Z"/><path d="M610.6,835.17c-30.25,0-58.45-16.27-73.59-42.46l-6.15-10.63,170.25-294.88h12.28c30.27,0,58.47,16.29,73.59,42.51l51.39,89.02c15.12,26.2,15.12,58.75,0,84.94l-51.39,89.03c-15.15,26.2-43.34,42.47-73.59,42.48h-102.79Z"/><path d="M713.39,508.44l-157.97,273.62c11.39,19.7,32.42,31.84,55.18,31.84h102.79c22.76,0,43.79-12.14,55.18-31.84l51.39-89.03c11.37-19.71,11.37-43.98,0-63.69l-51.39-89.03c-11.38-19.72-32.41-31.87-55.18-31.87Z"/><path d="M480.06,699.9c-15.12-26.2-15.12-58.74,0-84.94l51.39-89.03c15.15-26.2,43.34-42.47,73.59-42.48h36.83l-143.41,248.35-18.41-31.9Z"/><path d="M605.05,504.71c-22.76,0-43.79,12.14-55.18,31.84l-51.39,89.03c-11.37,19.71-11.37,43.98,0,63.69l106.58-184.56Z"/></g></g></g></g></svg>