<?xml version="1.0" encoding="UTF-8"?><svg xmlns="http://www.w3.org/2000/svg" viewBox="0 0 75.71 75.72"><g id="a"/><g id="b"><g id="c"><g><path d="M36.36,1.86h3.07s.08,.04,.12,.04c1.68,.08,3.34,.27,4.99,.58,3.18,.6,6.23,1.59,9.14,3.03,5.87,2.91,10.62,7.08,14.24,12.54,2.69,4.07,4.46,8.51,5.35,13.3,.37,1.99,.54,4,.59,6.02v1.59c-.08,2.63-.43,5.22-1.09,7.76-2.01,7.7-6.08,14.09-12.25,19.1-6.33,5.13-13.6,7.76-21.73,8.02-3.18,.1-6.31-.25-9.4-.99-4.57-1.1-8.75-3.04-12.56-5.78-3.49-2.51-6.44-5.55-8.83-9.13-3.4-5.08-5.39-10.66-5.95-16.75-.25-2.73-.23-5.45,.14-8.17,.36-2.62,.99-5.18,1.91-7.66,2.13-5.7,5.48-10.55,10.05-14.57,3.47-3.05,7.39-5.35,11.76-6.89,3.11-1.1,6.31-1.75,9.6-1.96,.29-.02,.58-.06,.87-.08Zm-11.86,50.31h0c1.37,.01,2.73,.02,4.1,0,.61,0,1.24,0,1.84-.12,1.39-.25,2.51-.99,3.27-2.18,.65-1.02,1.24-2.08,1.84-3.13,2.19-3.86,4.37-7.72,6.55-11.58,.92-1.62,1.83-3.25,2.73-4.88,.32-.58,.49-1.22,.55-1.89,.1-1.17-.22-2.24-.79-3.24-1.4-2.45-2.79-4.9-4.2-7.34-.37-.65-.74-1.31-1.19-1.9-.64-.84-1.93-.82-2.54,.03-.43,.59-.79,1.23-1.16,1.87-2.25,3.96-4.5,7.92-6.75,11.89-3.4,5.99-6.8,11.98-10.2,17.98-.42,.73-.82,1.47-1.17,2.24-.29,.63-.03,1.41,.5,1.86,.4,.34,.89,.4,1.37,.4,1.76,.01,3.51,0,5.27,0Zm25.68,.01c.46,0,.93,0,1.39,0,1.82-.01,3.64-.03,5.46-.04,1.4-.01,2.14-1.41,1.54-2.49-.22-.38-.4-.78-.62-1.16-1.75-2.99-3.49-5.99-5.25-8.97-.38-.64-.77-1.29-1.24-1.87-.57-.7-1.77-.66-2.35,.03-.28,.33-.53,.7-.75,1.08-1.85,3.16-3.69,6.32-5.52,9.48-.32,.55-.64,1.11-.87,1.7-.37,.92,.27,1.99,1.25,2.15,.36,.06,.73,.08,1.1,.08,1.96,0,3.91,0,5.87,0Z" fill="#fe003d" stroke="#000" stroke-miterlimit="10" stroke-width="3.72"/><g><path d="M24.5,52.17c-1.76,0-3.51,0-5.27,0-.49,0-.97-.06-1.37-.4-.53-.45-.79-1.22-.5-1.86,.35-.77,.76-1.51,1.17-2.24,3.4-6,6.8-11.99,10.2-17.98,2.25-3.96,4.49-7.93,6.75-11.89,.36-.64,.73-1.28,1.16-1.87,.62-.85,1.9-.87,2.54-.03,.45,.59,.82,1.25,1.19,1.9,1.41,2.44,2.8,4.9,4.2,7.34,.58,1.01,.9,2.07,.79,3.24-.06,.67-.22,1.31-.55,1.89-.9,1.63-1.81,3.26-2.73,4.88-2.18,3.86-4.36,7.73-6.55,11.58-.6,1.05-1.19,2.11-1.84,3.13-.76,1.2-1.88,1.93-3.27,2.18-.6,.11-1.22,.11-1.84,.12-1.37,.02-2.73,0-4.1,0h0Z" fill="#fefefe" stroke="#000" stroke-miterlimit="10" stroke-width="3.72"/><path d="M50.18,52.19c-1.96,0-3.91,0-5.87,0-.37,0-.74-.03-1.1-.08-.98-.16-1.62-1.23-1.25-2.15,.24-.59,.56-1.15,.87-1.7,1.83-3.16,3.68-6.32,5.52-9.48,.22-.38,.47-.75,.75-1.08,.59-.7,1.78-.74,2.35-.03,.47,.58,.86,1.22,1.24,1.87,1.76,2.99,3.5,5.98,5.25,8.97,.22,.38,.41,.78,.62,1.16,.61,1.08-.14,2.48-1.54,2.49-1.82,.01-3.64,.03-5.46,.04-.46,0-.93,0-1.39,0Z" fill="#fefdfe" stroke="#000" stroke-miterlimit="10" stroke-width="3.72"/></g></g></g></g></svg>