<?xml version="1.0" encoding="UTF-8"?><svg xmlns="http://www.w3.org/2000/svg" xmlns:xlink="http://www.w3.org/1999/xlink" viewBox="0 0 722 504"><defs><radialGradient id="d" cx="281" cy="252" fx="281" fy="252" r="400.23" gradientTransform="matrix(1, 0, 0, 1, 0, 0)" gradientUnits="userSpaceOnUse"><stop offset="0" stop-color="#2053cb"/><stop offset="1" stop-color="#f6c"/></radialGradient><radialGradient id="e" cx="281" cy="252" fx="281" fy="252" r="400.23" xlink:href="#d"/><radialGradient id="f" cx="281" fx="281" r="400.23" xlink:href="#d"/><radialGradient id="g" cx="281" cy="252" fx="281" fy="252" r="400.23" xlink:href="#d"/><radialGradient id="h" cy="252" fy="252" r="400.23" xlink:href="#d"/><radialGradient id="i" cx="281" cy="252" fx="281" fy="252" r="400.23" xlink:href="#d"/><radialGradient id="j" cy="252" fy="252" r="400.23" xlink:href="#d"/><radialGradient id="k" cx="281" cy="252" fx="281" fy="252" r="400.23" xlink:href="#d"/><radialGradient id="l" cy="252" fy="252" r="400.23" xlink:href="#d"/><radialGradient id="m" cx="281" cy="252" fx="281" fy="252" r="400.23" xlink:href="#d"/><radialGradient id="n" cx="281" cy="252" fx="281" fy="252" r="400.23" xlink:href="#d"/><radialGradient id="o" cx="281" fx="281" r="400.23" xlink:href="#d"/><radialGradient id="p" cx="281" cy="252" fx="281" fy="252" r="400.23" xlink:href="#d"/><radialGradient id="q" cx="281" fx="281" r="400.23" xlink:href="#d"/><radialGradient id="r" cx="281" cy="252" fx="281" fy="252" r="400.23" xlink:href="#d"/><radialGradient id="s" cx="281" fx="281" r="400.23" xlink:href="#d"/><radialGradient id="t" cy="252" fy="252" r="400.23" xlink:href="#d"/><radialGradient id="u" cx="281" cy="252" fx="281" fy="252" r="400.23" xlink:href="#d"/><radialGradient id="v" cx="281" cy="252" fx="281" fy="252" r="400.23" xlink:href="#d"/><radialGradient id="w" cy="252" fy="252" r="400.23" xlink:href="#d"/><radialGradient id="x" cx="281" cy="252" fx="281" fy="252" r="400.23" xlink:href="#d"/><radialGradient id="y" cy="252" fy="252" r="400.23" xlink:href="#d"/><radialGradient id="z" cx="281" cy="252" fx="281" fy="252" r="400.23" xlink:href="#d"/><radialGradient id="aa" cx="281" cy="252" fx="281" fy="252" r="400.23" xlink:href="#d"/><radialGradient id="ab" cx="281" cy="252" fx="281" fy="252" r="400.23" xlink:href="#d"/><radialGradient id="ac" cx="281" fx="281" r="400.23" xlink:href="#d"/><radialGradient id="ad" cy="252" fy="252" r="400.23" xlink:href="#d"/><radialGradient id="ae" cx="281" cy="252" fx="281" fy="252" r="400.23" xlink:href="#d"/><radialGradient id="af" cx="281" cy="252" fx="281" fy="252" r="400.23" xlink:href="#d"/><radialGradient id="ag" cx="281" cy="252" fx="281" fy="252" r="400.23" xlink:href="#d"/><radialGradient id="ah" cx="281" cy="252" fx="281" fy="252" r="400.23" xlink:href="#d"/><radialGradient id="ai" cx="281" cy="252" fx="281" fy="252" r="400.23" xlink:href="#d"/><radialGradient id="aj" cx="281" cy="252" fx="281" fy="252" r="400.23" xlink:href="#d"/><radialGradient id="ak" cx="281" cy="252" fx="281" fy="252" r="400.23" xlink:href="#d"/><radialGradient id="al" cx="281" cy="252" fx="281" fy="252" r="400.23" xlink:href="#d"/><radialGradient id="am" cx="281" cy="252" fx="281" fy="252" r="400.23" xlink:href="#d"/><radialGradient id="an" cx="281" cy="252" fx="281" fy="252" r="400.23" xlink:href="#d"/><radialGradient id="ao" cx="281" cy="252" fx="281" fy="252" r="400.23" xlink:href="#d"/><radialGradient id="ap" cx="281" cy="252" fx="281" fy="252" r="400.23" xlink:href="#d"/><radialGradient id="aq" cx="281" cy="252" fx="281" fy="252" r="400.23" xlink:href="#d"/><radialGradient id="ar" cx="281" cy="252" fx="281" fy="252" r="400.23" xlink:href="#d"/><radialGradient id="as" cx="281" cy="252" fx="281" fy="252" r="400.23" xlink:href="#d"/><radialGradient id="at" cx="281" cy="252" fx="281" fy="252" r="400.23" xlink:href="#d"/><radialGradient id="au" cx="281" cy="252" fx="281" fy="252" r="400.23" xlink:href="#d"/><radialGradient id="av" cx="281" cy="252" fx="281" fy="252" r="400.23" xlink:href="#d"/><radialGradient id="aw" cx="281" cy="252" fx="281" fy="252" r="400.23" xlink:href="#d"/><radialGradient id="ax" cx="281" cy="252" fx="281" fy="252" r="400.23" xlink:href="#d"/><radialGradient id="ay" cx="281" cy="252" fx="281" fy="252" r="400.23" xlink:href="#d"/><radialGradient id="az" cx="281" cy="252" fx="281" fy="252" r="400.23" xlink:href="#d"/><radialGradient id="ba" cx="281" cy="252" fx="281" fy="252" r="400.23" xlink:href="#d"/><radialGradient id="bb" cx="281" cy="252" fx="281" fy="252" r="400.23" xlink:href="#d"/><radialGradient id="bc" cx="281" cy="252" fx="281" fy="252" r="400.23" xlink:href="#d"/><radialGradient id="bd" cx="281" cy="252" fx="281" fy="252" r="400.23" xlink:href="#d"/><radialGradient id="be" cx="281" cy="252" fx="281" fy="252" r="400.23" xlink:href="#d"/><radialGradient id="bf" cx="281" cy="252" fx="281" fy="252" r="400.23" xlink:href="#d"/><radialGradient id="bg" cx="281" cy="252" fx="281" fy="252" r="400.23" xlink:href="#d"/><radialGradient id="bh" cx="281" cy="252" fx="281" fy="252" r="400.23" xlink:href="#d"/><radialGradient id="bi" cx="281" cy="252" fx="281" fy="252" r="400.23" xlink:href="#d"/><radialGradient id="bj" cx="281" cy="252" fx="281" fy="252" r="400.23" xlink:href="#d"/><radialGradient id="bk" cx="281" cy="252" fx="281" fy="252" r="400.23" xlink:href="#d"/><radialGradient id="bl" cx="281" cy="252" fx="281" fy="252" r="400.23" xlink:href="#d"/><radialGradient id="bm" cx="281" cy="252" fx="281" fy="252" r="400.23" xlink:href="#d"/><radialGradient id="bn" cx="281" cy="252" fx="281" fy="252" r="400.23" xlink:href="#d"/><radialGradient id="bo" cx="281" cy="252" fx="281" fy="252" r="400.23" xlink:href="#d"/><radialGradient id="bp" cx="281" cy="252" fx="281" fy="252" r="400.23" xlink:href="#d"/><radialGradient id="bq" cx="281" cy="252" fx="281" fy="252" r="400.23" xlink:href="#d"/><radialGradient id="br" cx="281" cy="252" fx="281" fy="252" r="400.23" xlink:href="#d"/><radialGradient id="bs" cx="281" cy="252" fx="281" fy="252" r="400.23" xlink:href="#d"/><radialGradient id="bt" cx="281" cy="252" fx="281" fy="252" r="400.23" xlink:href="#d"/><radialGradient id="bu" cx="281" cy="252" fx="281" fy="252" r="400.23" xlink:href="#d"/><radialGradient id="bv" cx="281" cy="252" fx="281" fy="252" r="400.23" xlink:href="#d"/><radialGradient id="bw" cx="281" cy="252" fx="281" fy="252" r="400.23" xlink:href="#d"/><radialGradient id="bx" cx="281" cy="252" fx="281" fy="252" r="400.23" xlink:href="#d"/><radialGradient id="by" cx="281" cy="252" fx="281" fy="252" r="400.23" xlink:href="#d"/><radialGradient id="bz" cx="281" cy="252" fx="281" fy="252" r="400.23" xlink:href="#d"/><radialGradient id="ca" cx="281" cy="252" fx="281" fy="252" r="400.23" xlink:href="#d"/><radialGradient id="cb" cx="281" cy="252" fx="281" fy="252" r="400.23" xlink:href="#d"/><radialGradient id="cc" cx="281" cy="252" fx="281" fy="252" r="400.23" xlink:href="#d"/><radialGradient id="cd" cx="281" cy="252" fx="281" fy="252" r="400.23" xlink:href="#d"/><radialGradient id="ce" cx="281" cy="252" fx="281" fy="252" r="400.23" xlink:href="#d"/><radialGradient id="cf" cx="281" cy="252" fx="281" fy="252" r="400.23" xlink:href="#d"/><radialGradient id="cg" cx="281" cy="252" fx="281" fy="252" r="400.23" xlink:href="#d"/><radialGradient id="ch" cx="281" cy="252" fx="281" fy="252" r="400.23" xlink:href="#d"/><radialGradient id="ci" cx="281" cy="252" fx="281" fy="252" r="400.23" xlink:href="#d"/><radialGradient id="cj" cx="281" cy="252" fx="281" fy="252" r="400.23" xlink:href="#d"/><radialGradient id="ck" cx="281" cy="252" fx="281" fy="252" r="400.23" xlink:href="#d"/><radialGradient id="cl" cx="281" cy="252" fx="281" fy="252" r="400.23" xlink:href="#d"/><radialGradient id="cm" cx="281" cy="252" fx="281" fy="252" r="400.23" xlink:href="#d"/><radialGradient id="cn" cx="281" cy="252" fx="281" fy="252" r="400.23" xlink:href="#d"/><radialGradient id="co" cx="281" cy="252" fx="281" fy="252" r="400.23" xlink:href="#d"/><radialGradient id="cp" cx="281" cy="252" fx="281" fy="252" r="400.23" xlink:href="#d"/><radialGradient id="cq" cx="281" cy="252" fx="281" fy="252" r="400.23" xlink:href="#d"/><radialGradient id="cr" cx="281" cy="252" fx="281" fy="252" r="400.23" xlink:href="#d"/><radialGradient id="cs" cx="281" cy="252" fx="281" fy="252" r="400.23" xlink:href="#d"/><radialGradient id="ct" cx="281" cy="252" fx="281" fy="252" r="400.23" xlink:href="#d"/><radialGradient id="cu" cx="281" cy="252" fx="281" fy="252" r="400.23" xlink:href="#d"/><radialGradient id="cv" cx="281" cy="252" fx="281" fy="252" r="400.23" xlink:href="#d"/><radialGradient id="cw" cx="281" cy="252" fx="281" fy="252" r="400.23" xlink:href="#d"/><radialGradient id="cx" cx="281" cy="252" fx="281" fy="252" r="400.23" xlink:href="#d"/><radialGradient id="cy" cx="281" cy="252" fx="281" fy="252" r="400.23" xlink:href="#d"/><radialGradient id="cz" cx="281" cy="252" fx="281" fy="252" r="400.23" xlink:href="#d"/><radialGradient id="da" cx="281" cy="252" fx="281" fy="252" r="400.23" xlink:href="#d"/><radialGradient id="db" cx="281" cy="252" fx="281" fy="252" r="400.23" xlink:href="#d"/><radialGradient id="dc" cx="281" cy="252" fx="281" fy="252" r="400.23" xlink:href="#d"/><radialGradient id="dd" cx="281" cy="252" fx="281" fy="252" r="400.23" xlink:href="#d"/><radialGradient id="de" cx="281" cy="252" fx="281" fy="252" r="400.23" xlink:href="#d"/><radialGradient id="df" cx="281" cy="252" fx="281" fy="252" r="400.23" xlink:href="#d"/><radialGradient id="dg" cx="281" cy="252" fx="281" fy="252" r="400.23" xlink:href="#d"/><radialGradient id="dh" cx="281" cy="252" fx="281" fy="252" r="400.23" xlink:href="#d"/><radialGradient id="di" cx="281" cy="252" fx="281" fy="252" r="400.23" xlink:href="#d"/><radialGradient id="dj" cx="281" cy="252" fx="281" fy="252" r="400.23" xlink:href="#d"/><radialGradient id="dk" cx="281" cy="252" fx="281" fy="252" r="400.23" xlink:href="#d"/><radialGradient id="dl" cy="252" fy="252" r="400.23" xlink:href="#d"/><radialGradient id="dm" cx="281" cy="252" fx="281" fy="252" r="400.23" xlink:href="#d"/><radialGradient id="dn" cx="281" cy="252" fx="281" fy="252" r="400.23" xlink:href="#d"/><radialGradient id="do" cx="281" cy="252" fx="281" fy="252" r="400.23" xlink:href="#d"/><radialGradient id="dp" cy="252" fy="252" r="400.23" xlink:href="#d"/><radialGradient id="dq" cx="281" cy="252" fx="281" fy="252" r="400.23" xlink:href="#d"/><radialGradient id="dr" cx="281" cy="252" fx="281" fy="252" r="400.23" xlink:href="#d"/><radialGradient id="ds" cx="281" cy="252" fx="281" fy="252" r="400.23" xlink:href="#d"/><radialGradient id="dt" cx="281" cy="252" fx="281" fy="252" r="400.23" xlink:href="#d"/><radialGradient id="du" cx="281" cy="252" fx="281" fy="252" r="400.23" xlink:href="#d"/><radialGradient id="dv" cx="281" cy="252" fx="281" fy="252" r="400.23" xlink:href="#d"/><radialGradient id="dw" cx="281" cy="252" fx="281" fy="252" r="400.23" xlink:href="#d"/><radialGradient id="dx" cx="281" cy="252" fx="281" fy="252" r="400.23" xlink:href="#d"/><radialGradient id="dy" cx="281" cy="252" fx="281" fy="252" r="400.23" xlink:href="#d"/><radialGradient id="dz" cx="281" cy="252" fx="281" fy="252" r="400.23" xlink:href="#d"/><radialGradient id="ea" cx="281" cy="252" fx="281" fy="252" r="400.23" xlink:href="#d"/><radialGradient id="eb" cy="252" fy="252" r="400.23" xlink:href="#d"/><radialGradient id="ec" cx="281" cy="252" fx="281" fy="252" r="400.23" xlink:href="#d"/><radialGradient id="ed" cx="281" cy="252" fx="281" fy="252" r="400.23" xlink:href="#d"/><radialGradient id="ee" cx="281" cy="252" fx="281" fy="252" r="400.23" xlink:href="#d"/><radialGradient id="ef" cx="281" cy="252" fx="281" fy="252" r="400.23" xlink:href="#d"/><radialGradient id="eg" cy="252" fy="252" r="400.23" xlink:href="#d"/><radialGradient id="eh" cx="281" cy="252" fx="281" fy="252" r="400.23" xlink:href="#d"/><radialGradient id="ei" cx="281" cy="252" fx="281" fy="252" r="400.23" xlink:href="#d"/><radialGradient id="ej" cx="281" cy="252" fx="281" fy="252" r="400.23" xlink:href="#d"/></defs><g isolation="isolate"><g id="b"><g id="c"><g><polygon points="566.52 498.66 561.18 504 572.15 504 573.83 502.33 720.79 355.37 722 354.15 722 343.18 717.12 348.06 566.52 498.66" fill="url(#d)"/><path d="M519.9,449.5l148.06-148.06,54.04-54.04V108.27l-18.04,18.04c-1.59,1.59-3.7,2.47-5.95,2.47s-4.36-.88-5.95-2.47c-1.59-1.59-2.47-3.7-2.47-5.95,0-2.25,.88-4.36,2.47-5.95l29.94-29.94v-22.7l-82.64,82.64c-3.37,3.37-7.85,5.22-12.61,5.22s-9.24-1.85-12.61-5.22c-6.86-6.87-6.95-17.98-.25-24.95,0-.05,0-.11,0-.17,0-1.07,.86-1.93,1.93-1.93,.05,0,.1,0,.15,0L722,11.32V0h-87.66l-35.67,35.67c.72,.28,1.23,.98,1.23,1.8,0,1.07-.86,1.93-1.93,1.93-.82,0-1.52-.51-1.8-1.23l-14.5,14.5c.25,.32,.39,.73,.39,1.17,0,1.07-.86,1.93-1.93,1.93-.44,0-.84-.15-1.17-.39l-14.74,14.74s0,.06,0,.09c0,1.07-.87,1.93-1.93,1.93-.03,0-.06,0-.09,0l-83.13,83.13c-6.46,6.46-15.05,10.02-24.19,10.02s-17.72-3.56-24.18-10.02c-13.33-13.34-13.33-35.03,0-48.37l55.91-55.91c-4.65-4.92-4.57-12.7,.24-17.52L520.34,0h-45.83l-51.71,51.71c-4.55,4.55-10.61,7.06-17.05,7.06s-12.49-2.51-17.04-7.06c-9.4-9.4-9.4-24.69,0-34.09L406.34,0H127.66c-6.93,11.74-19.71,19.64-34.3,19.64S65.99,11.74,59.06,0H0V47.38l7.77-7.77c1.4,0,2.8,.03,4.19,.08L0,51.65v10.97l22.21-22.21c1.28,.14,2.55,.29,3.81,.46L0,66.9v10.97L35.4,42.48c1.17,.24,2.34,.5,3.51,.77L0,82.15v10.97L47.56,45.56c1.09,.33,2.17,.67,3.25,1.03L0,97.4v10.97L58.85,49.52c1.01,.41,2.02,.82,3.03,1.25L0,112.65v10.97L69.38,54.25c.95,.47,1.89,.96,2.82,1.45L2.77,125.13l-2.77,2.77v10.97l13.53-13.53L79.21,59.67c.89,.54,1.77,1.08,2.64,1.64L17.23,125.92,0,143.15v10.97l25.83-25.83,62.56-62.56c.83,.6,1.65,1.2,2.47,1.81l-61.98,61.99L0,158.4v10.97l36.03-36.03,60.94-60.94c.77,.65,1.54,1.31,2.3,1.98l-60.68,60.68L0,173.65v10.97l44.57-44.58,60.37-60.37c.72,.71,1.43,1.42,2.13,2.14l-60.38,60.38L0,188.9v10.97l51.59-51.59,60.74-60.74c.66,.76,1.32,1.53,1.97,2.31l-61.02,61.02L0,204.15v10.97l57.01-57.01,62.13-62.13c.61,.82,1.21,1.64,1.8,2.48l-62.74,62.74L0,219.4v10.97l60.45-60.45L125.33,105.05c.55,.88,1.09,1.76,1.62,2.65L60.96,173.7,1.66,232.99l-1.66,1.66v10.97l12.65-12.65,48.29-48.29,69.94-69.94c.49,.94,.97,1.89,1.44,2.84L60.18,189.72l-42.5,42.5L0,249.9v10.97l35.95-35.95,16.93-16.93,82.87-82.87c.42,1.01,.84,2.02,1.24,3.04L0,265.15v10.97L139.88,136.25c.35,1.08,.69,2.17,1.01,3.27L0,280.4v10.97L143.16,148.22c.26,1.17,.51,2.35,.75,3.53L0,295.65v10.97L145.45,161.18c.16,1.27,.31,2.55,.44,3.84L0,310.9v71.91c.92,.15,1.63,.94,1.63,1.91s-.71,1.76-1.63,1.91v6.52l84.06-84.06c2.37-2.37,5.53-3.68,8.89-3.68s6.51,1.31,8.88,3.68c4.9,4.9,4.9,12.87,0,17.77L0,428.68v3.21c.92,.15,1.63,.94,1.63,1.91s-.71,1.76-1.63,1.91v12.55c.92,.15,1.63,.94,1.63,1.91s-.71,1.76-1.63,1.91v12.55c.92,.15,1.63,.94,1.63,1.91s-.71,1.76-1.63,1.91v35.56H16.03l63.54-63.54c.39-.39,1.03-.39,1.43,0,.39,.39,.39,1.03,0,1.43l-62.12,62.12H114.21l65.92-65.92c3.37-3.37,7.85-5.22,12.61-5.22s9.24,1.85,12.61,5.22c6.95,6.95,6.95,18.27,0,25.22l-40.7,40.7h168.84l64.55-64.55c.39-.39,1.03-.39,1.43,0,.39,.39,.39,1.03,0,1.43l-63.12,63.13h129.25l-.07-.11,54.39-54.39Zm95.91-344.65c-1.07,0-1.93-.87-1.93-1.93s.86-1.93,1.93-1.93,1.93,.86,1.93,1.93-.87,1.93-1.93,1.93Zm0-16.35c-1.07,0-1.93-.87-1.93-1.93s.86-1.93,1.93-1.93c1.07,0,1.93,.86,1.93,1.93s-.87,1.93-1.93,1.93Zm17.84,0c-1.07,0-1.93-.87-1.93-1.93s.87-1.93,1.93-1.93,1.93,.87,1.93,1.93-.87,1.93-1.93,1.93Zm53.51-52.96c1.07,0,1.93,.87,1.93,1.93s-.87,1.93-1.93,1.93-1.93-.87-1.93-1.93,.86-1.93,1.93-1.93Zm-17.84,0c1.07,0,1.93,.87,1.93,1.93s-.87,1.93-1.93,1.93-1.93-.87-1.93-1.93,.86-1.93,1.93-1.93Zm0,16.37c1.07,0,1.93,.86,1.93,1.93s-.87,1.93-1.93,1.93-1.93-.87-1.93-1.93,.86-1.93,1.93-1.93Zm-17.84-16.37c1.07,0,1.93,.87,1.93,1.93s-.87,1.93-1.93,1.93-1.93-.87-1.93-1.93,.87-1.93,1.93-1.93Zm0,16.37c1.07,0,1.93,.86,1.93,1.93s-.87,1.93-1.93,1.93-1.93-.87-1.93-1.93,.87-1.93,1.93-1.93Zm0,16.37c1.07,0,1.93,.86,1.93,1.93s-.87,1.93-1.93,1.93-1.93-.87-1.93-1.93,.87-1.93,1.93-1.93Zm-17.84,3.86c-1.07,0-1.93-.87-1.93-1.93s.87-1.93,1.93-1.93,1.93,.86,1.93,1.93-.87,1.93-1.93,1.93Zm0-36.6c1.07,0,1.93,.87,1.93,1.93s-.87,1.93-1.93,1.93-1.93-.87-1.93-1.93,.87-1.93,1.93-1.93Zm0,16.37c1.07,0,1.93,.86,1.93,1.93s-.87,1.93-1.93,1.93-1.93-.87-1.93-1.93,.87-1.93,1.93-1.93Zm-17.84,20.23c-1.07,0-1.93-.87-1.93-1.93s.86-1.93,1.93-1.93,1.93,.86,1.93,1.93-.87,1.93-1.93,1.93Zm0-36.6c1.07,0,1.93,.87,1.93,1.93s-.87,1.93-1.93,1.93-1.93-.87-1.93-1.93,.86-1.93,1.93-1.93Zm0,16.37c1.07,0,1.93,.86,1.93,1.93s-.87,1.93-1.93,1.93-1.93-.87-1.93-1.93,.86-1.93,1.93-1.93Zm-324.2,32.55l-118.2,118.2c-.2,.2-.45,.3-.71,.3s-.52-.1-.71-.3c-.39-.39-.39-1.03,0-1.43l118.2-118.2c.39-.39,1.03-.39,1.43,0,.39,.39,.39,1.03,0,1.43Zm-81.8,39.36l-31.95,31.95c-2.15,.91-4.37,1.7-6.64,2.36l40.95-40.95c-.66,2.27-1.45,4.49-2.36,6.64Zm4.76-23.51c0,1.21-.04,2.41-.11,3.61l-56.5,56.5c-1.19,.07-2.39,.11-3.61,.11-.26,0-.51,0-.77,0l60.98-60.98c0,.26,0,.51,0,.77Zm-118.48-15.27c.56-2.15,1.24-4.26,2.03-6.31l34.65-34.65c2.05-.79,4.15-1.47,6.31-2.03l-42.99,42.99Zm-1.92,17.17c-.02-.63-.03-1.26-.03-1.9,0-.8,.02-1.6,.05-2.39l57.77-57.77c.79-.03,1.59-.05,2.39-.05,.64,0,1.27,.01,1.9,.03l-62.09,62.09Zm1.91,13.34c-.3-1.15-.56-2.31-.8-3.48L166.11,41.23c1.17,.23,2.33,.5,3.48,.8L96.08,115.54Zm4.12,11.13c-.47-.97-.92-1.94-1.34-2.94L177.79,44.81c.99,.42,1.97,.87,2.94,1.34L100.2,126.67Zm5.77,9.48c-.61-.82-1.2-1.66-1.77-2.51L187.7,50.15c.85,.57,1.69,1.16,2.51,1.77l-84.24,84.24Zm7.19,8.06c-.74-.69-1.45-1.4-2.15-2.12L196.15,56.95c.73,.7,1.43,1.42,2.12,2.15l-85.11,85.11Zm8.56,6.69c-.86-.56-1.71-1.14-2.54-1.74l84.06-84.06c.6,.83,1.18,1.68,1.74,2.54l-83.25,83.25Zm10.03,5.22c-1.01-.41-2-.84-2.98-1.3l80.11-80.11c.46,.98,.89,1.97,1.3,2.98l-78.44,78.44Zm8.3,2.68l72.82-72.82c.28,1.16,.54,2.34,.75,3.53l-70.04,70.04c-1.19-.21-2.36-.47-3.53-.75ZM7.08,318.62c-1.26,0-2.52-.02-3.77-.05L146.54,175.34c.03,1.25,.05,2.51,.05,3.77,0,.15,0,.3,0,.45L7.53,318.62c-.15,0-.3,0-.45,0Zm11.93-.51l127.08-127.08c-.14,1.6-.3,3.18-.49,4.76L23.77,317.63c-1.58,.19-3.17,.35-4.76,.49Zm17.95-2.7l106.42-106.42c-.41,1.89-.87,3.77-1.36,5.63l-99.43,99.44c-1.86,.49-3.74,.94-5.63,1.36Zm22.02-6.77l77.64-77.64c-1.03,2.57-2.13,5.1-3.31,7.58l-66.75,66.75c-2.49,1.17-5.02,2.28-7.58,3.31Zm54.22-38.97c-4.77,5.58-9.97,10.78-15.55,15.55l15.55-15.55Zm588.59-58.64c.82,0,1.49,.67,1.49,1.49s-.67,1.49-1.49,1.49-1.49-.67-1.49-1.49c0-.82,.67-1.49,1.49-1.49Zm-1.49-12.29c0-.82,.67-1.49,1.49-1.49s1.49,.67,1.49,1.49-.67,1.49-1.49,1.49-1.49-.67-1.49-1.49Zm0-13.78c0-.82,.67-1.49,1.49-1.49s1.49,.67,1.49,1.49-.67,1.49-1.49,1.49-1.49-.67-1.49-1.49Zm1.49-15.27c.82,0,1.49,.67,1.49,1.49s-.67,1.49-1.49,1.49-1.49-.67-1.49-1.49,.67-1.49,1.49-1.49Zm0-13.78c.82,0,1.49,.67,1.49,1.49s-.67,1.49-1.49,1.49-1.49-.67-1.49-1.49,.67-1.49,1.49-1.49Zm0-13.78c.82,0,1.49,.67,1.49,1.49s-.67,1.49-1.49,1.49-1.49-.67-1.49-1.49,.67-1.49,1.49-1.49Zm-14.63-41.16c1.07,0,1.93,.87,1.93,1.93s-.87,1.93-1.93,1.93-1.93-.87-1.93-1.93,.86-1.93,1.93-1.93Zm0,16.37c1.07,0,1.93,.86,1.93,1.93s-.87,1.93-1.93,1.93-1.93-.87-1.93-1.93,.86-1.93,1.93-1.93Zm-17.84,0c1.07,0,1.93,.86,1.93,1.93s-.87,1.93-1.93,1.93-1.93-.87-1.93-1.93,.86-1.93,1.93-1.93Zm-102.48,106.49l-124.55,124.55c.63-2.11,1.29-4.2,1.99-6.27l116.29-116.29c2.07-.7,4.16-1.36,6.27-1.99Zm-24.51,9.26l-90.79,90.79c1.31-2.85,2.7-5.66,4.15-8.43l78.21-78.21c2.77-1.45,5.58-2.84,8.43-4.15Zm55.64-115.74c1.07,0,1.93,.86,1.93,1.93s-.86,1.93-1.93,1.93-1.93-.87-1.93-1.93,.87-1.93,1.93-1.93Zm-1.93-14.43c0-1.07,.87-1.93,1.93-1.93s1.93,.86,1.93,1.93-.86,1.93-1.93,1.93-1.93-.87-1.93-1.93Zm-117.72,178.94c6.71-7.93,14.07-15.29,22-22l-22,22Zm121.59-195.3c0,1.07-.86,1.93-1.93,1.93s-1.93-.87-1.93-1.93,.87-1.93,1.93-1.93,1.93,.86,1.93,1.93Zm-1.93-34.67c1.07,0,1.93,.86,1.93,1.93s-.86,1.93-1.93,1.93-1.93-.87-1.93-1.93,.86-1.93,1.93-1.93Zm0,16.37c1.07,0,1.93,.86,1.93,1.93s-.86,1.93-1.93,1.93-1.93-.87-1.93-1.93c0-1.07,.87-1.93,1.93-1.93Zm-17.84,0c1.07,0,1.93,.86,1.93,1.93s-.86,1.93-1.93,1.93-1.93-.87-1.93-1.93,.87-1.93,1.93-1.93Zm0,16.37c1.07,0,1.93,.86,1.93,1.93s-.86,1.93-1.93,1.93-1.93-.87-1.93-1.93c0-1.07,.87-1.93,1.93-1.93Zm-1.93,34.65c0-1.07,.87-1.93,1.93-1.93s1.93,.86,1.93,1.93-.86,1.93-1.93,1.93-1.93-.87-1.93-1.93Zm1.93-14.44c-1.07,0-1.93-.87-1.93-1.93s.87-1.93,1.93-1.93,1.93,.86,1.93,1.93-.86,1.93-1.93,1.93Zm-15.9-1.93c0,1.07-.87,1.93-1.93,1.93s-1.93-.87-1.93-1.93,.86-1.93,1.93-1.93,1.93,.86,1.93,1.93Zm-1.93,18.3c-1.07,0-1.93-.87-1.93-1.93s.86-1.93,1.93-1.93,1.93,.86,1.93,1.93-.87,1.93-1.93,1.93Zm0-36.58c1.07,0,1.93,.86,1.93,1.93s-.87,1.93-1.93,1.93-1.93-.87-1.93-1.93,.86-1.93,1.93-1.93Zm-17.84,16.35c1.07,0,1.93,.86,1.93,1.93,0,1.07-.86,1.93-1.93,1.93s-1.93-.87-1.93-1.93,.86-1.93,1.93-1.93Zm1.93,18.3c0,1.07-.86,1.93-1.93,1.93s-1.93-.87-1.93-1.93,.86-1.93,1.93-1.93,1.93,.86,1.93,1.93Zm-19.77-1.93c1.07,0,1.93,.86,1.93,1.93s-.87,1.93-1.93,1.93-1.93-.87-1.93-1.93,.87-1.93,1.93-1.93Zm-72.38,94.93l80.3-80.3c1.59-1.59,3.7-2.47,5.95-2.47s4.36,.88,5.95,2.47c3.28,3.28,3.28,8.62,0,11.91l-80.3,80.3c-1.59,1.59-3.7,2.47-5.95,2.47s-4.36-.88-5.95-2.47c-1.59-1.59-2.47-3.7-2.47-5.95,0-2.25,.88-4.36,2.47-5.95Zm-206.21,248.25c0,.82-.67,1.49-1.49,1.49s-1.49-.67-1.49-1.49,.67-1.49,1.49-1.49,1.49,.67,1.49,1.49Zm68.41-264.21c0,1.09-.88,1.98-1.98,1.98-1.09,0-1.98-.88-1.98-1.98s.88-1.98,1.98-1.98c1.09,0,1.98,.88,1.98,1.98Zm-20.69,0c0-1.09,.88-1.98,1.98-1.98s1.98,.88,1.98,1.98-.88,1.98-1.98,1.98c-1.09,0-1.98-.88-1.98-1.98Zm-16.74,0c0-1.09,.88-1.98,1.98-1.98,1.09,0,1.98,.88,1.98,1.98s-.88,1.98-1.98,1.98c-1.09,0-1.98-.88-1.98-1.98Zm16.74-18.24c0-1.09,.88-1.98,1.98-1.98,1.09,0,1.98,.88,1.98,1.98s-.88,1.98-1.98,1.98-1.98-.88-1.98-1.98Zm-33.47,18.24c0-1.09,.88-1.98,1.98-1.98,1.09,0,1.98,.88,1.98,1.98s-.88,1.98-1.98,1.98c-1.09,0-1.98-.88-1.98-1.98Zm20.69-18.24c0,1.09-.88,1.98-1.98,1.98s-1.98-.88-1.98-1.98,.88-1.98,1.98-1.98,1.98,.88,1.98,1.98Zm-37.43,18.24c0-1.09,.88-1.98,1.98-1.98,1.09,0,1.98,.88,1.98,1.98s-.89,1.98-1.98,1.98-1.98-.88-1.98-1.98Zm20.69-18.24c0,1.09-.88,1.98-1.98,1.98s-1.98-.88-1.98-1.98,.88-1.98,1.98-1.98,1.98,.88,1.98,1.98Zm16.74-18.24c0,1.09-.88,1.98-1.98,1.98-1.09,0-1.98-.88-1.98-1.98s.88-1.98,1.98-1.98,1.98,.88,1.98,1.98ZM17.53,468.47c-1.07,0-1.93-.86-1.93-1.93s.86-1.93,1.93-1.93,1.93,.87,1.93,1.93-.86,1.93-1.93,1.93Zm0-16.37c-1.07,0-1.93-.86-1.93-1.93s.86-1.93,1.93-1.93,1.93,.87,1.93,1.93-.86,1.93-1.93,1.93Zm0-16.37c-1.07,0-1.93-.86-1.93-1.93s.86-1.93,1.93-1.93,1.93,.87,1.93,1.93-.86,1.93-1.93,1.93Zm0-16.37c-1.07,0-1.93-.86-1.93-1.93s.86-1.93,1.93-1.93,1.93,.87,1.93,1.93-.86,1.93-1.93,1.93Zm17.84,49.1c-1.07,0-1.93-.86-1.93-1.93s.87-1.93,1.93-1.93,1.93,.87,1.93,1.93-.87,1.93-1.93,1.93Zm0-16.37c-1.07,0-1.93-.86-1.93-1.93s.87-1.93,1.93-1.93,1.93,.87,1.93,1.93-.87,1.93-1.93,1.93Zm0-16.37c-1.07,0-1.93-.86-1.93-1.93s.87-1.93,1.93-1.93,1.93,.87,1.93,1.93-.87,1.93-1.93,1.93Zm0-16.37c-1.07,0-1.93-.86-1.93-1.93s.87-1.93,1.93-1.93,1.93,.87,1.93,1.93-.87,1.93-1.93,1.93Zm0-16.35c-1.07,0-1.93-.86-1.93-1.93s.87-1.93,1.93-1.93,1.93,.87,1.93,1.93-.87,1.93-1.93,1.93Zm94.56,7.52l-17.05,17.05c-3.37,3.37-7.85,5.22-12.61,5.22s-9.24-1.85-12.61-5.22c-6.95-6.95-6.95-18.27,0-25.22l17.05-17.05c3.37-3.37,7.85-5.22,12.61-5.22s9.24,1.85,12.61,5.22c6.95,6.95,6.95,18.27,0,25.22Zm131.9,50c0,.82-.67,1.49-1.49,1.49s-1.49-.67-1.49-1.49,.67-1.49,1.49-1.49,1.49,.67,1.49,1.49Zm-13.78,12.64c0,.82-.67,1.49-1.49,1.49s-1.49-.67-1.49-1.49,.67-1.49,1.49-1.49,1.49,.67,1.49,1.49Zm27.56-12.64c0,.82-.67,1.49-1.49,1.49s-1.49-.67-1.49-1.49,.67-1.49,1.49-1.49,1.49,.67,1.49,1.49Zm-13.78,12.64c0,.82-.67,1.49-1.49,1.49s-1.49-.67-1.49-1.49,.67-1.49,1.49-1.49,1.49,.67,1.49,1.49Zm27.56-12.64c0,.82-.67,1.49-1.49,1.49s-1.49-.67-1.49-1.49,.67-1.49,1.49-1.49,1.49,.67,1.49,1.49Zm-13.78,12.64c0,.82-.67,1.49-1.49,1.49s-1.49-.67-1.49-1.49,.67-1.49,1.49-1.49,1.49,.67,1.49,1.49Zm26.07-14.14c.82,0,1.49,.67,1.49,1.49s-.67,1.49-1.49,1.49-1.49-.67-1.49-1.49,.67-1.49,1.49-1.49Zm-15.27,14.14c0-.82,.67-1.49,1.49-1.49s1.49,.67,1.49,1.49-.67,1.49-1.49,1.49-1.49-.67-1.49-1.49Zm30.54-12.64c0,.82-.67,1.49-1.49,1.49s-1.49-.67-1.49-1.49,.67-1.49,1.49-1.49,1.49,.67,1.49,1.49Zm-16.76,12.64c0-.82,.67-1.49,1.49-1.49s1.49,.67,1.49,1.49-.67,1.49-1.49,1.49-1.49-.67-1.49-1.49Zm72.31-60.64c-8.96,0-16.26-7.29-16.26-16.26s7.29-16.26,16.26-16.26,16.26,7.29,16.26,16.26-7.29,16.26-16.26,16.26Zm-57.04,62.13c-.82,0-1.49-.67-1.49-1.49s.67-1.49,1.49-1.49,1.49,.67,1.49,1.49-.67,1.49-1.49,1.49Zm123.12-111.58l142.98-142.98c1.76-.37,3.53-.72,5.32-1.04l-149.33,149.33c.32-1.78,.67-3.55,1.04-5.32Zm-2.88,18.13l163.99-163.99c1.57-.17,3.15-.32,4.73-.45l-169.16,169.17c.13-1.58,.28-3.16,.45-4.73Zm-1.09,20.19c0-1.3,.02-2.6,.04-3.89l181.33-181.33c1.29-.03,2.59-.04,3.89-.04,.14,0,.29,0,.43,0l-185.69,185.69c0-.14,0-.29,0-.43Zm.33,11.08l196.01-196.01c1.34,.08,2.67,.17,4,.28l-199.73,199.73c-.11-1.33-.2-2.66-.28-4Zm1.34,13.91l208.57-208.57c1.25,.17,2.49,.35,3.74,.54l-91.87,91.87-28.02,28.02-91.87,91.87c-.19-1.24-.37-2.49-.54-3.74Zm2.23,13.02l77.82-77.82,63.72-63.72,77.82-77.82c1.17,.24,2.34,.5,3.51,.77l-74.76,74.76-72.58,72.58-74.76,74.76c-.27-1.17-.52-2.34-.77-3.51Zm3,12.25l69.05-69.05,90.52-90.52,69.05-69.05c1.11,.31,2.21,.63,3.31,.97l-67.34,67.34-96.28,96.28-67.34,67.34c-.33-1.1-.65-2.2-.97-3.31Zm3.67,11.58l63.81-63.81,108.91-108.91,63.81-63.81c1.05,.37,2.09,.75,3.13,1.14l-62.67,62.67-113.17,113.17-62.67,62.67c-.39-1.04-.77-2.08-1.14-3.13Zm4.28,10.97l60.21-60.21,122.78-122.78,60.21-60.21c1,.43,1.99,.86,2.97,1.3l-59.4,59.4-126.07,126.07-59.4,59.4c-.44-.99-.88-1.98-1.3-2.97Zm4.84,10.41l57.63-57.63,133.52-133.52,57.63-57.63c.95,.48,1.89,.96,2.83,1.45l-57.04,57.04-136.07,136.07-57.04,57.04c-.49-.94-.97-1.88-1.45-2.83Zm5.36,9.89l55.75-55.75,141.8-141.8,55.75-55.75c.9,.52,1.8,1.05,2.68,1.59l-55.32,55.32-143.75,143.75-55.32,55.32c-.54-.89-1.07-1.79-1.59-2.68Z" fill="url(#e)"/><polygon points="557.09 492.84 545.93 504 556.9 504 563.79 497.11 715.57 345.34 722 338.9 722 327.93 711.3 338.63 557.09 492.84" fill="url(#f)"/><path d="M692.11,120.36c0,1.58,.61,3.06,1.73,4.17,1.11,1.11,2.59,1.73,4.17,1.73s3.06-.61,4.17-1.73l19.82-19.82v-16.68l-28.16,28.16c-1.11,1.11-1.73,2.59-1.73,4.17Z" fill="url(#g)"/><polygon points="695.17 319.99 722 293.15 722 282.18 689.28 314.9 533.36 470.82 500.18 504 511.15 504 538.45 476.71 695.17 319.99" fill="url(#h)"/><path d="M460.2,224.14c1.58,0,3.06-.61,4.17-1.73l80.3-80.3c2.3-2.3,2.3-6.04,0-8.34-1.11-1.11-2.59-1.73-4.17-1.73s-3.06,.61-4.17,1.73l-80.3,80.3c-1.11,1.11-1.73,2.59-1.73,4.17s.61,3.06,1.73,4.17,2.59,1.73,4.17,1.73Z" fill="url(#i)"/><polygon points="702.72 327.69 722 308.4 722 297.43 697.36 322.07 540.53 478.9 515.43 504 526.4 504 546.14 484.26 702.72 327.69" fill="url(#j)"/><path d="M669.32,68.27c1.07,0,1.93,.86,1.93,1.93s-.87,1.93-1.93,1.93-1.93-.87-1.93-1.93c0-.34,.09-.67,.25-.95l-15.5,15.5c.74,.27,1.28,.98,1.28,1.82,0,1.07-.87,1.93-1.93,1.93-.84,0-1.55-.53-1.82-1.28l-14.5,14.5c.26,.33,.41,.74,.41,1.19,0,1.07-.87,1.93-1.93,1.93-.45,0-.86-.16-1.19-.41l-14.72,14.72s0,.09,0,.13c0,1.07-.87,1.93-1.93,1.93-.04,0-.08,0-.12,0-5.73,5.99-5.66,15.52,.23,21.41,2.89,2.89,6.74,4.48,10.83,4.48s7.94-1.59,10.83-4.49l84.42-84.42V14.89l-53.63,53.63c.28-.16,.6-.25,.95-.25Zm-35.67,52.95c-1.07,0-1.93-.87-1.93-1.93s.87-1.93,1.93-1.93,1.93,.86,1.93,1.93-.87,1.93-1.93,1.93Zm17.84,0c-1.07,0-1.93-.87-1.93-1.93s.87-1.93,1.93-1.93,1.93,.86,1.93,1.93-.86,1.93-1.93,1.93Zm0-16.37c-1.07,0-1.93-.87-1.93-1.93s.87-1.93,1.93-1.93,1.93,.87,1.93,1.93-.87,1.93-1.93,1.93Zm17.84,0c-1.07,0-1.93-.87-1.93-1.93s.86-1.93,1.93-1.93,1.93,.87,1.93,1.93-.87,1.93-1.93,1.93Zm0-16.35c-1.07,0-1.93-.87-1.93-1.93s.86-1.93,1.93-1.93,1.93,.87,1.93,1.93-.87,1.93-1.93,1.93Zm17.84-36.6c1.07,0,1.93,.86,1.93,1.93s-.87,1.93-1.93,1.93-1.93-.87-1.93-1.93,.86-1.93,1.93-1.93Zm0,16.37c1.07,0,1.93,.86,1.93,1.93s-.87,1.93-1.93,1.93-1.93-.87-1.93-1.93,.86-1.93,1.93-1.93Zm0,16.37c1.07,0,1.93,.87,1.93,1.93s-.87,1.93-1.93,1.93-1.93-.87-1.93-1.93,.86-1.93,1.93-1.93Z" fill="url(#k)"/><polygon points="677.82 306.83 722 262.65 722 251.68 670.81 302.87 521.33 452.35 469.68 504 480.65 504 525.29 459.36 677.82 306.83" fill="url(#l)"/><circle cx="372.48" cy="396.28" r="14.24" fill="url(#m)"/><path d="M203.56,439.87c-2.89-2.89-6.74-4.48-10.83-4.48s-7.94,1.59-10.83,4.49l-64.13,64.13h43.31l42.48-42.48c5.97-5.97,5.97-15.69,0-21.66Z" fill="url(#n)"/><path d="M100.04,310.87c-1.9-1.9-4.42-2.94-7.1-2.94s-5.21,1.04-7.1,2.94L0,396.71v2.47c.92,.15,1.63,.94,1.63,1.91s-.71,1.76-1.63,1.91v12.54c.92,.15,1.63,.94,1.63,1.91s-.71,1.76-1.63,1.91v5.78l100.04-100.04c3.92-3.92,3.92-10.29,0-14.21ZM15.6,384.72c0-1.07,.86-1.93,1.93-1.93s1.93,.87,1.93,1.93-.86,1.93-1.93,1.93-1.93-.86-1.93-1.93Zm1.93,18.3c-1.07,0-1.93-.86-1.93-1.93s.86-1.93,1.93-1.93,1.93,.87,1.93,1.93-.86,1.93-1.93,1.93Zm17.84-16.37c-1.07,0-1.93-.86-1.93-1.93s.87-1.93,1.93-1.93,1.93,.87,1.93,1.93-.87,1.93-1.93,1.93Z" fill="url(#o)"/><polygon points="694.15 504 722 476.15 722 465.18 683.18 504 694.15 504" fill="url(#p)"/><path d="M390.49,49.93c4.08,4.08,9.49,6.32,15.26,6.32s11.19-2.25,15.26-6.32L470.94,0h-61.04l-19.41,19.41c-8.41,8.41-8.41,22.11,0,30.52Z" fill="url(#q)"/><path d="M495.76,54.91c-2.62,0-5.12-.8-7.22-2.28l-56.04,56.04c-12.35,12.35-12.35,32.45,0,44.8,5.98,5.98,13.94,9.28,22.4,9.28s16.42-3.3,22.4-9.28l48.72-48.72c-.77-.25-1.33-.98-1.33-1.83,0-1.07,.87-1.93,1.93-1.93,.86,0,1.58,.56,1.84,1.33l14.51-14.51c-.28-.33-.45-.76-.45-1.23,0-1.07,.86-1.93,1.93-1.93,.47,0,.9,.17,1.23,.45l14.68-14.68c0-.07-.01-.13-.01-.2,0-1.07,.86-1.93,1.93-1.93,.07,0,.13,0,.2,.01L630.78,0h-45.06l-48.47,48.47c-.2,.2-.45,.3-.71,.3s-.52-.1-.71-.3c-.39-.39-.39-1.03,0-1.43l7.83-7.83c-.66-.31-1.12-.97-1.12-1.75,0-1.07,.86-1.93,1.93-1.93,.78,0,1.44,.46,1.75,1.12L582.87,0h-26.99l-51.23,51.23c-2.37,2.37-5.53,3.68-8.89,3.68Zm84.38-19.38c1.07,0,1.93,.87,1.93,1.93s-.86,1.93-1.93,1.93-1.93-.87-1.93-1.93,.87-1.93,1.93-1.93Zm-17.84,0c1.07,0,1.93,.86,1.93,1.93s-.86,1.93-1.93,1.93-1.93-.87-1.93-1.93,.86-1.93,1.93-1.93Zm0,16.37c1.07,0,1.93,.86,1.93,1.93s-.86,1.93-1.93,1.93-1.93-.87-1.93-1.93,.86-1.93,1.93-1.93Zm-17.84,0c1.07,0,1.93,.86,1.93,1.93s-.86,1.93-1.93,1.93-1.93-.87-1.93-1.93,.86-1.93,1.93-1.93Zm0,16.37c1.07,0,1.93,.86,1.93,1.93s-.86,1.93-1.93,1.93-1.93-.87-1.93-1.93,.86-1.93,1.93-1.93Zm-17.84-32.73c1.07,0,1.93,.86,1.93,1.93s-.87,1.93-1.93,1.93-1.93-.87-1.93-1.93,.87-1.93,1.93-1.93Zm0,16.37c1.07,0,1.93,.86,1.93,1.93s-.87,1.93-1.93,1.93-1.93-.87-1.93-1.93,.87-1.93,1.93-1.93Zm0,16.37c1.07,0,1.93,.86,1.93,1.93s-.87,1.93-1.93,1.93-1.93-.87-1.93-1.93,.87-1.93,1.93-1.93Zm0,16.37c1.07,0,1.93,.86,1.93,1.93s-.87,1.93-1.93,1.93-1.93-.87-1.93-1.93,.87-1.93,1.93-1.93Z" fill="url(#r)"/><path d="M495.76,52.39c2.68,0,5.21-1.05,7.1-2.94L552.31,0h-11.14l-50.81,50.81c1.6,1.02,3.46,1.58,5.4,1.58Z" fill="url(#s)"/><polygon points="686.87 313.03 722 277.9 722 266.93 680.44 308.49 526.95 461.98 484.93 504 495.9 504 531.49 468.42 686.87 313.03" fill="url(#t)"/><path d="M488.42,49.19L537.61,0h-13.71l-35.24,35.24c-3.83,3.83-3.91,10.02-.24,13.95Z" fill="url(#u)"/><path d="M117.32,382.61c-4.09,0-7.94,1.59-10.83,4.49l-17.05,17.05c-5.97,5.97-5.97,15.68,0,21.65,2.89,2.89,6.74,4.48,10.83,4.48s7.94-1.59,10.83-4.49l17.05-17.05c5.97-5.97,5.97-15.69,0-21.66-2.89-2.89-6.74-4.48-10.83-4.48Z" fill="url(#v)"/><path d="M93.36,17.62c13.43,0,25.24-7.04,31.94-17.62H61.42c6.7,10.58,18.51,17.62,31.94,17.62Z" fill="url(#w)"/><polygon points="633.15 504 722 415.15 722 404.18 622.18 504 633.15 504" fill="url(#x)"/><polygon points="554.58 491.07 709.53 336.13 722 323.65 722 312.68 704.7 329.98 548.43 486.25 530.68 504 541.65 504 554.58 491.07" fill="url(#y)"/><polygon points="673.36 498.57 667.93 504 678.9 504 722 460.9 722 449.93 717.03 454.9 673.36 498.57" fill="url(#z)"/><polygon points="617.9 504 722 399.9 722 388.93 606.93 504 617.9 504" fill="url(#aa)"/><polygon points="648.4 504 722 430.4 722 419.43 637.43 504 648.4 504" fill="url(#ab)"/><polygon points="663.65 504 664.86 502.79 721.25 446.4 722 445.65 722 434.68 652.68 504 663.65 504" fill="url(#ac)"/><polygon points="602.65 504 722 384.65 722 373.68 591.68 504 602.65 504" fill="url(#ad)"/><polygon points="722 504 722 495.68 713.68 504 722 504" fill="url(#ae)"/><polygon points="709.4 504 722 491.4 722 480.43 698.43 504 709.4 504" fill="url(#af)"/><polygon points="576.43 504 587.4 504 722 369.4 722 358.43 576.8 503.63 576.43 504" fill="url(#ag)"/><path d="M7.77,39.6L0,47.38v4.28l11.97-11.97c-1.39-.05-2.79-.08-4.19-.08Z" fill="#fff"/><path d="M22.21,40.41L0,62.63v4.28l26.03-26.03c-1.27-.17-2.54-.33-3.81-.46Z" fill="#fff"/><path d="M35.4,42.48L0,77.88v4.28L38.91,43.25c-1.16-.27-2.33-.53-3.51-.77Z" fill="#fff"/><path d="M47.56,45.56L0,93.13v4.28L50.81,46.59c-1.08-.36-2.16-.7-3.25-1.03Z" fill="#fff"/><path d="M58.85,49.52L0,108.38v4.28L61.88,50.77c-1-.43-2.01-.85-3.03-1.25Z" fill="#fff"/><path d="M72.2,55.7c-.94-.49-1.88-.98-2.82-1.45L0,123.63v1.8c.92-.12,1.84-.22,2.77-.29L72.2,55.7Z" fill="#fff"/><path d="M81.85,61.31c-.87-.56-1.75-1.1-2.64-1.64L13.53,125.35c1.25,.15,2.48,.34,3.71,.57L81.85,61.31Z" fill="#fff"/><path d="M90.86,67.55c-.81-.61-1.64-1.22-2.47-1.81l-62.56,62.56c1.03,.38,2.04,.79,3.04,1.23l61.98-61.99Z" fill="#fff"/><path d="M99.26,74.39c-.76-.67-1.52-1.33-2.3-1.98l-60.94,60.94c.87,.55,1.72,1.12,2.55,1.72l60.68-60.68Z" fill="#fff"/><path d="M46.7,142.21l60.38-60.38c-.7-.72-1.41-1.44-2.13-2.14l-60.37,60.37c.73,.7,1.43,1.42,2.12,2.16Z" fill="#fff"/><path d="M114.3,89.85c-.65-.78-1.3-1.55-1.97-2.31l-60.74,60.74c.59,.85,1.15,1.71,1.69,2.59l61.02-61.02Z" fill="#fff"/><path d="M120.93,98.47c-.59-.83-1.19-1.66-1.8-2.48l-62.13,62.13c.43,1.01,.82,2.05,1.19,3.09l62.74-62.74Z" fill="#fff"/><path d="M0,232.8v1.85l1.66-1.66c-.56-.06-1.11-.12-1.66-.19Z" fill="#fff"/><path d="M126.95,107.7c-.53-.89-1.07-1.78-1.62-2.65L60.45,169.93c.21,1.24,.38,2.5,.51,3.77L126.95,107.7Z" fill="#fff"/><path d="M12.65,232.98L0,245.62v4.28l17.68-17.68c-1.65,.33-3.33,.58-5.03,.76Z" fill="#fff"/><path d="M132.32,117.58c-.47-.95-.95-1.9-1.44-2.84L60.94,184.68c-.17,1.7-.43,3.38-.76,5.03l72.14-72.14Z" fill="#fff"/><path d="M136.99,128.16c-.4-1.02-.81-2.03-1.24-3.04L52.89,207.99c-4.31,6.83-10.11,12.62-16.93,16.93L0,260.87v4.28L136.99,128.16Z" fill="#fff"/><path d="M140.89,139.51c-.32-1.09-.66-2.18-1.01-3.27L0,276.12v4.28L140.89,139.51Z" fill="#fff"/><path d="M143.9,151.75c-.23-1.18-.48-2.36-.75-3.53L0,291.37v4.28L143.9,151.75Z" fill="#fff"/><path d="M145.45,161.18L0,306.62v4.28L145.89,165.02c-.13-1.28-.28-2.56-.44-3.84Z" fill="#fff"/><path d="M146.59,179.11c0-1.26-.02-2.52-.05-3.77L3.3,318.57c1.25,.03,2.51,.05,3.77,.05,.15,0,.3,0,.45,0L146.59,179.56c0-.15,0-.3,0-.45Z" fill="#fff"/><path d="M146.08,191.04L19.01,318.12c1.6-.14,3.18-.3,4.76-.49l121.83-121.83c.19-1.58,.35-3.17,.49-4.76Z" fill="#fff"/><path d="M143.38,208.99l-106.42,106.42c1.89-.41,3.77-.87,5.63-1.36l99.43-99.44c.49-1.86,.94-3.74,1.36-5.63Z" fill="#fff"/><path d="M136.61,231.01l-77.64,77.64c2.57-1.03,5.1-2.13,7.58-3.31l66.75-66.75c1.17-2.49,2.28-5.02,3.31-7.58Z" fill="#fff"/><path d="M113.2,269.68l-15.55,15.55c5.58-4.77,10.78-9.97,15.55-15.55Z" fill="#fff"/><path d="M0,125.42v2.48l2.77-2.77c-.93,.07-1.85,.17-2.77,.29Z" fill="#fff"/><path d="M13.53,125.35L0,138.88v4.28l17.23-17.23c-1.22-.23-2.46-.42-3.71-.57Z" fill="#fff"/><path d="M25.83,128.3L0,154.13v4.28l28.87-28.87c-1-.44-2.01-.85-3.04-1.23Z" fill="#fff"/><path d="M36.03,133.35L0,169.38v4.28l38.58-38.58c-.83-.6-1.69-1.17-2.55-1.72Z" fill="#fff"/><path d="M44.57,140.05L0,184.63v4.28l46.7-46.7c-.69-.74-1.39-1.46-2.12-2.16Z" fill="#fff"/><path d="M51.59,148.28L0,199.88v4.28l53.28-53.28c-.54-.88-1.1-1.74-1.69-2.59Z" fill="#fff"/><path d="M57.01,158.12L0,215.13v4.28l58.19-58.19c-.37-1.04-.76-2.08-1.19-3.09Z" fill="#fff"/><path d="M60.96,173.7c-.13-1.27-.3-2.52-.51-3.77L0,230.37v2.42c.55,.07,1.11,.14,1.66,.19l59.29-59.29Z" fill="#fff"/><path d="M60.18,189.72c.33-1.65,.58-3.33,.76-5.03L12.65,232.98c1.7-.17,3.38-.43,5.03-.76l42.5-42.5Z" fill="#fff"/><path d="M52.89,207.99l-16.93,16.93c6.83-4.31,12.62-10.11,16.93-16.93Z" fill="#fff"/><path d="M132.78,44.07l-34.65,34.65c-.79,2.05-1.47,4.15-2.03,6.31l42.99-42.99c-2.15,.56-4.26,1.24-6.31,2.03Z" fill="#fff"/><path d="M154.36,40.08c-.8,0-1.6,.02-2.39,.05l-57.77,57.77c-.03,.79-.05,1.59-.05,2.39,0,.64,.01,1.27,.03,1.9l62.09-62.09c-.63-.02-1.26-.03-1.9-.03Z" fill="#fff"/><path d="M166.11,41.23L95.29,112.06c.23,1.17,.5,2.33,.8,3.48L169.59,42.03c-1.15-.3-2.31-.56-3.48-.8Z" fill="#fff"/><path d="M177.79,44.81L98.87,123.73c.42,.99,.87,1.97,1.34,2.94L180.72,46.15c-.97-.47-1.94-.92-2.94-1.34Z" fill="#fff"/><path d="M187.7,50.15l-83.49,83.49c.57,.85,1.16,1.69,1.77,2.51L190.21,51.92c-.82-.61-1.66-1.2-2.51-1.77Z" fill="#fff"/><path d="M196.15,56.95l-85.14,85.14c.7,.73,1.42,1.43,2.15,2.12L198.27,59.1c-.69-.74-1.4-1.45-2.12-2.15Z" fill="#fff"/><path d="M203.23,65.12l-84.06,84.06c.83,.6,1.68,1.18,2.54,1.74l83.25-83.25c-.56-.86-1.14-1.71-1.74-2.54Z" fill="#fff"/><path d="M208.88,74.72l-80.11,80.11c.98,.46,1.97,.89,2.98,1.3l78.44-78.44c-.41-1.01-.84-2-1.3-2.98Z" fill="#fff"/><path d="M213.61,89.51c-.21-1.19-.47-2.36-.75-3.53l-72.82,72.82c1.16,.28,2.34,.54,3.53,.75l70.04-70.04Z" fill="#fff"/><path d="M154.36,160.52c1.21,0,2.41-.04,3.61-.11l56.5-56.5c.07-1.19,.11-2.39,.11-3.61,0-.26,0-.51,0-.77l-60.98,60.98c.26,0,.51,0,.77,0Z" fill="#fff"/><path d="M177.86,155.76l31.95-31.95c.91-2.15,1.7-4.37,2.36-6.64l-40.95,40.95c2.27-.66,4.49-1.45,6.64-2.36Z" fill="#fff"/><path d="M478.32,281.86l22-22c-7.93,6.71-15.29,14.07-22,22Z" fill="#fff"/><path d="M451.55,323.88l90.79-90.79c-2.85,1.31-5.66,2.7-8.43,4.15l-78.21,78.21c-1.45,2.77-2.84,5.58-4.15,8.43Z" fill="#fff"/><path d="M442.29,348.39l124.55-124.55c-2.11,.63-4.19,1.29-6.27,1.99l-116.29,116.29c-.7,2.07-1.36,4.16-1.99,6.27Z" fill="#fff"/><path d="M581.54,220.11l-142.98,142.98c-.37,1.76-.72,3.53-1.04,5.32l149.33-149.33c-1.78,.32-3.55,.67-5.32,1.04Z" fill="#fff"/><path d="M599.67,217.23l-163.99,163.99c-.17,1.57-.32,3.15-.45,4.73l169.16-169.17c-1.58,.13-3.16,.28-4.73,.45Z" fill="#fff"/><path d="M619.86,216.14c-1.3,0-2.6,.02-3.89,.04l-181.33,181.33c-.03,1.29-.04,2.59-.04,3.89,0,.14,0,.29,0,.43l185.69-185.69c-.14,0-.29,0-.43,0Z" fill="#fff"/><path d="M630.93,216.47l-196.01,196.01c.08,1.34,.17,2.67,.28,4l199.73-199.73c-1.33-.11-2.66-.2-4-.28Z" fill="#fff"/><path d="M556.7,310.23l91.87-91.87c-1.24-.19-2.49-.37-3.74-.54l-208.57,208.57c.17,1.25,.35,2.49,.54,3.74l91.87-91.87c7.59-10.93,17.09-20.43,28.02-28.02Z" fill="#fff"/><path d="M516.32,361.58l-77.82,77.82c.24,1.17,.5,2.34,.77,3.51l74.76-74.76c.7-2.22,1.46-4.41,2.29-6.57Z" fill="#fff"/><path d="M661.37,220.81c-1.17-.27-2.34-.52-3.51-.77l-77.82,77.82c2.16-.83,4.35-1.6,6.57-2.29l74.76-74.76Z" fill="#fff"/><path d="M510.54,382.61l-69.05,69.05c.31,1.11,.63,2.21,.97,3.31l67.34-67.34c.21-1.68,.46-3.36,.74-5.02Z" fill="#fff"/><path d="M673.43,224c-1.1-.33-2.2-.65-3.31-.97l-69.05,69.05c1.66-.28,3.33-.53,5.02-.74l67.34-67.34Z" fill="#fff"/><path d="M508.96,401.4c0-.66,0-1.32,.02-1.97l-63.81,63.81c.37,1.05,.75,2.09,1.14,3.13l62.67-62.67c-.02-.76-.03-1.53-.03-2.3Z" fill="#fff"/><path d="M622.16,290.52l62.67-62.67c-1.04-.39-2.08-.77-3.13-1.14l-63.81,63.81c.66-.01,1.31-.02,1.97-.02,.77,0,1.53,0,2.3,.03Z" fill="#fff"/><path d="M695.63,232.3c-.99-.44-1.98-.88-2.97-1.3l-60.21,60.21c1.27,.14,2.53,.31,3.78,.49l59.4-59.4Z" fill="#fff"/><path d="M509.66,413.99l-60.21,60.21c.43,1,.86,1.99,1.3,2.97l59.4-59.4c-.19-1.25-.35-2.51-.49-3.78Z" fill="#fff"/><path d="M705.89,237.29c-.94-.49-1.88-.98-2.83-1.45l-57.63,57.63c1.14,.27,2.28,.56,3.41,.86l57.04-57.04Z" fill="#fff"/><path d="M511.92,426.98l-57.63,57.63c.48,.95,.96,1.89,1.45,2.83l57.04-57.04c-.31-1.13-.59-2.27-.86-3.41Z" fill="#fff"/><path d="M715.64,242.79c-.89-.54-1.79-1.07-2.68-1.59l-55.75,55.75c1.04,.37,2.08,.76,3.11,1.17l55.32-55.32Z" fill="#fff"/><path d="M515.4,438.75l-55.75,55.75c.52,.9,1.05,1.79,1.59,2.68l55.32-55.32c-.4-1.03-.79-2.07-1.17-3.11Z" fill="#fff"/><path d="M670.81,302.87l51.19-51.19v-4.28l-54.04,54.04c.96,.46,1.91,.94,2.85,1.43Z" fill="#fff"/><path d="M519.9,449.5l-54.39,54.39,.07,.11h4.1l51.65-51.65c-.49-.94-.97-1.89-1.43-2.85Z" fill="#fff"/><path d="M525.29,459.36l-44.64,44.64h4.28l42.02-42.02c-.56-.86-1.12-1.74-1.66-2.62Z" fill="#fff"/><path d="M680.44,308.49l41.56-41.56v-4.28l-44.18,44.18c.88,.54,1.75,1.09,2.62,1.66Z" fill="#fff"/><path d="M689.28,314.9l32.72-32.72v-4.28l-35.13,35.13c.81,.61,1.61,1.24,2.4,1.87Z" fill="#fff"/><path d="M531.49,468.42l-35.58,35.58h4.28l33.18-33.18c-.64-.79-1.26-1.59-1.87-2.4Z" fill="#fff"/><path d="M697.36,322.07l24.64-24.64v-4.28l-26.83,26.83c.74,.68,1.47,1.38,2.19,2.08Z" fill="#fff"/><path d="M538.45,476.71l-27.29,27.29h4.28l25.1-25.1c-.7-.72-1.4-1.45-2.08-2.19Z" fill="#fff"/><path d="M704.7,329.98l17.3-17.3v-4.28l-19.28,19.28c.67,.75,1.33,1.52,1.99,2.29Z" fill="#fff"/><path d="M546.14,484.26l-19.74,19.74h4.28l17.75-17.75c-.77-.65-1.54-1.31-2.29-1.99Z" fill="#fff"/><path d="M554.58,491.07l-12.93,12.93h4.28l11.16-11.16c-.84-.58-1.68-1.17-2.5-1.77Z" fill="#fff"/><path d="M711.3,338.63l10.7-10.7v-4.28l-12.47,12.47c.6,.83,1.19,1.66,1.77,2.5Z" fill="#fff"/><path d="M563.79,497.11l-6.89,6.89h4.28l5.34-5.34c-.92-.5-1.83-1.02-2.73-1.55Z" fill="#fff"/><path d="M717.12,348.06l4.88-4.88v-4.28l-6.43,6.43c.53,.9,1.05,1.81,1.55,2.73Z" fill="#fff"/><path d="M573.83,502.33l-1.67,1.67h4.28l.37-.37c-1-.42-1.99-.86-2.97-1.31Z" fill="#fff"/><path d="M722,358.12v-3.97l-1.21,1.21c.42,.91,.82,1.83,1.21,2.75Z" fill="#fff"/><path d="M664.86,502.79l-1.21,1.21h4.28l5.43-5.43c-2.76,1.53-5.6,2.94-8.5,4.23Z" fill="#fff"/><path d="M717.03,454.9l4.97-4.97v-4.28l-.75,.75c-1.29,2.9-2.7,5.74-4.23,8.5Z" fill="#fff"/><polygon points="683.18 504 722 465.18 722 460.9 678.9 504 683.18 504" fill="#fff"/><polygon points="698.43 504 722 480.43 722 476.15 694.15 504 698.43 504" fill="#fff"/><polygon points="713.68 504 722 495.68 722 491.4 709.4 504 713.68 504" fill="#fff"/><path d="M528.68,338.25l28.02-28.02c-10.93,7.59-20.43,17.09-28.02,28.02Z" fill="#fff"/><path d="M586.61,295.57c-2.22,.7-4.41,1.46-6.57,2.29l-63.72,63.72c-.83,2.16-1.6,4.35-2.29,6.57l72.58-72.58Z" fill="#fff"/><path d="M606.08,291.35c-1.68,.21-3.36,.46-5.02,.74l-90.52,90.52c-.28,1.66-.53,3.33-.74,5.02l96.28-96.28Z" fill="#fff"/><path d="M508.98,403.7l113.17-113.17c-.76-.02-1.53-.03-2.3-.03-.66,0-1.32,0-1.97,.02l-108.91,108.91c-.01,.66-.02,1.31-.02,1.97,0,.77,0,1.53,.03,2.3Z" fill="#fff"/><path d="M636.23,291.7c-1.25-.19-2.51-.35-3.78-.49l-122.78,122.78c.14,1.27,.31,2.53,.49,3.78l126.07-126.07Z" fill="#fff"/><path d="M648.85,294.33c-1.13-.31-2.27-.59-3.41-.86l-133.52,133.52c.27,1.14,.56,2.28,.86,3.41l136.07-136.07Z" fill="#fff"/><path d="M660.32,298.11c-1.03-.4-2.07-.79-3.11-1.17l-141.8,141.8c.37,1.04,.76,2.08,1.17,3.11l143.75-143.75Z" fill="#fff"/><path d="M519.9,449.5c.46,.96,.94,1.91,1.43,2.85l149.48-149.48c-.94-.49-1.89-.97-2.85-1.43l-148.06,148.06Z" fill="#fff"/><path d="M525.29,459.36c.54,.88,1.09,1.75,1.66,2.62l153.49-153.49c-.86-.56-1.74-1.12-2.62-1.66l-152.53,152.53Z" fill="#fff"/><path d="M531.49,468.42c.61,.81,1.24,1.61,1.87,2.4l155.91-155.91c-.79-.64-1.59-1.26-2.4-1.87l-155.39,155.39Z" fill="#fff"/><path d="M538.45,476.71c.68,.74,1.38,1.47,2.08,2.19l156.83-156.83c-.72-.7-1.45-1.4-2.19-2.08l-156.72,156.72Z" fill="#fff"/><path d="M546.14,484.26c.75,.67,1.52,1.33,2.29,1.99l156.27-156.27c-.65-.77-1.31-1.54-1.99-2.29l-156.57,156.58Z" fill="#fff"/><path d="M711.3,338.63c-.58-.84-1.17-1.68-1.77-2.5l-154.94,154.94c.83,.6,1.66,1.19,2.5,1.77l154.21-154.21Z" fill="#fff"/><path d="M717.12,348.06c-.5-.92-1.02-1.83-1.55-2.73l-151.77,151.77c.9,.53,1.81,1.05,2.73,1.55l150.59-150.59Z" fill="#fff"/><path d="M573.83,502.33c.98,.45,1.97,.89,2.97,1.31l145.2-145.2v-.31c-.39-.92-.8-1.84-1.21-2.75l-146.96,146.96Z" fill="#fff"/><polygon points="591.68 504 722 373.68 722 369.4 587.4 504 591.68 504" fill="#fff"/><polygon points="606.93 504 722 388.93 722 384.65 602.65 504 606.93 504" fill="#fff"/><polygon points="622.18 504 722 404.18 722 399.9 617.9 504 622.18 504" fill="#fff"/><polygon points="637.43 504 722 419.43 722 415.15 633.15 504 637.43 504" fill="#fff"/><polygon points="652.68 504 722 434.68 722 430.4 648.4 504 652.68 504" fill="#fff"/><path d="M717.03,454.9c1.53-2.76,2.94-5.6,4.23-8.5l-56.39,56.39c2.9-1.29,5.74-2.7,8.5-4.23l43.67-43.67Z" fill="#fff"/><path d="M35.37,415.5c-1.07,0-1.93,.87-1.93,1.93s.87,1.93,1.93,1.93,1.93-.86,1.93-1.93-.87-1.93-1.93-1.93Z" fill="url(#ah)"/><path d="M35.37,415.5c-1.07,0-1.93,.87-1.93,1.93s.87,1.93,1.93,1.93,1.93-.86,1.93-1.93-.87-1.93-1.93-1.93Z" fill="#fff" opacity=".7"/><path d="M17.53,415.5c-1.07,0-1.93,.87-1.93,1.93s.86,1.93,1.93,1.93,1.93-.86,1.93-1.93-.86-1.93-1.93-1.93Z" fill="url(#ai)"/><path d="M17.53,415.5c-1.07,0-1.93,.87-1.93,1.93s.86,1.93,1.93,1.93,1.93-.86,1.93-1.93-.86-1.93-1.93-1.93Z" fill="#fff" opacity=".7"/><path d="M1.63,417.44c0-.96-.71-1.76-1.63-1.91v3.81c.92-.15,1.63-.94,1.63-1.91Z" fill="url(#aj)"/><path d="M1.63,417.44c0-.96-.71-1.76-1.63-1.91v3.81c.92-.15,1.63-.94,1.63-1.91Z" fill="#fff" opacity=".7"/><path d="M35.37,431.87c-1.07,0-1.93,.87-1.93,1.93s.87,1.93,1.93,1.93,1.93-.86,1.93-1.93-.87-1.93-1.93-1.93Z" fill="url(#ak)"/><path d="M35.37,431.87c-1.07,0-1.93,.87-1.93,1.93s.87,1.93,1.93,1.93,1.93-.86,1.93-1.93-.87-1.93-1.93-1.93Z" fill="#fff" opacity=".7"/><path d="M17.53,431.87c-1.07,0-1.93,.87-1.93,1.93s.86,1.93,1.93,1.93,1.93-.86,1.93-1.93-.86-1.93-1.93-1.93Z" fill="url(#al)"/><path d="M17.53,431.87c-1.07,0-1.93,.87-1.93,1.93s.86,1.93,1.93,1.93,1.93-.86,1.93-1.93-.86-1.93-1.93-1.93Z" fill="#fff" opacity=".7"/><path d="M1.63,433.8c0-.96-.71-1.76-1.63-1.91v3.81c.92-.15,1.63-.94,1.63-1.91Z" fill="url(#am)"/><path d="M1.63,433.8c0-.96-.71-1.76-1.63-1.91v3.81c.92-.15,1.63-.94,1.63-1.91Z" fill="#fff" opacity=".7"/><path d="M35.37,448.24c-1.07,0-1.93,.87-1.93,1.93s.87,1.93,1.93,1.93,1.93-.86,1.93-1.93-.87-1.93-1.93-1.93Z" fill="url(#an)"/><path d="M35.37,448.24c-1.07,0-1.93,.87-1.93,1.93s.87,1.93,1.93,1.93,1.93-.86,1.93-1.93-.87-1.93-1.93-1.93Z" fill="#fff" opacity=".7"/><path d="M35.37,382.79c-1.07,0-1.93,.87-1.93,1.93s.87,1.93,1.93,1.93,1.93-.86,1.93-1.93-.87-1.93-1.93-1.93Z" fill="url(#ao)"/><path d="M35.37,382.79c-1.07,0-1.93,.87-1.93,1.93s.87,1.93,1.93,1.93,1.93-.86,1.93-1.93-.87-1.93-1.93-1.93Z" fill="#fff" opacity=".7"/><path d="M19.47,384.72c0-1.07-.86-1.93-1.93-1.93s-1.93,.87-1.93,1.93,.86,1.93,1.93,1.93,1.93-.86,1.93-1.93Z" fill="url(#ap)"/><path d="M19.47,384.72c0-1.07-.86-1.93-1.93-1.93s-1.93,.87-1.93,1.93,.86,1.93,1.93,1.93,1.93-.86,1.93-1.93Z" fill="#fff" opacity=".7"/><path d="M1.63,384.72c0-.96-.71-1.76-1.63-1.91v3.81c.92-.15,1.63-.94,1.63-1.91Z" fill="url(#aq)"/><path d="M1.63,384.72c0-.96-.71-1.76-1.63-1.91v3.81c.92-.15,1.63-.94,1.63-1.91Z" fill="#fff" opacity=".7"/><path d="M35.37,399.15c-1.07,0-1.93,.87-1.93,1.93s.87,1.93,1.93,1.93,1.93-.86,1.93-1.93-.87-1.93-1.93-1.93Z" fill="url(#ar)"/><path d="M35.37,399.15c-1.07,0-1.93,.87-1.93,1.93s.87,1.93,1.93,1.93,1.93-.86,1.93-1.93-.87-1.93-1.93-1.93Z" fill="#fff" opacity=".7"/><path d="M17.53,399.15c-1.07,0-1.93,.87-1.93,1.93s.86,1.93,1.93,1.93,1.93-.86,1.93-1.93-.86-1.93-1.93-1.93Z" fill="url(#as)"/><path d="M17.53,399.15c-1.07,0-1.93,.87-1.93,1.93s.86,1.93,1.93,1.93,1.93-.86,1.93-1.93-.86-1.93-1.93-1.93Z" fill="#fff" opacity=".7"/><path d="M1.63,401.08c0-.96-.71-1.76-1.63-1.91v3.81c.92-.15,1.63-.94,1.63-1.91Z" fill="url(#at)"/><path d="M1.63,401.08c0-.96-.71-1.76-1.63-1.91v3.81c.92-.15,1.63-.94,1.63-1.91Z" fill="#fff" opacity=".7"/><path d="M17.53,448.24c-1.07,0-1.93,.87-1.93,1.93s.86,1.93,1.93,1.93,1.93-.86,1.93-1.93-.86-1.93-1.93-1.93Z" fill="url(#au)"/><path d="M17.53,448.24c-1.07,0-1.93,.87-1.93,1.93s.86,1.93,1.93,1.93,1.93-.86,1.93-1.93-.86-1.93-1.93-1.93Z" fill="#fff" opacity=".7"/><path d="M1.63,450.17c0-.96-.71-1.76-1.63-1.91v3.81c.92-.15,1.63-.94,1.63-1.91Z" fill="url(#av)"/><path d="M1.63,450.17c0-.96-.71-1.76-1.63-1.91v3.81c.92-.15,1.63-.94,1.63-1.91Z" fill="#fff" opacity=".7"/><path d="M35.37,464.6c-1.07,0-1.93,.87-1.93,1.93s.87,1.93,1.93,1.93,1.93-.86,1.93-1.93-.87-1.93-1.93-1.93Z" fill="url(#aw)"/><path d="M35.37,464.6c-1.07,0-1.93,.87-1.93,1.93s.87,1.93,1.93,1.93,1.93-.86,1.93-1.93-.87-1.93-1.93-1.93Z" fill="#fff" opacity=".7"/><path d="M17.53,464.6c-1.07,0-1.93,.87-1.93,1.93s.86,1.93,1.93,1.93,1.93-.86,1.93-1.93-.86-1.93-1.93-1.93Z" fill="url(#ax)"/><path d="M17.53,464.6c-1.07,0-1.93,.87-1.93,1.93s.86,1.93,1.93,1.93,1.93-.86,1.93-1.93-.86-1.93-1.93-1.93Z" fill="#fff" opacity=".7"/><path d="M1.63,466.54c0-.96-.71-1.76-1.63-1.91v3.81c.92-.15,1.63-.94,1.63-1.91Z" fill="url(#ay)"/><path d="M1.63,466.54c0-.96-.71-1.76-1.63-1.91v3.81c.92-.15,1.63-.94,1.63-1.91Z" fill="#fff" opacity=".7"/><path d="M633.65,84.63c-1.07,0-1.93,.87-1.93,1.93s.87,1.93,1.93,1.93,1.93-.87,1.93-1.93-.87-1.93-1.93-1.93Z" fill="url(#az)"/><path d="M633.65,84.63c-1.07,0-1.93,.87-1.93,1.93s.87,1.93,1.93,1.93,1.93-.87,1.93-1.93-.87-1.93-1.93-1.93Z" fill="#fff" opacity=".7"/><path d="M651.48,88.5c1.07,0,1.93-.87,1.93-1.93,0-.84-.53-1.55-1.28-1.82l-2.47,2.47c.27,.74,.98,1.28,1.82,1.28Z" fill="url(#ba)"/><path d="M651.48,88.5c1.07,0,1.93-.87,1.93-1.93,0-.84-.53-1.55-1.28-1.82l-2.47,2.47c.27,.74,.98,1.28,1.82,1.28Z" fill="#fff" opacity=".7"/><path d="M669.32,84.63c-1.07,0-1.93,.87-1.93,1.93s.86,1.93,1.93,1.93,1.93-.87,1.93-1.93-.87-1.93-1.93-1.93Z" fill="url(#bb)"/><path d="M669.32,84.63c-1.07,0-1.93,.87-1.93,1.93s.86,1.93,1.93,1.93,1.93-.87,1.93-1.93-.87-1.93-1.93-1.93Z" fill="#fff" opacity=".7"/><path d="M687.16,88.5c1.07,0,1.93-.87,1.93-1.93s-.87-1.93-1.93-1.93-1.93,.87-1.93,1.93,.86,1.93,1.93,1.93Z" fill="url(#bc)"/><path d="M687.16,88.5c1.07,0,1.93-.87,1.93-1.93s-.87-1.93-1.93-1.93-1.93,.87-1.93,1.93,.86,1.93,1.93,1.93Z" fill="#fff" opacity=".7"/><path d="M633.65,68.27c-1.07,0-1.93,.86-1.93,1.93s.87,1.93,1.93,1.93,1.93-.87,1.93-1.93-.87-1.93-1.93-1.93Z" fill="url(#bd)"/><path d="M633.65,68.27c-1.07,0-1.93,.86-1.93,1.93s.87,1.93,1.93,1.93,1.93-.87,1.93-1.93-.87-1.93-1.93-1.93Z" fill="#fff" opacity=".7"/><path d="M651.48,72.13c1.07,0,1.93-.87,1.93-1.93s-.87-1.93-1.93-1.93-1.93,.86-1.93,1.93,.87,1.93,1.93,1.93Z" fill="url(#be)"/><path d="M651.48,72.13c1.07,0,1.93-.87,1.93-1.93s-.87-1.93-1.93-1.93-1.93,.86-1.93,1.93,.87,1.93,1.93,1.93Z" fill="#fff" opacity=".7"/><path d="M669.32,72.13c1.07,0,1.93-.87,1.93-1.93s-.87-1.93-1.93-1.93c-.34,0-.67,.09-.95,.25l-.74,.74c-.16,.28-.25,.6-.25,.95,0,1.07,.86,1.93,1.93,1.93Z" fill="url(#bf)"/><path d="M669.32,72.13c1.07,0,1.93-.87,1.93-1.93s-.87-1.93-1.93-1.93c-.34,0-.67,.09-.95,.25l-.74,.74c-.16,.28-.25,.6-.25,.95,0,1.07,.86,1.93,1.93,1.93Z" fill="#fff" opacity=".7"/><path d="M687.16,72.13c1.07,0,1.93-.87,1.93-1.93s-.87-1.93-1.93-1.93-1.93,.86-1.93,1.93,.86,1.93,1.93,1.93Z" fill="url(#bg)"/><path d="M687.16,72.13c1.07,0,1.93-.87,1.93-1.93s-.87-1.93-1.93-1.93-1.93,.86-1.93,1.93,.86,1.93,1.93,1.93Z" fill="#fff" opacity=".7"/><path d="M633.65,55.76c1.07,0,1.93-.87,1.93-1.93s-.87-1.93-1.93-1.93-1.93,.86-1.93,1.93,.87,1.93,1.93,1.93Z" fill="url(#bh)"/><path d="M633.65,55.76c1.07,0,1.93-.87,1.93-1.93s-.87-1.93-1.93-1.93-1.93,.86-1.93,1.93,.87,1.93,1.93,1.93Z" fill="#fff" opacity=".7"/><path d="M651.48,55.76c1.07,0,1.93-.87,1.93-1.93s-.87-1.93-1.93-1.93-1.93,.86-1.93,1.93,.87,1.93,1.93,1.93Z" fill="url(#bi)"/><path d="M651.48,55.76c1.07,0,1.93-.87,1.93-1.93s-.87-1.93-1.93-1.93-1.93,.86-1.93,1.93,.87,1.93,1.93,1.93Z" fill="#fff" opacity=".7"/><path d="M669.32,55.76c1.07,0,1.93-.87,1.93-1.93s-.87-1.93-1.93-1.93-1.93,.86-1.93,1.93,.86,1.93,1.93,1.93Z" fill="url(#bj)"/><path d="M669.32,55.76c1.07,0,1.93-.87,1.93-1.93s-.87-1.93-1.93-1.93-1.93,.86-1.93,1.93,.86,1.93,1.93,1.93Z" fill="#fff" opacity=".7"/><path d="M687.16,55.76c1.07,0,1.93-.87,1.93-1.93s-.87-1.93-1.93-1.93-1.93,.86-1.93,1.93,.86,1.93,1.93,1.93Z" fill="url(#bk)"/><path d="M687.16,55.76c1.07,0,1.93-.87,1.93-1.93s-.87-1.93-1.93-1.93-1.93,.86-1.93,1.93,.86,1.93,1.93,1.93Z" fill="#fff" opacity=".7"/><path d="M633.65,39.4c1.07,0,1.93-.87,1.93-1.93s-.87-1.93-1.93-1.93-1.93,.87-1.93,1.93,.87,1.93,1.93,1.93Z" fill="url(#bl)"/><path d="M633.65,39.4c1.07,0,1.93-.87,1.93-1.93s-.87-1.93-1.93-1.93-1.93,.87-1.93,1.93,.87,1.93,1.93,1.93Z" fill="#fff" opacity=".7"/><path d="M651.48,39.4c1.07,0,1.93-.87,1.93-1.93s-.87-1.93-1.93-1.93-1.93,.87-1.93,1.93,.87,1.93,1.93,1.93Z" fill="url(#bm)"/><path d="M651.48,39.4c1.07,0,1.93-.87,1.93-1.93s-.87-1.93-1.93-1.93-1.93,.87-1.93,1.93,.87,1.93,1.93,1.93Z" fill="#fff" opacity=".7"/><path d="M669.32,39.4c1.07,0,1.93-.87,1.93-1.93s-.87-1.93-1.93-1.93-1.93,.87-1.93,1.93,.86,1.93,1.93,1.93Z" fill="url(#bn)"/><path d="M669.32,39.4c1.07,0,1.93-.87,1.93-1.93s-.87-1.93-1.93-1.93-1.93,.87-1.93,1.93,.86,1.93,1.93,1.93Z" fill="#fff" opacity=".7"/><path d="M687.16,39.4c1.07,0,1.93-.87,1.93-1.93s-.87-1.93-1.93-1.93-1.93,.87-1.93,1.93,.86,1.93,1.93,1.93Z" fill="url(#bo)"/><path d="M687.16,39.4c1.07,0,1.93-.87,1.93-1.93s-.87-1.93-1.93-1.93-1.93,.87-1.93,1.93,.86,1.93,1.93,1.93Z" fill="#fff" opacity=".7"/><path d="M580.14,88.5c1.07,0,1.93-.87,1.93-1.93s-.87-1.93-1.93-1.93-1.93,.86-1.93,1.93c0,1.07,.87,1.93,1.93,1.93Z" fill="url(#bp)"/><path d="M580.14,88.5c1.07,0,1.93-.87,1.93-1.93s-.87-1.93-1.93-1.93-1.93,.86-1.93,1.93c0,1.07,.87,1.93,1.93,1.93Z" fill="#fff" opacity=".7"/><path d="M597.98,84.63c-1.07,0-1.93,.86-1.93,1.93s.87,1.93,1.93,1.93,1.93-.87,1.93-1.93-.86-1.93-1.93-1.93Z" fill="url(#bq)"/><path d="M597.98,84.63c-1.07,0-1.93,.86-1.93,1.93s.87,1.93,1.93,1.93,1.93-.87,1.93-1.93-.86-1.93-1.93-1.93Z" fill="#fff" opacity=".7"/><path d="M615.81,84.63c-1.07,0-1.93,.86-1.93,1.93s.86,1.93,1.93,1.93,1.93-.87,1.93-1.93-.87-1.93-1.93-1.93Z" fill="url(#br)"/><path d="M615.81,84.63c-1.07,0-1.93,.86-1.93,1.93s.86,1.93,1.93,1.93,1.93-.87,1.93-1.93-.87-1.93-1.93-1.93Z" fill="#fff" opacity=".7"/><path d="M580.14,72.13c1.07,0,1.93-.87,1.93-1.93s-.86-1.93-1.93-1.93-1.93,.86-1.93,1.93,.87,1.93,1.93,1.93Z" fill="url(#bs)"/><path d="M580.14,72.13c1.07,0,1.93-.87,1.93-1.93s-.86-1.93-1.93-1.93-1.93,.86-1.93,1.93,.87,1.93,1.93,1.93Z" fill="#fff" opacity=".7"/><path d="M597.97,72.13c1.07,0,1.93-.87,1.93-1.93s-.86-1.93-1.93-1.93-1.93,.86-1.93,1.93c0,1.07,.87,1.93,1.93,1.93Z" fill="url(#bt)"/><path d="M597.97,72.13c1.07,0,1.93-.87,1.93-1.93s-.86-1.93-1.93-1.93-1.93,.86-1.93,1.93c0,1.07,.87,1.93,1.93,1.93Z" fill="#fff" opacity=".7"/><path d="M615.81,68.27c-1.07,0-1.93,.86-1.93,1.93s.86,1.93,1.93,1.93,1.93-.87,1.93-1.93-.87-1.93-1.93-1.93Z" fill="url(#bu)"/><path d="M615.81,68.27c-1.07,0-1.93,.86-1.93,1.93s.86,1.93,1.93,1.93,1.93-.87,1.93-1.93-.87-1.93-1.93-1.93Z" fill="#fff" opacity=".7"/><path d="M580.14,55.76c1.07,0,1.93-.87,1.93-1.93,0-.44-.15-.84-.39-1.17l-2.7,2.7c.32,.25,.73,.39,1.17,.39Z" fill="url(#bv)"/><path d="M580.14,55.76c1.07,0,1.93-.87,1.93-1.93,0-.44-.15-.84-.39-1.17l-2.7,2.7c.32,.25,.73,.39,1.17,.39Z" fill="#fff" opacity=".7"/><path d="M633.65,117.35c-1.07,0-1.93,.86-1.93,1.93s.87,1.93,1.93,1.93,1.93-.87,1.93-1.93-.87-1.93-1.93-1.93Z" fill="url(#bw)"/><path d="M633.65,117.35c-1.07,0-1.93,.86-1.93,1.93s.87,1.93,1.93,1.93,1.93-.87,1.93-1.93-.87-1.93-1.93-1.93Z" fill="#fff" opacity=".7"/><path d="M651.48,117.35c-1.07,0-1.93,.86-1.93,1.93s.87,1.93,1.93,1.93,1.93-.87,1.93-1.93-.86-1.93-1.93-1.93Z" fill="url(#bx)"/><path d="M651.48,117.35c-1.07,0-1.93,.86-1.93,1.93s.87,1.93,1.93,1.93,1.93-.87,1.93-1.93-.86-1.93-1.93-1.93Z" fill="#fff" opacity=".7"/><path d="M669.32,121.22c1.07,0,1.93-.87,1.93-1.93s-.87-1.93-1.93-1.93-1.93,.86-1.93,1.93,.86,1.93,1.93,1.93Z" fill="url(#by)"/><path d="M669.32,121.22c1.07,0,1.93-.87,1.93-1.93s-.87-1.93-1.93-1.93-1.93,.86-1.93,1.93,.86,1.93,1.93,1.93Z" fill="#fff" opacity=".7"/><path d="M687.16,121.22c1.07,0,1.93-.87,1.93-1.93s-.87-1.93-1.93-1.93-1.93,.86-1.93,1.93,.86,1.93,1.93,1.93Z" fill="url(#bz)"/><path d="M687.16,121.22c1.07,0,1.93-.87,1.93-1.93s-.87-1.93-1.93-1.93-1.93,.86-1.93,1.93,.86,1.93,1.93,1.93Z" fill="#fff" opacity=".7"/><path d="M635.58,102.92c0-.45-.16-.87-.41-1.19l-2.71,2.71c.33,.26,.74,.41,1.19,.41,1.07,0,1.93-.87,1.93-1.93Z" fill="url(#ca)"/><path d="M635.58,102.92c0-.45-.16-.87-.41-1.19l-2.71,2.71c.33,.26,.74,.41,1.19,.41,1.07,0,1.93-.87,1.93-1.93Z" fill="#fff" opacity=".7"/><path d="M651.48,100.98c-1.07,0-1.93,.87-1.93,1.93s.87,1.93,1.93,1.93,1.93-.87,1.93-1.93-.87-1.93-1.93-1.93Z" fill="url(#cb)"/><path d="M651.48,100.98c-1.07,0-1.93,.87-1.93,1.93s.87,1.93,1.93,1.93,1.93-.87,1.93-1.93-.87-1.93-1.93-1.93Z" fill="#fff" opacity=".7"/><path d="M669.32,100.98c-1.07,0-1.93,.87-1.93,1.93s.86,1.93,1.93,1.93,1.93-.87,1.93-1.93-.87-1.93-1.93-1.93Z" fill="url(#cc)"/><path d="M669.32,100.98c-1.07,0-1.93,.87-1.93,1.93s.86,1.93,1.93,1.93,1.93-.87,1.93-1.93-.87-1.93-1.93-1.93Z" fill="#fff" opacity=".7"/><path d="M687.16,104.85c1.07,0,1.93-.87,1.93-1.93s-.87-1.93-1.93-1.93-1.93,.87-1.93,1.93,.86,1.93,1.93,1.93Z" fill="url(#cd)"/><path d="M687.16,104.85c1.07,0,1.93-.87,1.93-1.93s-.87-1.93-1.93-1.93-1.93,.87-1.93,1.93,.86,1.93,1.93,1.93Z" fill="#fff" opacity=".7"/><path d="M582.07,119.28c0-1.07-.86-1.93-1.93-1.93s-1.93,.86-1.93,1.93,.87,1.93,1.93,1.93,1.93-.87,1.93-1.93Z" fill="url(#ce)"/><path d="M582.07,119.28c0-1.07-.86-1.93-1.93-1.93s-1.93,.86-1.93,1.93,.87,1.93,1.93,1.93,1.93-.87,1.93-1.93Z" fill="#fff" opacity=".7"/><path d="M597.98,121.22c1.07,0,1.93-.87,1.93-1.93s-.86-1.93-1.93-1.93-1.93,.86-1.93,1.93,.87,1.93,1.93,1.93Z" fill="url(#cf)"/><path d="M597.98,121.22c1.07,0,1.93-.87,1.93-1.93s-.86-1.93-1.93-1.93-1.93,.86-1.93,1.93,.87,1.93,1.93,1.93Z" fill="#fff" opacity=".7"/><path d="M615.97,117.36c-.05,0-.1,0-.15,0-1.07,0-1.93,.86-1.93,1.93,0,.06,0,.11,0,.17,.08-.09,.17-.18,.25-.27l1.82-1.82Z" fill="url(#cg)"/><path d="M615.97,117.36c-.05,0-.1,0-.15,0-1.07,0-1.93,.86-1.93,1.93,0,.06,0,.11,0,.17,.08-.09,.17-.18,.25-.27l1.82-1.82Z" fill="#fff" opacity=".7"/><path d="M617.74,119.28s0-.09,0-.13l-1.81,1.81c-.08,.08-.15,.16-.23,.24,.04,0,.08,0,.12,0,1.07,0,1.93-.87,1.93-1.93Z" fill="url(#ch)"/><path d="M617.74,119.28s0-.09,0-.13l-1.81,1.81c-.08,.08-.15,.16-.23,.24,.04,0,.08,0,.12,0,1.07,0,1.93-.87,1.93-1.93Z" fill="#fff" opacity=".7"/><path d="M580.14,100.98c-1.07,0-1.93,.86-1.93,1.93s.87,1.93,1.93,1.93,1.93-.87,1.93-1.93-.86-1.93-1.93-1.93Z" fill="url(#ci)"/><path d="M580.14,100.98c-1.07,0-1.93,.86-1.93,1.93s.87,1.93,1.93,1.93,1.93-.87,1.93-1.93-.86-1.93-1.93-1.93Z" fill="#fff" opacity=".7"/><path d="M597.98,104.85c1.07,0,1.93-.87,1.93-1.93s-.86-1.93-1.93-1.93-1.93,.86-1.93,1.93,.87,1.93,1.93,1.93Z" fill="url(#cj)"/><path d="M597.98,104.85c1.07,0,1.93-.87,1.93-1.93s-.86-1.93-1.93-1.93-1.93,.86-1.93,1.93,.87,1.93,1.93,1.93Z" fill="#fff" opacity=".7"/><path d="M615.81,100.98c-1.07,0-1.93,.86-1.93,1.93s.86,1.93,1.93,1.93,1.93-.87,1.93-1.93-.87-1.93-1.93-1.93Z" fill="url(#ck)"/><path d="M615.81,100.98c-1.07,0-1.93,.86-1.93,1.93s.86,1.93,1.93,1.93,1.93-.87,1.93-1.93-.87-1.93-1.93-1.93Z" fill="#fff" opacity=".7"/><path d="M597.98,55.76c1.07,0,1.93-.87,1.93-1.93s-.86-1.93-1.93-1.93-1.93,.86-1.93,1.93,.86,1.93,1.93,1.93Z" fill="url(#cl)"/><path d="M597.98,55.76c1.07,0,1.93-.87,1.93-1.93s-.86-1.93-1.93-1.93-1.93,.86-1.93,1.93,.86,1.93,1.93,1.93Z" fill="#fff" opacity=".7"/><path d="M615.81,55.76c1.07,0,1.93-.87,1.93-1.93s-.87-1.93-1.93-1.93-1.93,.86-1.93,1.93,.86,1.93,1.93,1.93Z" fill="url(#cm)"/><path d="M615.81,55.76c1.07,0,1.93-.87,1.93-1.93s-.87-1.93-1.93-1.93-1.93,.86-1.93,1.93,.86,1.93,1.93,1.93Z" fill="#fff" opacity=".7"/><path d="M580.14,39.4c1.07,0,1.93-.87,1.93-1.93s-.86-1.93-1.93-1.93-1.93,.87-1.93,1.93,.87,1.93,1.93,1.93Z" fill="url(#cn)"/><path d="M580.14,39.4c1.07,0,1.93-.87,1.93-1.93s-.86-1.93-1.93-1.93-1.93,.87-1.93,1.93,.87,1.93,1.93,1.93Z" fill="#fff" opacity=".7"/><path d="M597.98,39.4c1.07,0,1.93-.87,1.93-1.93,0-.82-.51-1.52-1.23-1.8l-2.5,2.5c.28,.72,.98,1.23,1.8,1.23Z" fill="url(#co)"/><path d="M597.98,39.4c1.07,0,1.93-.87,1.93-1.93,0-.82-.51-1.52-1.23-1.8l-2.5,2.5c.28,.72,.98,1.23,1.8,1.23Z" fill="#fff" opacity=".7"/><path d="M615.81,39.4c1.07,0,1.93-.87,1.93-1.93s-.87-1.93-1.93-1.93-1.93,.87-1.93,1.93,.86,1.93,1.93,1.93Z" fill="url(#cp)"/><path d="M615.81,39.4c1.07,0,1.93-.87,1.93-1.93s-.87-1.93-1.93-1.93-1.93,.87-1.93,1.93,.86,1.93,1.93,1.93Z" fill="#fff" opacity=".7"/><path d="M526.63,88.5c1.07,0,1.93-.87,1.93-1.93s-.87-1.93-1.93-1.93-1.93,.86-1.93,1.93,.87,1.93,1.93,1.93Z" fill="url(#cq)"/><path d="M526.63,88.5c1.07,0,1.93-.87,1.93-1.93s-.87-1.93-1.93-1.93-1.93,.86-1.93,1.93,.87,1.93,1.93,1.93Z" fill="#fff" opacity=".7"/><path d="M544.47,84.63c-1.07,0-1.93,.86-1.93,1.93,0,.47,.17,.9,.45,1.23l2.72-2.72c-.33-.28-.76-.45-1.23-.45Z" fill="url(#cr)"/><path d="M544.47,84.63c-1.07,0-1.93,.86-1.93,1.93,0,.47,.17,.9,.45,1.23l2.72-2.72c-.33-.28-.76-.45-1.23-.45Z" fill="#fff" opacity=".7"/><path d="M562.3,88.5c1.07,0,1.93-.87,1.93-1.93s-.87-1.93-1.93-1.93-1.93,.86-1.93,1.93,.86,1.93,1.93,1.93Z" fill="url(#cs)"/><path d="M562.3,88.5c1.07,0,1.93-.87,1.93-1.93s-.87-1.93-1.93-1.93-1.93,.86-1.93,1.93,.86,1.93,1.93,1.93Z" fill="#fff" opacity=".7"/><path d="M526.63,72.13c1.07,0,1.93-.87,1.93-1.93s-.87-1.93-1.93-1.93-1.93,.86-1.93,1.93,.87,1.93,1.93,1.93Z" fill="url(#ct)"/><path d="M526.63,72.13c1.07,0,1.93-.87,1.93-1.93s-.87-1.93-1.93-1.93-1.93,.86-1.93,1.93,.87,1.93,1.93,1.93Z" fill="#fff" opacity=".7"/><path d="M544.47,72.13c1.07,0,1.93-.87,1.93-1.93s-.86-1.93-1.93-1.93-1.93,.86-1.93,1.93,.86,1.93,1.93,1.93Z" fill="url(#cu)"/><path d="M544.47,72.13c1.07,0,1.93-.87,1.93-1.93s-.86-1.93-1.93-1.93-1.93,.86-1.93,1.93,.86,1.93,1.93,1.93Z" fill="#fff" opacity=".7"/><path d="M562.3,72.13c1.07,0,1.93-.87,1.93-1.93,0-.03,0-.06,0-.09l-2.01,2.01s.06,0,.09,0Z" fill="url(#cv)"/><path d="M562.3,72.13c1.07,0,1.93-.87,1.93-1.93,0-.03,0-.06,0-.09l-2.01,2.01s.06,0,.09,0Z" fill="#fff" opacity=".7"/><path d="M562.3,68.27c-1.07,0-1.93,.86-1.93,1.93,0,.07,0,.13,.01,.2l2.12-2.12c-.07,0-.13-.01-.2-.01Z" fill="url(#cw)"/><path d="M562.3,68.27c-1.07,0-1.93,.86-1.93,1.93,0,.07,0,.13,.01,.2l2.12-2.12c-.07,0-.13-.01-.2-.01Z" fill="#fff" opacity=".7"/><path d="M526.63,55.76c1.07,0,1.93-.87,1.93-1.93s-.87-1.93-1.93-1.93-1.93,.86-1.93,1.93,.87,1.93,1.93,1.93Z" fill="url(#cx)"/><path d="M526.63,55.76c1.07,0,1.93-.87,1.93-1.93s-.87-1.93-1.93-1.93-1.93,.86-1.93,1.93,.87,1.93,1.93,1.93Z" fill="#fff" opacity=".7"/><path d="M526.63,121.22c1.07,0,1.93-.87,1.93-1.93s-.87-1.93-1.93-1.93-1.93,.86-1.93,1.93,.87,1.93,1.93,1.93Z" fill="url(#cy)"/><path d="M526.63,121.22c1.07,0,1.93-.87,1.93-1.93s-.87-1.93-1.93-1.93-1.93,.86-1.93,1.93,.87,1.93,1.93,1.93Z" fill="#fff" opacity=".7"/><path d="M544.47,117.35c-1.07,0-1.93,.86-1.93,1.93s.86,1.93,1.93,1.93,1.93-.87,1.93-1.93-.86-1.93-1.93-1.93Z" fill="url(#cz)"/><path d="M544.47,117.35c-1.07,0-1.93,.86-1.93,1.93s.86,1.93,1.93,1.93,1.93-.87,1.93-1.93-.86-1.93-1.93-1.93Z" fill="#fff" opacity=".7"/><path d="M562.3,117.35c-1.07,0-1.93,.86-1.93,1.93s.86,1.93,1.93,1.93,1.93-.87,1.93-1.93-.87-1.93-1.93-1.93Z" fill="url(#da)"/><path d="M562.3,117.35c-1.07,0-1.93,.86-1.93,1.93s.86,1.93,1.93,1.93,1.93-.87,1.93-1.93-.87-1.93-1.93-1.93Z" fill="#fff" opacity=".7"/><path d="M526.63,100.98c-1.07,0-1.93,.86-1.93,1.93,0,.86,.56,1.58,1.33,1.83l2.44-2.44c-.25-.77-.98-1.33-1.84-1.33Z" fill="url(#db)"/><path d="M526.63,100.98c-1.07,0-1.93,.86-1.93,1.93,0,.86,.56,1.58,1.33,1.83l2.44-2.44c-.25-.77-.98-1.33-1.84-1.33Z" fill="#fff" opacity=".7"/><path d="M544.47,104.85c1.07,0,1.93-.87,1.93-1.93,0-1.07-.87-1.93-1.93-1.93s-1.93,.86-1.93,1.93,.87,1.93,1.93,1.93Z" fill="url(#dc)"/><path d="M544.47,104.85c1.07,0,1.93-.87,1.93-1.93,0-1.07-.87-1.93-1.93-1.93s-1.93,.86-1.93,1.93,.87,1.93,1.93,1.93Z" fill="#fff" opacity=".7"/><path d="M562.3,100.98c-1.07,0-1.93,.86-1.93,1.93s.86,1.93,1.93,1.93,1.93-.87,1.93-1.93-.87-1.93-1.93-1.93Z" fill="url(#dd)"/><path d="M562.3,100.98c-1.07,0-1.93,.86-1.93,1.93s.86,1.93,1.93,1.93,1.93-.87,1.93-1.93-.87-1.93-1.93-1.93Z" fill="#fff" opacity=".7"/><path d="M544.47,55.76c1.07,0,1.93-.87,1.93-1.93s-.86-1.93-1.93-1.93-1.93,.86-1.93,1.93,.86,1.93,1.93,1.93Z" fill="url(#de)"/><path d="M544.47,55.76c1.07,0,1.93-.87,1.93-1.93s-.86-1.93-1.93-1.93-1.93,.86-1.93,1.93,.86,1.93,1.93,1.93Z" fill="#fff" opacity=".7"/><path d="M562.3,55.76c1.07,0,1.93-.87,1.93-1.93s-.86-1.93-1.93-1.93-1.93,.86-1.93,1.93,.86,1.93,1.93,1.93Z" fill="url(#df)"/><path d="M562.3,55.76c1.07,0,1.93-.87,1.93-1.93s-.86-1.93-1.93-1.93-1.93,.86-1.93,1.93,.86,1.93,1.93,1.93Z" fill="#fff" opacity=".7"/><path d="M526.63,39.4c1.07,0,1.93-.87,1.93-1.93s-.87-1.93-1.93-1.93-1.93,.86-1.93,1.93,.87,1.93,1.93,1.93Z" fill="url(#dg)"/><path d="M526.63,39.4c1.07,0,1.93-.87,1.93-1.93s-.87-1.93-1.93-1.93-1.93,.86-1.93,1.93,.87,1.93,1.93,1.93Z" fill="#fff" opacity=".7"/><path d="M544.47,35.53c-1.07,0-1.93,.86-1.93,1.93,0,.78,.46,1.44,1.12,1.75l2.56-2.56c-.31-.66-.97-1.12-1.75-1.12Z" fill="url(#dh)"/><path d="M544.47,35.53c-1.07,0-1.93,.86-1.93,1.93,0,.78,.46,1.44,1.12,1.75l2.56-2.56c-.31-.66-.97-1.12-1.75-1.12Z" fill="#fff" opacity=".7"/><path d="M562.3,39.4c1.07,0,1.93-.87,1.93-1.93s-.86-1.93-1.93-1.93-1.93,.86-1.93,1.93,.86,1.93,1.93,1.93Z" fill="url(#di)"/><path d="M562.3,39.4c1.07,0,1.93-.87,1.93-1.93s-.86-1.93-1.93-1.93-1.93,.86-1.93,1.93,.86,1.93,1.93,1.93Z" fill="#fff" opacity=".7"/><path d="M272.62,473.18c0,.82,.67,1.49,1.49,1.49s1.49-.67,1.49-1.49-.67-1.49-1.49-1.49-1.49,.67-1.49,1.49Z" fill="url(#dj)"/><path d="M272.62,473.18c0,.82,.67,1.49,1.49,1.49s1.49-.67,1.49-1.49-.67-1.49-1.49-1.49-1.49,.67-1.49,1.49Z" fill="#fff" opacity=".7"/><path d="M287.89,474.67c.82,0,1.49-.67,1.49-1.49s-.67-1.49-1.49-1.49-1.49,.67-1.49,1.49,.67,1.49,1.49,1.49Z" fill="url(#dk)"/><path d="M287.89,474.67c.82,0,1.49-.67,1.49-1.49s-.67-1.49-1.49-1.49-1.49,.67-1.49,1.49,.67,1.49,1.49,1.49Z" fill="#fff" opacity=".7"/><path d="M303.16,473.18c0-.82-.67-1.49-1.49-1.49s-1.49,.67-1.49,1.49,.67,1.49,1.49,1.49,1.49-.67,1.49-1.49Z" fill="url(#dl)"/><path d="M303.16,473.18c0-.82-.67-1.49-1.49-1.49s-1.49,.67-1.49,1.49,.67,1.49,1.49,1.49,1.49-.67,1.49-1.49Z" fill="#fff" opacity=".7"/><path d="M316.94,473.18c0-.82-.67-1.49-1.49-1.49s-1.49,.67-1.49,1.49,.67,1.49,1.49,1.49,1.49-.67,1.49-1.49Z" fill="url(#dm)"/><path d="M316.94,473.18c0-.82-.67-1.49-1.49-1.49s-1.49,.67-1.49,1.49,.67,1.49,1.49,1.49,1.49-.67,1.49-1.49Z" fill="#fff" opacity=".7"/><path d="M272.62,460.53c0,.82,.67,1.49,1.49,1.49s1.49-.67,1.49-1.49-.67-1.49-1.49-1.49-1.49,.67-1.49,1.49Z" fill="url(#dn)"/><path d="M272.62,460.53c0,.82,.67,1.49,1.49,1.49s1.49-.67,1.49-1.49-.67-1.49-1.49-1.49-1.49,.67-1.49,1.49Z" fill="#fff" opacity=".7"/><path d="M286.4,460.53c0,.82,.67,1.49,1.49,1.49s1.49-.67,1.49-1.49-.67-1.49-1.49-1.49-1.49,.67-1.49,1.49Z" fill="url(#do)"/><path d="M286.4,460.53c0,.82,.67,1.49,1.49,1.49s1.49-.67,1.49-1.49-.67-1.49-1.49-1.49-1.49,.67-1.49,1.49Z" fill="#fff" opacity=".7"/><path d="M300.18,460.53c0,.82,.67,1.49,1.49,1.49s1.49-.67,1.49-1.49-.67-1.49-1.49-1.49-1.49,.67-1.49,1.49Z" fill="url(#dp)"/><path d="M300.18,460.53c0,.82,.67,1.49,1.49,1.49s1.49-.67,1.49-1.49-.67-1.49-1.49-1.49-1.49,.67-1.49,1.49Z" fill="#fff" opacity=".7"/><path d="M313.96,460.53c0,.82,.67,1.49,1.49,1.49s1.49-.67,1.49-1.49-.67-1.49-1.49-1.49-1.49,.67-1.49,1.49Z" fill="url(#dq)"/><path d="M313.96,460.53c0,.82,.67,1.49,1.49,1.49s1.49-.67,1.49-1.49-.67-1.49-1.49-1.49-1.49,.67-1.49,1.49Z" fill="#fff" opacity=".7"/><path d="M245.06,473.18c0,.82,.67,1.49,1.49,1.49s1.49-.67,1.49-1.49-.67-1.49-1.49-1.49-1.49,.67-1.49,1.49Z" fill="url(#dr)"/><path d="M245.06,473.18c0,.82,.67,1.49,1.49,1.49s1.49-.67,1.49-1.49-.67-1.49-1.49-1.49-1.49,.67-1.49,1.49Z" fill="#fff" opacity=".7"/><path d="M258.84,473.18c0,.82,.67,1.49,1.49,1.49s1.49-.67,1.49-1.49-.67-1.49-1.49-1.49-1.49,.67-1.49,1.49Z" fill="url(#ds)"/><path d="M258.84,473.18c0,.82,.67,1.49,1.49,1.49s1.49-.67,1.49-1.49-.67-1.49-1.49-1.49-1.49,.67-1.49,1.49Z" fill="#fff" opacity=".7"/><path d="M245.06,460.53c0,.82,.67,1.49,1.49,1.49s1.49-.67,1.49-1.49-.67-1.49-1.49-1.49-1.49,.67-1.49,1.49Z" fill="url(#dt)"/><path d="M245.06,460.53c0,.82,.67,1.49,1.49,1.49s1.49-.67,1.49-1.49-.67-1.49-1.49-1.49-1.49,.67-1.49,1.49Z" fill="#fff" opacity=".7"/><path d="M258.84,460.53c0,.82,.67,1.49,1.49,1.49s1.49-.67,1.49-1.49-.67-1.49-1.49-1.49-1.49,.67-1.49,1.49Z" fill="url(#du)"/><path d="M258.84,460.53c0,.82,.67,1.49,1.49,1.49s1.49-.67,1.49-1.49-.67-1.49-1.49-1.49-1.49,.67-1.49,1.49Z" fill="#fff" opacity=".7"/><path d="M701.79,172.69c.82,0,1.49-.67,1.49-1.49s-.67-1.49-1.49-1.49-1.49,.67-1.49,1.49,.67,1.49,1.49,1.49Z" fill="url(#dv)"/><path d="M701.79,172.69c.82,0,1.49-.67,1.49-1.49s-.67-1.49-1.49-1.49-1.49,.67-1.49,1.49,.67,1.49,1.49,1.49Z" fill="#fff" opacity=".7"/><path d="M703.28,184.97c0-.82-.67-1.49-1.49-1.49s-1.49,.67-1.49,1.49,.67,1.49,1.49,1.49,1.49-.67,1.49-1.49Z" fill="url(#dw)"/><path d="M703.28,184.97c0-.82-.67-1.49-1.49-1.49s-1.49,.67-1.49,1.49,.67,1.49,1.49,1.49,1.49-.67,1.49-1.49Z" fill="#fff" opacity=".7"/><path d="M703.28,198.75c0-.82-.67-1.49-1.49-1.49s-1.49,.67-1.49,1.49,.67,1.49,1.49,1.49,1.49-.67,1.49-1.49Z" fill="url(#dx)"/><path d="M703.28,198.75c0-.82-.67-1.49-1.49-1.49s-1.49,.67-1.49,1.49,.67,1.49,1.49,1.49,1.49-.67,1.49-1.49Z" fill="#fff" opacity=".7"/><path d="M700.29,212.53c0,.82,.67,1.49,1.49,1.49s1.49-.67,1.49-1.49-.67-1.49-1.49-1.49-1.49,.67-1.49,1.49Z" fill="url(#dy)"/><path d="M700.29,212.53c0,.82,.67,1.49,1.49,1.49s1.49-.67,1.49-1.49-.67-1.49-1.49-1.49-1.49,.67-1.49,1.49Z" fill="#fff" opacity=".7"/><path d="M701.79,145.13c.82,0,1.49-.67,1.49-1.49s-.67-1.49-1.49-1.49-1.49,.67-1.49,1.49,.67,1.49,1.49,1.49Z" fill="url(#dz)"/><path d="M701.79,145.13c.82,0,1.49-.67,1.49-1.49s-.67-1.49-1.49-1.49-1.49,.67-1.49,1.49,.67,1.49,1.49,1.49Z" fill="#fff" opacity=".7"/><path d="M701.79,158.91c.82,0,1.49-.67,1.49-1.49s-.67-1.49-1.49-1.49-1.49,.67-1.49,1.49,.67,1.49,1.49,1.49Z" fill="url(#ea)"/><path d="M701.79,158.91c.82,0,1.49-.67,1.49-1.49s-.67-1.49-1.49-1.49-1.49,.67-1.49,1.49,.67,1.49,1.49,1.49Z" fill="#fff" opacity=".7"/><path d="M299.71,178.09c0-1.09-.88-1.98-1.98-1.98-1.09,0-1.98,.88-1.98,1.98s.88,1.98,1.98,1.98,1.98-.88,1.98-1.98Z" fill="url(#eb)"/><path d="M299.71,178.09c0-1.09-.88-1.98-1.98-1.98-1.09,0-1.98,.88-1.98,1.98s.88,1.98,1.98,1.98,1.98-.88,1.98-1.98Z" fill="#fff" mix-blend-mode="color-dodge" opacity=".4"/><path d="M281,176.11c-1.09,0-1.98,.88-1.98,1.98s.88,1.98,1.98,1.98,1.98-.88,1.98-1.98-.88-1.98-1.98-1.98Z" fill="url(#ec)"/><path d="M281,176.11c-1.09,0-1.98,.88-1.98,1.98s.88,1.98,1.98,1.98,1.98-.88,1.98-1.98-.88-1.98-1.98-1.98Z" fill="#fff" mix-blend-mode="color-dodge" opacity=".4"/><path d="M264.26,198.3c1.09,0,1.98-.88,1.98-1.98s-.88-1.98-1.98-1.98c-1.09,0-1.98,.88-1.98,1.98s.88,1.98,1.98,1.98Z" fill="url(#ed)"/><path d="M264.26,198.3c1.09,0,1.98-.88,1.98-1.98s-.88-1.98-1.98-1.98c-1.09,0-1.98,.88-1.98,1.98s.88,1.98,1.98,1.98Z" fill="#fff" mix-blend-mode="color-dodge" opacity=".4"/><path d="M282.98,196.32c0-1.09-.88-1.98-1.98-1.98-1.09,0-1.98,.88-1.98,1.98s.88,1.98,1.98,1.98c1.09,0,1.98-.88,1.98-1.98Z" fill="url(#ee)"/><path d="M282.98,196.32c0-1.09-.88-1.98-1.98-1.98-1.09,0-1.98,.88-1.98,1.98s.88,1.98,1.98,1.98c1.09,0,1.98-.88,1.98-1.98Z" fill="#fff" mix-blend-mode="color-dodge" opacity=".4"/><path d="M249.5,196.32c0-1.09-.89-1.98-1.98-1.98-1.09,0-1.98,.88-1.98,1.98s.88,1.98,1.98,1.98,1.98-.88,1.98-1.98Z" fill="url(#ef)"/><path d="M249.5,196.32c0-1.09-.89-1.98-1.98-1.98-1.09,0-1.98,.88-1.98,1.98s.88,1.98,1.98,1.98,1.98-.88,1.98-1.98Z" fill="#fff" mix-blend-mode="color-dodge" opacity=".4"/><path d="M299.71,196.32c0-1.09-.88-1.98-1.98-1.98s-1.98,.88-1.98,1.98,.88,1.98,1.98,1.98c1.09,0,1.98-.88,1.98-1.98Z" fill="url(#eg)"/><path d="M299.71,196.32c0-1.09-.88-1.98-1.98-1.98s-1.98,.88-1.98,1.98,.88,1.98,1.98,1.98c1.09,0,1.98-.88,1.98-1.98Z" fill="#fff" mix-blend-mode="color-dodge" opacity=".4"/><path d="M264.26,176.11c-1.09,0-1.98,.88-1.98,1.98s.88,1.98,1.98,1.98,1.98-.88,1.98-1.98-.88-1.98-1.98-1.98Z" fill="url(#eh)"/><path d="M264.26,176.11c-1.09,0-1.98,.88-1.98,1.98s.88,1.98,1.98,1.98,1.98-.88,1.98-1.98-.88-1.98-1.98-1.98Z" fill="#fff" mix-blend-mode="color-dodge" opacity=".4"/><path d="M279.02,159.85c0,1.09,.88,1.98,1.98,1.98,1.09,0,1.98-.88,1.98-1.98s-.88-1.98-1.98-1.98-1.98,.88-1.98,1.98Z" fill="url(#ei)"/><path d="M279.02,159.85c0,1.09,.88,1.98,1.98,1.98,1.09,0,1.98-.88,1.98-1.98s-.88-1.98-1.98-1.98-1.98,.88-1.98,1.98Z" fill="#fff" mix-blend-mode="color-dodge" opacity=".4"/><path d="M314.47,194.35c-1.09,0-1.98,.88-1.98,1.98s.88,1.98,1.98,1.98c1.09,0,1.98-.88,1.98-1.98s-.88-1.98-1.98-1.98Z" fill="url(#ej)"/><path d="M314.47,194.35c-1.09,0-1.98,.88-1.98,1.98s.88,1.98,1.98,1.98c1.09,0,1.98-.88,1.98-1.98s-.88-1.98-1.98-1.98Z" fill="#fff" mix-blend-mode="color-dodge" opacity=".4"/><path d="M399.46,439.45c-.39-.39-1.03-.39-1.43,0l-64.55,64.55h2.85l63.12-63.13c.39-.39,.39-1.03,0-1.43Z" fill="#fff"/><path d="M81,440.46c-.39-.39-1.03-.39-1.43,0l-63.54,63.54h2.85l62.12-62.12c.39-.39,.39-1.03,0-1.43Z" fill="#fff"/><path d="M543.65,39.22l-7.83,7.83c-.39,.39-.39,1.03,0,1.43,.2,.2,.45,.3,.71,.3s.52-.1,.71-.3L585.72,0h-2.85l-36.65,36.65-2.56,2.56Z" fill="#fff"/><path d="M290.19,83.02l-118.2,118.2c-.39,.39-.39,1.03,0,1.43,.2,.2,.45,.3,.71,.3s.52-.1,.71-.3l118.2-118.2c.39-.39,.39-1.03,0-1.43-.39-.39-1.03-.39-1.43,0Z" fill="#fff"/><path d="M388.74,396.28c0-8.96-7.29-16.26-16.26-16.26s-16.26,7.29-16.26,16.26,7.29,16.26,16.26,16.26,16.26-7.29,16.26-16.26Zm-16.26,14.24c-7.85,0-14.24-6.39-14.24-14.24s6.39-14.24,14.24-14.24,14.24,6.39,14.24,14.24-6.39,14.24-14.24,14.24Z" fill="#fff"/><path d="M93.36,19.64c14.59,0,27.37-7.89,34.3-19.64h-2.36c-6.7,10.58-18.51,17.62-31.94,17.62S68.12,10.58,61.42,0h-2.36c6.93,11.74,19.71,19.64,34.3,19.64Z" fill="#fff"/><path d="M388.71,51.71c4.55,4.55,10.6,7.06,17.04,7.06s12.49-2.51,17.05-7.06L474.51,0h-3.56l-49.93,49.93c-4.08,4.08-9.5,6.32-15.26,6.32s-11.18-2.24-15.26-6.32c-8.41-8.42-8.41-22.11,0-30.52L409.9,0h-3.56l-17.63,17.63c-9.4,9.4-9.4,24.69,0,34.09Z" fill="#fff"/><path d="M614.14,119.18c-.09,.09-.17,.18-.25,.27-6.69,6.97-6.61,18.09,.25,24.95,3.37,3.37,7.84,5.22,12.61,5.22s9.24-1.86,12.61-5.22l82.64-82.64v-3.56l-84.42,84.42c-2.89,2.89-6.74,4.49-10.83,4.49s-7.93-1.59-10.83-4.48c-5.89-5.89-5.96-15.42-.23-21.41,.08-.08,.15-.16,.23-.24l1.81-1.81,14.72-14.72,2.71-2.71,14.5-14.5,2.47-2.47,15.5-15.5,.74-.74,53.63-53.63v-3.56l-106.03,106.03-1.82,1.82Z" fill="#fff"/><path d="M205.34,438.08c-3.37-3.37-7.84-5.22-12.61-5.22s-9.24,1.86-12.61,5.22l-65.92,65.92h3.56l64.13-64.13c2.89-2.89,6.74-4.49,10.83-4.49s7.93,1.59,10.83,4.48c5.97,5.97,5.97,15.68,0,21.66l-42.48,42.48h3.56l40.7-40.7c6.95-6.95,6.95-18.27,0-25.22Z" fill="#fff"/><path d="M117.32,380.09c-4.76,0-9.24,1.86-12.61,5.22l-17.05,17.05c-6.95,6.95-6.95,18.26,0,25.22,3.37,3.37,7.84,5.22,12.61,5.22s9.24-1.86,12.61-5.22l17.05-17.05c6.95-6.95,6.95-18.27,0-25.22-3.37-3.37-7.84-5.22-12.61-5.22Zm10.83,28.66l-17.05,17.05c-2.89,2.89-6.74,4.49-10.83,4.49s-7.93-1.59-10.83-4.48c-5.97-5.97-5.97-15.68,0-21.65l17.05-17.05c2.89-2.89,6.74-4.49,10.83-4.49s7.93,1.59,10.83,4.48c5.97,5.97,5.97,15.68,0,21.66Z" fill="#fff"/><path d="M488.66,49.45c.52,.52,1.09,.98,1.7,1.37L541.17,0h-3.56l-49.19,49.19c.08,.09,.16,.17,.24,.25Z" fill="#fff"/><path d="M560.38,70.4l-14.68,14.68-2.72,2.72-14.51,14.51-2.44,2.44-48.72,48.72c-5.98,5.99-13.94,9.28-22.4,9.28s-16.42-3.3-22.4-9.28c-12.35-12.35-12.35-32.45,0-44.8l56.04-56.04c-.59-.41-1.15-.88-1.67-1.4-.08-.08-.16-.17-.24-.25l-55.91,55.91c-13.33,13.33-13.33,35.03,0,48.37,6.46,6.46,15.05,10.02,24.18,10.02s17.73-3.56,24.19-10.02l83.13-83.13,2.01-2.01,14.74-14.74,2.7-2.7,14.5-14.5,2.5-2.5L634.34,0h-3.56l-68.28,68.28-2.12,2.12Z" fill="#fff"/><path d="M101.83,326.86c4.9-4.9,4.9-12.87,0-17.77-2.37-2.37-5.53-3.68-8.88-3.68s-6.51,1.31-8.89,3.68L0,393.14v3.56l85.84-85.84c1.9-1.9,4.42-2.94,7.1-2.94s5.21,1.04,7.1,2.94c3.92,3.92,3.92,10.29,0,14.21L0,425.12v3.56l101.83-101.82Z" fill="#fff"/><path d="M689.59,120.36c0,2.25,.88,4.36,2.47,5.95,1.59,1.59,3.7,2.47,5.95,2.47s4.36-.88,5.95-2.47l18.04-18.04v-3.56l-19.82,19.82c-1.11,1.11-2.6,1.73-4.17,1.73s-3.06-.61-4.17-1.73c-1.11-1.11-1.73-2.6-1.73-4.17,0-1.58,.61-3.06,1.73-4.17l28.16-28.16v-3.56l-29.94,29.94c-1.59,1.59-2.47,3.7-2.47,5.95Z" fill="#fff"/><path d="M460.2,226.66c2.25,0,4.36-.88,5.95-2.47l80.3-80.3c3.28-3.28,3.28-8.62,0-11.91-1.59-1.59-3.7-2.47-5.95-2.47s-4.36,.88-5.95,2.47l-80.3,80.3c-1.59,1.59-2.47,3.7-2.47,5.95,0,2.25,.88,4.36,2.47,5.95,1.59,1.59,3.7,2.47,5.95,2.47Zm-4.17-12.59l80.3-80.3c1.11-1.11,2.6-1.73,4.17-1.73s3.06,.61,4.17,1.73c2.3,2.3,2.3,6.04,0,8.34l-80.3,80.3c-1.11,1.11-2.6,1.73-4.17,1.73s-3.06-.61-4.17-1.73-1.73-2.6-1.73-4.17,.61-3.06,1.73-4.17Z" fill="#fff"/><path d="M486.64,50.97c.08,.08,.16,.17,.24,.25,.52,.52,1.08,.99,1.67,1.4,2.1,1.48,4.6,2.28,7.22,2.28,3.36,0,6.51-1.31,8.89-3.68L555.88,0h-3.56l-49.45,49.45c-1.9,1.9-4.42,2.94-7.1,2.94-1.94,0-3.8-.55-5.4-1.58-.61-.39-1.18-.84-1.7-1.37-.08-.08-.16-.17-.24-.25-3.67-3.93-3.59-10.12,.24-13.95L523.9,0h-3.56l-33.46,33.46c-4.82,4.82-4.89,12.6-.24,17.52Z" fill="#fff"/></g></g></g></g></svg>