<?xml version="1.0" encoding="UTF-8"?><svg xmlns="http://www.w3.org/2000/svg" xmlns:xlink="http://www.w3.org/1999/xlink" viewBox="0 0 350 450"><defs><clipPath id="d"><rect width="350" height="450" fill="none"/></clipPath></defs><g isolation="isolate"><g id="b"><g id="c"><g clip-path="url(#d)"><g><rect x="-85.25" y="14.76" width="519.51" height="350" transform="translate(-15.25 364.26) rotate(-90)" fill="#fff"/><g id="e"><rect id="f" x="-.5" y="-70" width="350" height="519.51" transform="translate(349.01 379.51) rotate(180)" fill="#2b1124"/><g id="g" mix-blend-mode="multiply"><path d="M43.72,449.51c18.83-27.57,26.17-54.35-2.58-73.36-28.75-19.01-5.39-53.13-41.63-53.58V-70H349.5V449.51H43.72Z" opacity="0"/><path d="M45.46,449.51c19.55-29.79,25.85-55.71-3.54-74.48-29.39-18.77-6.18-54.06-42.42-54.51V-70H349.5V449.51H45.46Z" opacity=".05"/><path d="M47.2,449.51c20.26-32.01,25.54-57.07-4.49-75.6-30.03-18.53-6.96-54.99-43.2-55.44V-70H349.5V449.51H47.2Z" opacity=".1"/><path d="M48.94,449.51c20.98-34.23,25.22-58.42-5.44-76.72-30.66-18.29-7.75-55.92-43.99-56.37V-70H349.5V449.51H48.94Z" opacity=".14"/><path d="M50.67,449.51c21.69-36.45,24.91-59.78-6.39-77.84-31.3-18.06-8.53-56.85-44.77-57.3V-70H349.5V449.51H50.67Z" opacity=".19"/><path d="M52.41,449.51c22.41-38.68,24.59-61.14-7.35-78.95-31.94-17.82-9.32-57.77-45.56-58.23V-70H349.5V449.51H52.41Z" opacity=".24"/><path d="M54.15,449.51c23.12-40.9,24.28-62.49-8.3-80.07-32.58-17.58-10.1-58.7-46.34-59.15V-70H349.5V449.51H54.15Z" opacity=".29"/><path d="M55.89,449.51c23.84-43.12,23.97-63.85-9.25-81.19-33.22-17.34-10.89-59.63-47.13-60.08V-70H349.5V449.51H55.89Z" opacity=".33"/><path d="M57.63,449.51c24.55-45.34,23.65-65.21-10.21-82.31-33.86-17.1-11.67-60.56-47.92-61.01V-70H349.5V449.51H57.63Z" opacity=".38"/><path d="M59.36,449.51c25.27-47.56,23.34-66.56-11.16-83.43-34.5-16.86-12.46-61.49-48.7-61.94V-70H349.5V449.51H59.36Z" opacity=".43"/><path d="M61.1,449.51c25.98-49.78,23.02-67.92-12.11-84.54-35.13-16.62-13.24-62.42-49.49-62.87V-70H349.5V449.51H61.1Z" opacity=".48"/><path d="M62.84,449.51c26.69-52.01,22.71-69.28-13.06-85.66-35.77-16.38-14.03-63.35-50.27-63.8V-70H349.5V449.51H62.84Z" opacity=".52"/><path d="M64.58,449.51c27.41-54.23,22.39-70.64-14.02-86.78-36.41-16.15-14.81-64.28-51.06-64.73V-70H349.5V449.51H64.58Z" opacity=".57"/><path d="M66.32,449.51c28.12-56.45,22.08-71.99-14.97-87.9-37.05-15.91-15.6-65.21-51.84-65.66V-70H349.5V449.51H66.32Z" opacity=".62"/><path d="M68.05,449.51c28.84-58.67,21.76-73.35-15.92-89.02-37.69-15.67-16.38-66.13-52.63-66.59V-70H349.5V449.51H68.05Z" opacity=".67"/><path d="M69.79,449.51c29.55-60.89,21.45-74.71-16.88-90.13-38.33-15.43-17.17-67.06-53.41-67.52V-70H349.5V449.51H69.79Z" opacity=".71"/><path d="M71.53,449.51c30.27-63.11,21.14-76.06-17.83-91.25-38.96-15.19-17.95-67.99-54.2-68.44V-70H349.5V449.51H71.53Z" opacity=".76"/><path d="M73.27,449.51c30.98-65.33,20.82-77.42-18.78-92.37-39.6-14.95-18.74-68.92-54.98-69.37V-70H349.5V449.51H73.27Z" opacity=".81"/><path d="M75.01,449.51c31.7-67.56,20.51-78.78-19.74-93.49-40.24-14.71-19.52-69.85-55.77-70.3V-70H349.5V449.51H75.01Z" opacity=".86"/><path d="M76.75,449.51c32.41-69.78,20.19-80.13-20.69-94.61-40.88-14.47-20.31-70.78-56.55-71.23V-70H349.5V449.51H76.75Z" opacity=".9"/><path d="M78.48,449.51c33.13-72,19.88-81.49-21.64-95.73-41.52-14.23-21.1-71.71-57.34-72.16V-70H349.5V449.51H78.48Z" opacity=".95"/><path d="M80.22,449.51c33.84-74.22,19.56-82.85-22.59-96.84-42.16-14-21.88-72.64-58.12-73.09V-70H349.5V449.51H80.22Z"/></g></g><g id="h"><path id="i" d="M80.22,449.51c33.84-74.22,19.56-82.85-22.59-96.84-42.16-14-21.88-72.64-58.12-73.09V-70H349.5V449.51H80.22Z" fill="#401933"/><g id="j" mix-blend-mode="multiply" opacity=".6"><path d="M98.33,449.51c-.63-44.42,56.18-68.63,38.97-105.65-17.21-37.02-62.46,.53-85.26-49.44C29.25,244.47-.5,301.6-.5,301.6V-70H349.5V449.51H98.33Z" opacity="0"/><path d="M100.64,449.51c-.63-44.42,54.93-69.34,37.72-106.36-17.21-37.02-63.12,.25-85.92-49.72C29.64,243.47-.5,298.91-.5,298.91V-70H349.5V449.51H100.64Z" fill="#030102" opacity=".05"/><path d="M102.94,449.51c-.63-44.42,53.67-70.06,36.47-107.08-17.21-37.02-63.79-.04-86.59-50-22.8-49.96-53.32,3.78-53.32,3.78V-70H349.5V449.51H102.94Z" fill="#060205" opacity=".1"/><path d="M105.25,449.51c-.63-44.42,52.42-70.78,35.22-107.8-17.21-37.02-64.45-.32-87.25-50.28-22.8-49.96-53.71,2.09-53.71,2.09V-70H349.5V449.51H105.25Z" fill="#090407" opacity=".14"/><path d="M107.55,449.51c-.63-44.42,51.17-71.5,33.97-108.52-17.21-37.02-65.12-.6-87.92-50.56-22.8-49.96-54.1,.39-54.1,.39V-70H349.5V449.51H107.55Z" fill="#0c050a" opacity=".19"/><path d="M109.85,449.51c-.63-44.42,49.92-72.22,32.72-109.24-17.21-37.02-65.78-.88-88.58-50.84-22.8-49.96-54.48-1.3-54.48-1.3V-70H349.5V449.51H109.85Z" fill="#0f060c" opacity=".24"/><path d="M112.16,449.51c-.63-44.42,48.67-72.93,31.46-109.95-17.21-37.02-66.45-1.16-89.25-51.13-22.8-49.96-54.87-3-54.87-3V-70H349.5V449.51H112.16Z" fill="#12070f" opacity=".29"/><path d="M114.46,449.51c-.63-44.42,47.42-73.65,30.21-110.67-17.21-37.02-67.11-1.44-89.91-51.41C31.97,237.47-.5,282.73-.5,282.73V-70H349.5V449.51H114.46Z" fill="#150811" opacity=".33"/><path d="M116.77,449.51c-.63-44.42,46.17-74.37,28.96-111.39-17.21-37.02-67.77-1.73-90.57-51.69-22.8-49.96-55.65-6.39-55.65-6.39V-70H349.5V449.51H116.77Z" fill="#180a13" opacity=".38"/><path d="M119.07,449.51c-.63-44.42,44.92-75.09,27.71-112.11-17.21-37.02-68.44-2.01-91.24-51.97C32.74,235.47-.5,277.34-.5,277.34V-70H349.5V449.51H119.07Z" fill="#1b0b16" opacity=".43"/><path d="M121.37,449.51c-.63-44.42,43.67-75.8,26.46-112.83-17.21-37.02-69.1-2.29-91.9-52.25C33.13,234.47-.5,274.65-.5,274.65V-70H349.5V449.51H121.37Z" fill="#1e0c18" opacity=".48"/><path d="M123.68,449.51c-.63-44.42,42.42-76.52,25.21-113.54-17.21-37.02-69.77-2.57-92.57-52.53C33.52,233.47-.5,271.95-.5,271.95V-70H349.5V449.51H123.68Z" fill="#220d1b" opacity=".52"/><path d="M125.98,449.51c-.63-44.42,41.17-77.24,23.96-114.26-17.21-37.02-70.43-2.85-93.23-52.82C33.91,232.47-.5,269.26-.5,269.26V-70H349.5V449.51H125.98Z" fill="#250e1d" opacity=".57"/><path d="M128.29,449.51c-.63-44.42,39.92-77.96,22.71-114.98-17.21-37.02-71.1-3.13-93.9-53.1C34.3,231.47-.5,266.56-.5,266.56V-70H349.5V449.51H128.29Z" fill="#280f20" opacity=".62"/><path d="M130.59,449.51c-.63-44.42,38.66-78.68,21.46-115.7-17.21-37.02-71.76-3.42-94.56-53.38C34.69,230.47-.5,263.87-.5,263.87V-70H349.5V449.51H130.59Z" fill="#2b1122" opacity=".67"/><path d="M132.89,449.51c-.63-44.42,37.41-79.39,20.21-116.41-17.21-37.02-72.43-3.7-95.22-53.66C35.08,229.47-.5,261.17-.5,261.17V-70H349.5V449.51H132.89Z" fill="#2e1224" opacity=".71"/><path d="M135.2,449.51c-.63-44.42,36.16-80.11,18.96-117.13-17.21-37.02-73.09-3.98-95.89-53.94C35.47,228.47-.5,258.47-.5,258.47V-70H349.5V449.51H135.2Z" fill="#311327" opacity=".76"/><path d="M137.5,449.51c-.63-44.42,34.91-80.83,17.71-117.85-17.21-37.02-73.75-4.26-96.55-54.22C35.85,227.47-.5,255.78-.5,255.78V-70H349.5V449.51H137.5Z" fill="#341429" opacity=".81"/><path d="M139.81,449.51c-.63-44.42,33.66-81.55,16.45-118.57-17.21-37.02-74.42-4.54-97.22-54.51C36.24,226.47-.5,253.08-.5,253.08V-70H349.5V449.51H139.81Z" fill="#37152c" opacity=".86"/><path d="M142.11,449.51c-.63-44.42,32.41-82.27,15.2-119.29-17.21-37.02-75.08-4.82-97.88-54.79C36.63,225.47-.5,250.39-.5,250.39V-70H349.5V449.51H142.11Z" fill="#3a172e" opacity=".9"/><path d="M144.41,449.51c-.63-44.42,31.16-82.98,13.95-120-17.21-37.02-75.75-5.11-98.55-55.07C37.02,224.47-.5,247.69-.5,247.69V-70H349.5V449.51H144.41Z" fill="#3d1831" opacity=".95"/><path d="M146.72,449.51c-.63-44.42,29.91-83.7,12.7-120.72-17.21-37.02-76.41-5.39-99.21-55.35C37.41,223.47-.5,245-.5,245V-70H349.5V449.51H146.72Z" fill="#401933"/></g></g><g id="k"><path id="l" d="M146.72,449.51c-.63-44.42,29.91-83.7,12.7-120.72-17.21-37.02-76.41-5.39-99.21-55.35C37.41,223.47-.5,245-.5,245V-70H349.5V449.51H146.72Z" fill="#803366"/><g id="m" mix-blend-mode="multiply" opacity=".6"><path d="M150.58,449.51c29.68-37.2,42.47-61.13,23.92-93.18-18.55-32.05-32.64,.64-61.9-42.7-29.25-43.34-2.67-83.7-40.84-95.66-38.16-11.96-44.63,45.06-72.27,45.06V-70H349.5V449.51H150.58Z" fill="#803366" opacity="0"/><path d="M152.86,449.51c29.68-37.2,42.01-61.13,23.46-93.18-18.55-32.05-33.03-.72-62.28-44.06-29.25-43.34-3.47-83.57-41.63-95.54-38.16-11.96-45.27,43.99-72.91,43.99V-70H349.5V449.51H152.86Z" fill="#803366" opacity=".05"/><path d="M155.14,449.51c29.68-37.2,41.55-61.13,23-93.18-18.55-32.05-33.41-2.08-62.66-45.43-29.25-43.34-4.26-83.45-42.42-95.41-38.16-11.96-45.92,42.92-73.56,42.92V-70H349.5V449.51H155.14Z" fill="#803366" opacity=".1"/><path d="M157.42,449.51c29.68-37.2,41.09-61.13,22.54-93.18-18.55-32.05-33.79-3.45-63.04-46.79-29.25-43.34-5.06-83.32-43.22-95.29-38.16-11.96-46.56,41.84-74.2,41.84V-70H349.5V449.51H157.42Z" fill="#803366" opacity=".14"/><path d="M159.7,449.51c29.68-37.2,40.63-61.13,22.08-93.18-18.55-32.05-34.17-4.81-63.42-48.15-29.25-43.34-5.85-83.2-44.01-95.16C36.19,201.05,27.14,253.79-.5,253.79V-70H349.5V449.51H159.7Z" fill="#803366" opacity=".19"/><path d="M161.98,449.51c29.68-37.2,40.17-61.13,21.62-93.18-18.55-32.05-34.55-6.17-63.8-49.52-29.25-43.34-6.64-83.08-44.81-95.04C36.83,199.81,27.14,251.48-.5,251.48V-70H349.5V449.51H161.98Z" fill="#803366" opacity=".24"/><path d="M164.27,449.51c29.68-37.2,39.71-61.13,21.16-93.18-18.55-32.05-34.93-7.54-64.18-50.88-29.25-43.34-7.44-82.95-45.6-94.91C37.48,198.57,27.14,249.17-.5,249.17V-70H349.5V449.51H164.27Z" fill="#803366" opacity=".29"/><path d="M166.55,449.51c29.68-37.2,39.25-61.13,20.7-93.18-18.55-32.05-35.31-8.9-64.56-52.24-29.25-43.34-8.23-82.83-46.4-94.79C38.12,197.33,27.14,246.86-.5,246.86V-70H349.5V449.51H166.55Z" fill="#803366" opacity=".33"/><path d="M168.83,449.51c29.68-37.2,38.79-61.13,20.24-93.18-18.55-32.05-35.69-10.27-64.94-53.61-29.25-43.34-9.03-82.7-47.19-94.67C38.77,196.09,27.14,244.55-.5,244.55V-70H349.5V449.51H168.83Z" fill="#803366" opacity=".38"/><path d="M171.11,449.51c29.68-37.2,38.33-61.13,19.78-93.18-18.55-32.05-36.07-11.63-65.32-54.97-29.25-43.34-9.82-82.58-47.98-94.54C39.41,194.85,27.14,242.24-.5,242.24V-70H349.5V449.51H171.11Z" fill="#803366" opacity=".43"/><path d="M173.39,449.51c29.68-37.2,37.87-61.13,19.32-93.18-18.55-32.05-36.45-12.99-65.71-56.33s-10.61-82.45-48.78-94.42C40.05,193.61,27.14,239.93-.5,239.93V-70H349.5V449.51H173.39Z" fill="#803366" opacity=".48"/><path d="M175.67,449.51c29.68-37.2,37.41-61.13,18.85-93.18-18.55-32.05-36.84-14.36-66.09-57.7-29.25-43.34-11.41-82.33-49.57-94.29C40.7,192.38,27.14,237.62-.5,237.62V-70H349.5V449.51H175.67Z" fill="#803366" opacity=".52"/><path d="M177.95,449.51c29.68-37.2,36.95-61.13,18.39-93.18-18.55-32.05-37.22-15.72-66.47-59.06-29.25-43.34-12.2-82.2-50.37-94.17C41.34,191.14,27.14,235.31-.5,235.31V-70H349.5V449.51H177.95Z" fill="#803366" opacity=".57"/><path d="M180.23,449.51c29.68-37.2,36.49-61.13,17.93-93.18-18.55-32.05-37.6-17.08-66.85-60.42s-13-82.08-51.16-94.04c-38.16-11.96-53.01,31.14-80.65,31.14V-70H349.5V449.51H180.23Z" fill="#803366" opacity=".62"/><path d="M182.51,449.51c29.68-37.2,36.02-61.13,17.47-93.18-18.55-32.05-37.98-18.45-67.23-61.79s-13.79-81.95-51.95-93.92c-38.16-11.96-53.65,30.07-81.29,30.07V-70H349.5V449.51H182.51Z" fill="#803366" opacity=".67"/><path d="M184.79,449.51c29.68-37.2,35.56-61.13,17.01-93.18-18.55-32.05-38.36-19.81-67.61-63.15-29.25-43.34-14.59-81.83-52.75-93.79-38.16-11.96-54.3,29-81.94,29V-70H349.5V449.51H184.79Z" fill="#803366" opacity=".71"/><path d="M187.07,449.51c29.68-37.2,35.1-61.13,16.55-93.18-18.55-32.05-38.74-21.17-67.99-64.51s-15.38-81.7-53.54-93.67c-38.16-11.96-54.94,27.93-82.58,27.93V-70H349.5V449.51H187.07Z" fill="#803366" opacity=".76"/><path d="M189.35,449.51c29.68-37.2,34.64-61.13,16.09-93.18-18.55-32.05-39.12-22.54-68.37-65.88-29.25-43.34-16.17-81.58-54.34-93.54-38.16-11.96-55.59,26.86-83.23,26.86V-70H349.5V449.51H189.35Z" fill="#803366" opacity=".81"/><path d="M191.63,449.51c29.68-37.2,34.18-61.13,15.63-93.18-18.55-32.05-39.5-23.9-68.75-67.24-29.25-43.34-16.97-81.46-55.13-93.42-38.16-11.96-56.23,25.79-83.87,25.79V-70H349.5V449.51H191.63Z" fill="#803366" opacity=".86"/><path d="M193.91,449.51c29.68-37.2,33.72-61.13,15.17-93.18-18.55-32.05-39.88-25.26-69.13-68.61-29.25-43.34-17.76-81.33-55.93-93.29-38.16-11.96-56.87,24.71-84.51,24.71V-70H349.5V449.51H193.91Z" fill="#803366" opacity=".9"/><path d="M196.19,449.51c29.68-37.2,33.26-61.13,14.71-93.18-18.55-32.05-40.26-26.63-69.52-69.97-29.25-43.34-18.56-81.21-56.72-93.17-38.16-11.96-57.52,23.64-85.16,23.64V-70H349.5V449.51H196.19Z" fill="#803366" opacity=".95"/><path d="M198.47,449.51c29.68-37.2,32.8-61.13,14.25-93.18-18.55-32.05-40.65-27.99-69.9-71.33-29.25-43.34-19.35-81.08-57.51-93.05-38.16-11.96-58.16,22.57-85.8,22.57V-70H349.5V449.51H198.47Z" fill="#803366"/></g></g><g id="n"><path id="o" d="M198.47,449.51c29.68-37.2,32.8-61.13,14.25-93.18-18.55-32.05-40.65-27.99-69.9-71.33-29.25-43.34-19.35-81.08-57.51-93.05-38.16-11.96-58.16,22.57-85.8,22.57V-70H349.5V449.51H198.47Z" fill="#bf4d99"/><g id="p" mix-blend-mode="multiply" opacity=".6"><path d="M223.57,449.51c24.09-67-9.65-81.74-33.74-114.85-24.09-33.11-13.67-50.61-48.86-72.24-35.19-21.63-50,7.12-80.49-4.51S39.83,221.04-.5,224.95V-70H349.5V449.51h-125.94Z" fill="#401933" opacity="0"/><path d="M226.11,449.51c24.09-67-10.19-81.74-34.28-114.85-24.09-33.11-14.58-51.89-49.77-73.52-35.19-21.63-50.31,6.89-80.64-4.78-30.32-11.68-20.3-37.55-61.92-33.56V-70H349.5V449.51h-123.4Z" fill="#471a38" opacity=".05"/><path d="M228.64,449.51c24.09-67-10.74-81.74-34.83-114.85-24.09-33.11-15.49-53.17-50.68-74.8-35.19-21.63-50.62,6.67-80.78-5.05-30.16-11.73-19.96-38.23-62.86-34.16V-70H349.5V449.51h-120.86Z" fill="#4d1b3d" opacity=".1"/><path d="M231.18,449.51c24.09-67-11.28-81.74-35.37-114.85-24.09-33.11-16.4-54.45-51.59-76.08-35.19-21.63-50.93,6.45-80.92-5.32S43.68,214.34-.5,218.49V-70H349.5V449.51h-118.32Z" fill="#541d42" opacity=".14"/><path d="M233.72,449.51c24.09-67-11.83-81.74-35.91-114.85-24.09-33.11-17.31-55.73-52.5-77.36-35.19-21.63-51.25,6.23-81.06-5.59-29.82-11.82-19.27-39.59-64.74-35.37V-70H349.5V449.51h-115.79Z" fill="#5b1e46" opacity=".19"/><path d="M236.26,449.51c24.09-67-12.37-81.74-36.46-114.85-24.09-33.11-18.22-57.01-53.41-78.64s-51.56,6.01-81.21-5.86c-29.65-11.87-18.93-40.27-65.68-35.97V-70H349.5V449.51h-113.25Z" fill="#611f4b" opacity=".24"/><path d="M238.79,449.51c24.09-67-12.91-81.74-37-114.85-24.09-33.11-19.13-58.3-54.32-79.92-35.19-21.63-51.87,5.79-81.35-6.13-29.48-11.92-18.59-40.95-66.62-36.57V-70H349.5V449.51h-110.71Z" fill="#682050" opacity=".29"/><path d="M241.33,449.51c24.09-67-13.46-81.74-37.55-114.85-24.09-33.11-20.04-59.58-55.23-81.2-35.19-21.63-52.18,5.57-81.49-6.4-29.31-11.97-18.24-41.64-67.56-37.17V-70H349.5V449.51h-108.17Z" fill="#6f2255" opacity=".33"/><path d="M243.87,449.51c24.09-67-14-81.74-38.09-114.85-24.09-33.11-20.95-60.86-56.14-82.49-35.19-21.63-52.49,5.35-81.64-6.66-29.15-12.02-17.9-42.32-68.5-37.77V-70H349.5V449.51h-105.64Z" fill="#75235a" opacity=".38"/><path d="M246.41,449.51c24.09-67-14.55-81.74-38.64-114.85-24.09-33.11-21.86-62.14-57.05-83.77-35.19-21.63-52.8,5.13-81.78-6.93S51.38,200.96-.5,205.58V-70H349.5V449.51h-103.1Z" fill="#7c245f" opacity=".43"/><path d="M248.94,449.51c24.09-67-15.09-81.74-39.18-114.85-24.09-33.11-22.77-63.42-57.96-85.05s-53.12,4.91-81.92-7.2c-28.81-12.11-17.21-43.68-70.38-38.98V-70H349.5V449.51h-100.56Z" fill="#832564" opacity=".48"/><path d="M251.48,449.51c24.09-67-15.64-81.74-39.72-114.85-24.09-33.11-23.68-64.7-58.87-86.33s-53.43,4.69-82.07-7.47S53.95,196.5-.5,201.28V-70H349.5V449.51h-98.02Z" fill="#892768" opacity=".52"/><path d="M254.02,449.51c24.09-67-16.18-81.74-40.27-114.85-24.09-33.11-24.59-65.98-59.78-87.61-35.19-21.63-53.74,4.47-82.21-7.74-28.47-12.21-16.52-45.04-72.26-40.18V-70H349.5V449.51h-95.49Z" fill="#90286d" opacity=".57"/><path d="M256.56,449.51c24.09-67-16.72-81.74-40.81-114.85-24.09-33.11-25.5-67.26-60.69-88.89-35.19-21.63-54.05,4.25-82.35-8.01-28.3-12.26-16.18-45.72-73.2-40.78V-70H349.5V449.51h-92.95Z" fill="#972972" opacity=".62"/><path d="M259.09,449.51c24.09-67-17.27-81.74-41.36-114.85-24.09-33.11-26.41-68.55-61.6-90.17-35.19-21.63-54.36,4.03-82.5-8.28-28.14-12.3-15.84-46.4-74.14-41.38V-70H349.5V449.51h-90.41Z" fill="#9d2a77" opacity=".67"/><path d="M261.63,449.51c24.09-67-17.81-81.74-41.9-114.85-24.09-33.11-27.32-69.83-62.51-91.45-35.19-21.63-54.67,3.81-82.64-8.55-27.97-12.35-15.49-47.08-75.08-41.99V-70H349.5V449.51h-87.87Z" fill="#a42c7c" opacity=".71"/><path d="M264.17,449.51c24.09-67-18.36-81.74-42.45-114.85-24.09-33.11-28.23-71.11-63.42-92.74-35.19-21.63-54.99,3.59-82.78-8.81-27.8-12.4-15.15-47.76-76.02-42.59V-70H349.5V449.51h-85.34Z" fill="#ab2d81" opacity=".76"/><path d="M266.71,449.51c24.09-67-18.9-81.74-42.99-114.85-24.09-33.11-29.14-72.39-64.33-94.02-35.19-21.63-55.3,3.37-82.93-9.08-27.63-12.45-14.81-48.44-76.96-43.19V-70H349.5V449.51h-82.8Z" fill="#b12e86" opacity=".81"/><path d="M269.24,449.51c24.09-67-19.45-81.74-43.54-114.85-24.09-33.11-30.05-73.67-65.24-95.3-35.19-21.63-55.61,3.15-83.07-9.35-27.46-12.5-14.46-49.12-77.9-43.79V-70H349.5V449.51h-80.26Z" fill="#b82f8a" opacity=".86"/><path d="M271.78,449.51c24.09-67-19.99-81.74-44.08-114.85-24.09-33.11-30.96-74.95-66.15-96.58-35.19-21.63-55.92,2.92-83.21-9.62-27.29-12.54-14.12-49.81-78.84-44.39V-70H349.5V449.51h-77.72Z" fill="#bf318f" opacity=".9"/><path d="M274.32,449.51c24.09-67-20.53-81.74-44.62-114.85-24.09-33.11-31.87-76.23-67.06-97.86-35.19-21.63-56.23,2.7-83.36-9.89-27.13-12.59-13.78-50.49-79.78-45V-70H349.5V449.51h-75.19Z" fill="#c53294" opacity=".95"/><path d="M276.86,449.51c24.09-67-21.08-81.74-45.17-114.85-24.09-33.11-32.78-77.51-67.97-99.14-35.19-21.63-56.54,2.48-83.5-10.16-26.96-12.64-13.43-51.17-80.72-45.6V-70H349.5V449.51h-72.65Z" fill="#c39"/></g></g><g id="q"><path id="r" d="M276.86,449.51c24.09-67-21.08-81.74-45.17-114.85-24.09-33.11-32.78-77.51-67.97-99.14-35.19-21.63-56.54,2.48-83.5-10.16-26.96-12.64-13.43-51.17-80.72-45.6V-70H349.5V449.51h-72.65Z" fill="#f6c"/><g id="s" mix-blend-mode="multiply" opacity=".6"><path d="M303.1,449.51c6.02-56.16-22.97-33.57-52.59-83.24-29.63-49.66-2.19-100.67-36.07-116.02-33.88-15.35-53.8,9.97-98.29-9.01C71.66,222.26,78.33,174.86-.5,189.76V-70H349.5V449.51h-46.41Z" fill="#402640" opacity="0"/><path d="M304.18,449.51c6.35-57.13-23.39-35.57-53.02-85.24-29.63-49.66-2.85-101.12-36.73-116.47s-53.8,9.97-98.29-9.01C71.66,219.81,78.33,172.4-.5,187.3V-70H349.5V449.51h-45.32Z" fill="#432742" opacity=".05"/><path d="M305.27,449.51c6.68-58.1-23.81-37.57-53.44-87.24-29.63-49.66-3.51-101.57-37.4-116.92-33.88-15.35-53.8,9.97-98.29-9.01C71.66,217.36,78.33,169.95-.5,184.85V-70H349.5V449.51h-44.24Z" fill="#462744" opacity=".1"/><path d="M306.35,449.51c7.01-59.06-24.23-39.57-53.86-89.24-29.63-49.66-4.18-102.03-38.06-117.38-33.88-15.35-53.8,9.97-98.29-9.01C71.66,214.91,78.33,167.5-.5,182.4V-70H349.5V449.51h-43.15Z" fill="#492845" opacity=".14"/><path d="M307.44,449.51c7.33-60.03-24.66-41.57-54.28-91.24-29.63-49.66-4.84-102.48-38.72-117.83-33.88-15.35-53.8,9.97-98.29-9.01C71.66,212.45,78.33,165.05-.5,179.95V-70H349.5V449.51h-42.07Z" fill="#4c2847" opacity=".19"/><path d="M308.52,449.51c7.66-61-25.08-43.57-54.7-93.24-29.63-49.66-5.5-102.93-39.39-118.28s-53.8,9.97-98.29-9.01C71.66,210,78.33,162.6-.5,177.5V-70H349.5V449.51h-40.98Z" fill="#4f2949" opacity=".24"/><path d="M309.61,449.51c7.99-61.97-25.5-45.57-55.13-95.24-29.63-49.66-6.17-103.38-40.05-118.73-33.88-15.35-53.8,9.97-98.29-9.01C71.66,207.55,78.33,160.15-.5,175.04V-70H349.5V449.51h-39.89Z" fill="#522a4b" opacity=".29"/><path d="M310.7,449.51c8.32-62.93-25.92-47.57-55.55-97.24-29.63-49.66-6.83-103.83-40.71-119.18-33.88-15.35-53.8,9.97-98.29-9.01C71.66,205.1,78.33,157.69-.5,172.59V-70H349.5V449.51h-38.81Z" fill="#552a4d" opacity=".33"/><path d="M311.78,449.51c8.64-63.9-26.35-49.57-55.97-99.24-29.63-49.66-7.49-104.29-41.38-119.64-33.88-15.35-53.8,9.97-98.29-9.01C71.66,202.65,78.33,155.24-.5,170.14V-70H349.5V449.51h-37.72Z" fill="#582b4e" opacity=".38"/><path d="M312.87,449.51c8.97-64.87-26.77-51.57-56.39-101.24-29.63-49.66-8.16-104.74-42.04-120.09-33.88-15.35-53.8,9.97-98.29-9.01C71.66,200.19,78.33,152.79-.5,167.69V-70H349.5V449.51h-36.64Z" fill="#5b2c50" opacity=".43"/><path d="M313.95,449.51c9.3-65.84-27.19-53.57-56.82-103.24-29.63-49.66-8.82-105.19-42.71-120.54s-53.8,9.97-98.29-9.01C71.66,197.74,78.33,150.34-.5,165.24V-70H349.5V449.51h-35.55Z" fill="#5e2c52" opacity=".48"/><path d="M315.04,449.51c9.63-66.8-27.61-55.57-57.24-105.24-29.63-49.66-9.48-105.64-43.37-120.99-33.88-15.35-53.8,9.97-98.29-9.01C71.66,195.29,78.33,147.89-.5,162.79V-70H349.5V449.51h-34.47Z" fill="#622d54" opacity=".52"/><path d="M316.12,449.51c9.96-67.77-28.03-57.57-57.66-107.24-29.63-49.66-10.15-106.09-44.03-121.44-33.88-15.35-53.8,9.97-98.29-9.01C71.66,192.84,78.33,145.44-.5,160.33V-70H349.5V449.51h-33.38Z" fill="#652d56" opacity=".57"/><path d="M317.21,449.51c10.28-68.74-28.46-59.57-58.08-109.24-29.63-49.66-10.81-106.54-44.7-121.89-33.88-15.35-53.8,9.97-98.29-9.01C71.66,190.39,78.33,142.98-.5,157.88V-70H349.5V449.51h-32.29Z" fill="#682e58" opacity=".62"/><path d="M318.3,449.51c10.61-69.71-28.88-61.57-58.5-111.24-29.63-49.66-11.48-107-45.36-122.35-33.88-15.35-53.8,9.97-98.29-9.01C71.66,187.94,78.33,140.53-.5,155.43V-70H349.5V449.51h-31.21Z" fill="#6b2f59" opacity=".67"/><path d="M319.38,449.51c10.94-70.67-29.3-63.57-58.93-113.24-29.63-49.66-12.14-107.45-46.02-122.8-33.88-15.35-53.8,9.97-98.29-9.01C71.66,185.48,78.33,138.08-.5,152.98V-70H349.5V449.51h-30.12Z" fill="#6e2f5b" opacity=".71"/><path d="M320.47,449.51c11.27-71.64-29.72-65.57-59.35-115.24-29.63-49.66-12.8-107.9-46.69-123.25-33.88-15.35-53.8,9.97-98.29-9.01C71.66,183.03,78.33,135.63-.5,150.53V-70H349.5V449.51h-29.04Z" fill="#71305d" opacity=".76"/><path d="M321.55,449.51c11.59-72.61-30.14-67.57-59.77-117.24-29.63-49.66-13.47-108.35-47.35-123.7-33.88-15.35-53.8,9.97-98.29-9.01C71.66,180.58,78.33,133.18-.5,148.07V-70H349.5V449.51h-27.95Z" fill="#74315f" opacity=".81"/><path d="M322.64,449.51c11.92-73.58-30.57-69.57-60.19-119.24-29.63-49.66-14.13-108.8-48.01-124.15-33.88-15.35-53.8,9.97-98.29-9.01C71.66,178.13,78.33,130.72-.5,145.62V-70H349.5V449.51h-26.87Z" fill="#773161" opacity=".86"/><path d="M323.72,449.51c12.25-74.54-30.99-71.57-60.61-121.24-29.63-49.66-14.79-109.26-48.68-124.61-33.88-15.35-53.8,9.97-98.29-9.01C71.66,175.68,78.33,128.27-.5,143.17V-70H349.5V449.51h-25.78Z" fill="#7a3262" opacity=".9"/><path d="M324.81,449.51c12.58-75.51-31.41-73.57-61.04-123.24-29.63-49.66-15.46-109.71-49.34-125.06-33.88-15.35-53.8,9.97-98.29-9.01C71.66,173.23,78.33,125.82-.5,140.72V-70H349.5V449.51h-24.69Z" fill="#7d3264" opacity=".95"/><path d="M325.9,449.51c12.91-76.48-31.83-75.57-61.46-125.24-29.63-49.66-16.12-110.16-50-125.51-33.88-15.35-53.8,9.97-98.29-9.01C71.66,170.77,78.33,123.37-.5,138.27V-70H349.5V449.51h-23.61Z" fill="#803366"/></g></g><g id="t"><path id="u" d="M325.9,449.51c12.91-76.48-31.83-75.57-61.46-125.24-29.63-49.66-16.12-110.16-50-125.51-33.88-15.35-53.8,9.97-98.29-9.01C71.66,170.77,78.33,123.37-.5,138.27V-70H349.5V449.51h-23.61Z" fill="#f6c"/><g id="v" mix-blend-mode="multiply" opacity=".6"><path d="M349.5,442.11c-59.31-26.64-25.12-122.8-71.79-161.63-46.67-38.83-77-24.38-121.31-50.11C112.1,204.63,110.38,105.76-.5,161.29V-70H349.5V442.11Z" fill="#c6c" opacity="0"/><path d="M349.5,438.93c-59.31-26.64-25.12-122.8-71.79-161.63-46.67-38.83-77-24.38-121.31-50.11C112.1,201.45,110.38,102.58-.5,158.11V-70H349.5V438.93Z" fill="#cb67cb" opacity=".05"/><path d="M349.5,435.74c-59.31-26.64-25.12-122.8-71.79-161.63-46.67-38.83-77-24.38-121.31-50.11C112.1,198.27,110.38,99.4-.5,154.93V-70H349.5V435.74Z" fill="#cb67cb" opacity=".1"/><path d="M349.5,432.56c-59.31-26.64-25.12-122.8-71.79-161.63-46.67-38.83-77-24.38-121.31-50.11S110.38,96.22-.5,151.75V-70H349.5V432.56Z" fill="#ca68ca" opacity=".14"/><path d="M349.5,429.38c-59.31-26.64-25.12-122.8-71.79-161.63-46.67-38.83-77-24.38-121.31-50.11S110.38,93.03-.5,148.57V-70H349.5V429.38Z" fill="#ca68ca" opacity=".19"/><path d="M349.5,426.2c-59.31-26.64-25.12-122.8-71.79-161.63-46.67-38.83-77-24.38-121.31-50.11C112.1,188.72,110.38,89.85-.5,145.38V-70H349.5V426.2Z" fill="#c969c9" opacity=".24"/><path d="M349.5,423.02c-59.31-26.64-25.12-122.8-71.79-161.63-46.67-38.83-77-24.38-121.31-50.11C112.1,185.54,110.38,86.67-.5,142.2V-70H349.5V423.02Z" fill="#c86ac8" opacity=".29"/><path d="M349.5,419.83c-59.31-26.64-25.12-122.8-71.79-161.63-46.67-38.83-77-24.38-121.31-50.11S110.38,83.49-.5,139.02V-70H349.5V419.83Z" fill="#c86ac8" opacity=".33"/><path d="M349.5,416.65c-59.31-26.64-25.12-122.8-71.79-161.63-46.67-38.83-77-24.38-121.31-50.11C112.1,179.18,110.38,80.31-.5,135.84V-70H349.5V416.65Z" fill="#c76bc7" opacity=".38"/><path d="M349.5,413.47c-59.31-26.64-25.12-122.8-71.79-161.63-46.67-38.83-77-24.38-121.31-50.11S110.38,77.13-.5,132.66V-70H349.5V413.47Z" fill="#c66cc6" opacity=".43"/><path d="M349.5,410.29c-59.31-26.64-25.12-122.8-71.79-161.63-46.67-38.83-77-24.38-121.31-50.11C112.1,172.82,110.38,73.94-.5,129.47V-70H349.5V410.29Z" fill="#c66cc6" opacity=".48"/><path d="M349.5,407.11c-59.31-26.64-25.12-122.8-71.79-161.63-46.67-38.83-77-24.38-121.31-50.11S110.38,70.76-.5,126.29V-70H349.5V407.11Z" fill="#c56dc5" opacity=".52"/><path d="M349.5,403.93c-59.31-26.64-25.12-122.8-71.79-161.63-46.67-38.83-77-24.38-121.31-50.11C112.1,166.45,110.38,67.58-.5,123.11V-70H349.5V403.93Z" fill="#c56dc5" opacity=".57"/><path d="M349.5,400.74c-59.31-26.64-25.12-122.8-71.79-161.63-46.67-38.83-77-24.38-121.31-50.11C112.1,163.27,110.38,64.4-.5,119.93V-70H349.5V400.74Z" fill="#c46ec4" opacity=".62"/><path d="M349.5,397.56c-59.31-26.64-25.12-122.8-71.79-161.63-46.67-38.83-77-24.38-121.31-50.11C112.1,160.09,110.38,61.22-.5,116.75V-70H349.5V397.56Z" fill="#c36fc3" opacity=".67"/><path d="M349.5,394.38c-59.31-26.64-25.12-122.8-71.79-161.63-46.67-38.83-77-24.38-121.31-50.11C112.1,156.91,110.38,58.03-.5,113.57V-70H349.5V394.38Z" fill="#c36fc3" opacity=".71"/><path d="M349.5,391.2c-59.31-26.64-25.12-122.8-71.79-161.63-46.67-38.83-77-24.38-121.31-50.11C112.1,153.72,110.38,54.85-.5,110.38V-70H349.5V391.2Z" fill="#c270c2" opacity=".76"/><path d="M349.5,388.02c-59.31-26.64-25.12-122.8-71.79-161.63-46.67-38.83-77-24.38-121.31-50.11C112.1,150.54,110.38,51.67-.5,107.2V-70H349.5V388.02Z" fill="#c171c1" opacity=".81"/><path d="M349.5,384.83c-59.31-26.64-25.12-122.8-71.79-161.63-46.67-38.83-77-24.38-121.31-50.11C112.1,147.36,110.38,48.49-.5,104.02V-70H349.5V384.83Z" fill="#c171c1" opacity=".86"/><path d="M349.5,381.65c-59.31-26.64-25.12-122.8-71.79-161.63-46.67-38.83-77-24.38-121.31-50.11C112.1,144.18,110.38,45.31-.5,100.84V-70H349.5V381.65Z" fill="#c072c0" opacity=".9"/><path d="M349.5,378.47c-59.31-26.64-25.12-122.8-71.79-161.63-46.67-38.83-77-24.38-121.31-50.11C112.1,141,110.38,42.13-.5,97.66V-70H349.5V378.47Z" fill="#c072c0" opacity=".95"/><path d="M349.5,375.29c-59.31-26.64-25.12-122.8-71.79-161.63-46.67-38.83-77-24.38-121.31-50.11C112.1,137.82,110.38,38.94-.5,94.47V-70H349.5V375.29Z" fill="#bf73bf"/></g></g><g id="w"><path id="x" d="M349.5,375.29c-59.31-26.64-25.12-122.8-71.79-161.63-46.67-38.83-77-24.38-121.31-50.11C112.1,137.82,110.38,38.94-.5,94.47V-70H349.5V375.29Z" fill="#f9f"/><g id="y" mix-blend-mode="multiply" opacity=".6"><path d="M349.5,398.71c-30.06-26.08-18.19-123.28-54.05-184.87-35.86-61.59-128.46-14.81-157.82-71.97-29.37-57.15-10.56-118.19-62.7-123.06C22.79,13.96-.5,72.99-.5,72.99V-70H349.5V398.71Z" fill="#ffbdec" opacity="0"/><path d="M349.5,394.55c-30.06-25.85-17.46-121.41-53.32-182.46-35.86-61.05-126.49-15.83-155.85-72.47-29.37-56.65-12.1-117.3-64.78-122.39C22.94,12.16-.5,71.16-.5,71.16V-70H349.5V394.55Z" fill="#ffb9ea" opacity=".05"/><path d="M349.5,390.39c-30.06-25.62-16.73-119.55-52.59-180.05-35.86-60.5-124.52-16.84-153.88-72.98-29.37-56.14-13.64-116.41-66.87-121.72C23.1,10.36-.5,69.32-.5,69.32V-70H349.5V390.39Z" fill="#ffb5e9" opacity=".1"/><path d="M349.5,386.24c-30.06-25.39-15.99-117.69-51.86-177.64-35.86-59.95-122.55-17.86-151.91-73.49-29.37-55.63-15.18-115.53-68.95-121.05C23.25,8.56-.5,67.49-.5,67.49V-70H349.5V386.24Z" fill="#ffb1e7" opacity=".14"/><path d="M349.5,382.08c-30.06-25.15-15.26-115.82-51.12-175.23-35.86-59.41-120.58-18.87-149.94-74-29.37-55.12-16.71-114.64-71.04-120.39C23.41,6.76-.5,65.65-.5,65.65V-70H349.5V382.08Z" fill="#fface6" opacity=".19"/><path d="M349.5,377.92c-30.06-24.92-14.53-113.96-50.39-172.82s-118.61-19.89-147.98-74.5c-29.37-54.62-18.25-113.75-73.12-119.72C23.57,4.96-.5,63.81-.5,63.81V-70H349.5V377.92Z" fill="#ffa8e4" opacity=".24"/><path d="M349.5,373.76c-30.06-24.69-13.79-112.1-49.66-170.41s-116.64-20.9-146.01-75.01C124.48,74.23,134.05,15.48,78.63,9.28,23.72,3.17-.5,61.98-.5,61.98V-70H349.5V373.76Z" fill="#ffa4e3" opacity=".29"/><path d="M349.5,369.6c-30.06-24.46-13.06-110.23-48.92-168-35.86-57.77-114.67-21.92-144.04-75.52C127.18,72.48,135.21,14.11,79.25,7.7,23.88,1.37-.5,60.14-.5,60.14V-70H349.5V369.6Z" fill="#ffa0e1" opacity=".33"/><path d="M349.5,365.44c-30.06-24.23-12.33-108.37-48.19-165.59s-112.7-22.93-142.07-76.03C129.88,70.72,136.38,12.74,79.87,6.11,24.04-.43-.5,58.3-.5,58.3V-70H349.5V365.44Z" fill="#ff9ce0" opacity=".38"/><path d="M349.5,361.28c-30.06-24-11.6-106.51-47.46-163.18s-110.73-23.94-140.1-76.53C132.58,68.97,137.54,11.38,80.49,4.52,24.19-2.23-.5,56.47-.5,56.47V-70H349.5V361.28Z" fill="#ff98de" opacity=".43"/><path d="M349.5,357.12c-30.06-23.77-10.86-104.65-46.73-160.77-35.86-56.13-108.76-24.96-138.13-77.04C135.29,67.22,138.7,10.01,81.11,2.93,24.35-4.03-.5,54.63-.5,54.63V-70H349.5V357.12Z" fill="#ff94dd" opacity=".48"/><path d="M349.5,352.96c-30.06-23.53-10.13-102.78-45.99-158.36-35.86-55.58-106.79-25.97-136.16-77.55C137.99,65.47,139.86,8.64,81.72,1.34,24.5-5.83-.5,52.79-.5,52.79V-70H349.5V352.96Z" fill="#ff8fdb" opacity=".52"/><path d="M349.5,348.8c-30.06-23.3-9.4-100.92-45.26-155.95-35.86-55.03-104.82-26.99-134.19-78.05C140.69,63.72,141.03,7.27,82.34-.25,24.66-7.62-.5,50.96-.5,50.96V-70H349.5V348.8Z" fill="#ff8bda" opacity=".57"/><path d="M349.5,344.64c-30.06-23.07-8.66-99.06-44.53-153.54-35.86-54.49-102.85-28-132.22-78.56C143.39,61.97,142.19,5.9,82.96-1.84,24.82-9.42-.5,49.12-.5,49.12V-70H349.5V344.64Z" fill="#ff87d8" opacity=".62"/><path d="M349.5,340.48c-30.06-22.84-7.93-97.19-43.79-151.13-35.86-53.94-100.88-29.02-130.25-79.07C146.09,60.22,143.35,4.54,83.58-3.43,24.97-11.22-.5,47.28-.5,47.28V-70H349.5V340.48Z" fill="#ff83d7" opacity=".67"/><path d="M349.5,336.32c-30.06-22.61-7.2-95.33-43.06-148.72-35.86-53.39-98.91-30.03-128.28-79.58C148.8,58.47,144.52,3.17,84.2-5.02,25.13-13.02-.5,45.45-.5,45.45V-70H349.5V336.32Z" fill="#ff7fd5" opacity=".71"/><path d="M349.5,332.16c-30.06-22.38-6.47-93.47-42.33-146.31-35.86-52.85-96.94-31.05-126.31-80.08C151.5,56.72,145.68,1.8,84.81-6.61,25.29-14.82-.5,43.61-.5,43.61V-70H349.5V332.16Z" fill="#ff7bd4" opacity=".76"/><path d="M349.5,328c-30.06-22.14-5.73-91.6-41.6-143.9-35.86-52.3-94.98-32.06-124.34-80.59C154.2,54.97,146.84,.43,85.43-8.2,25.44-16.62-.5,41.77-.5,41.77V-70H349.5V328Z" fill="#ff77d2" opacity=".81"/><path d="M349.5,323.84c-30.06-21.91-5-89.74-40.86-141.49-35.86-51.75-93.01-33.07-122.37-81.1C156.9,53.22,148.01-.93,86.05-9.79,25.6-18.42-.5,39.94-.5,39.94V-70H349.5V323.84Z" fill="#ff72d1" opacity=".86"/><path d="M349.5,319.68c-30.06-21.68-4.27-87.88-40.13-139.08s-91.04-34.09-120.4-81.6C159.61,51.47,149.17-2.3,86.67-11.38,25.75-20.21-.5,38.1-.5,38.1V-70H349.5V319.68Z" fill="#ff6ecf" opacity=".9"/><path d="M349.5,315.52c-30.06-21.45-3.53-86.02-39.4-136.67-35.86-50.66-89.07-35.1-118.43-82.11C162.31,49.72,150.33-3.67,87.29-12.97,25.91-22.01-.5,36.27-.5,36.27V-70H349.5V315.52Z" fill="#ff6ace" opacity=".95"/><path d="M349.5,311.36c-30.06-21.22-2.8-84.15-38.67-134.27-35.86-50.11-87.1-36.12-116.46-82.62C165.01,47.97,151.5-5.04,87.9-14.56,26.07-23.81-.5,34.43-.5,34.43V-70H349.5V311.36Z" fill="#f6c"/></g></g><path id="z" d="M349.5,311.36c-30.06-21.22-2.8-84.15-38.67-134.27-35.86-50.11-87.1-36.12-116.46-82.62C165.01,47.97,148.45-5.75,87.9-14.56,27.36-23.36-.5,34.43-.5,34.43V-70H349.5V311.36Z" fill="#fff"/><g id="aa"><path id="ab" d="M323.74,70.81c14.2-30.51-3.25-59.54-47.13-69.77-43.88-10.23-58.18-44.68-74.75-38.13-16.57,6.55-2.92,65.46,24.34,99.17,27.27,33.71,83.33,39.24,97.53,8.73Z" fill="#f9f"/><g id="ac" mix-blend-mode="multiply" opacity=".6"><path d="M323.74,70.81c14.2-30.51-3.25-59.54-47.13-69.77-43.88-10.23-58.18-44.68-74.75-38.13-16.57,6.55-2.92,65.46,24.34,99.17,27.27,33.71,83.33,39.24,97.53,8.73Z" fill="#f6c"/><path d="M320.58,69.39c13.92-29.14-2.92-57.69-45.47-67.61-42.55-9.92-55.83-42.97-71.89-36.66-16.05,6.31-2.73,62.88,23.5,95.4,26.23,32.52,79.94,38.02,93.85,8.88Z" fill="#ff6bce" opacity=".95"/><path d="M317.41,67.98c13.64-27.76-2.59-55.85-43.81-65.46-41.21-9.61-53.49-41.26-69.02-35.2-15.54,6.07-2.54,60.29,22.65,91.63,25.19,31.34,76.54,36.79,90.18,9.03Z" fill="#ff70d1" opacity=".9"/><path d="M314.24,66.56c13.36-26.39-2.26-54-42.15-63.3-39.88-9.3-51.14-39.55-66.16-33.73-15.02,5.82-2.35,57.71,21.8,87.86,24.15,30.15,73.15,35.56,86.51,9.17Z" fill="#ff75d3" opacity=".86"/><path d="M311.07,65.14c13.08-25.01-1.94-52.16-40.49-61.15-38.55-8.99-48.8-37.84-63.3-32.26-14.5,5.58-2.17,55.12,20.95,84.08,23.12,28.96,69.76,34.33,82.83,9.32Z" fill="#ff79d6" opacity=".81"/><path d="M307.9,63.72c12.8-23.64-1.61-50.31-38.83-58.99-37.22-8.68-46.45-36.14-60.44-30.79-13.98,5.34-1.98,52.54,20.1,80.31,22.08,27.78,66.36,33.11,79.16,9.47Z" fill="#ff7ed8" opacity=".76"/><path d="M304.74,62.3c12.52-22.26-1.28-48.47-37.17-56.84-35.89-8.37-44.11-34.43-57.58-29.32-13.47,5.1-1.79,49.95,19.26,76.54,21.04,26.59,62.97,31.88,75.49,9.62Z" fill="#ff83db" opacity=".71"/><path d="M301.57,60.89c12.24-20.89-.95-46.62-35.51-54.68-34.55-8.06-41.77-32.72-54.71-27.86-12.95,4.86-1.6,47.37,18.41,72.77,20,25.4,59.58,30.65,71.81,9.77Z" fill="#f8d" opacity=".67"/><path d="M298.4,59.47c11.96-19.51-.63-44.78-33.85-52.53-33.22-7.75-39.42-31.01-51.85-26.39-12.43,4.62-1.41,44.78,17.56,69,18.97,24.21,56.18,29.43,68.14,9.92Z" fill="#ff8ddf" opacity=".62"/><path d="M295.23,58.05c11.68-18.14-.3-42.93-32.19-50.37-31.89-7.44-37.08-29.3-48.99-24.92-11.91,4.38-1.22,42.2,16.71,65.22,17.93,23.03,52.79,28.2,64.47,10.06Z" fill="#ff92e2" opacity=".57"/><path d="M292.07,56.63c11.4-16.76,.03-41.09-30.53-48.21-30.56-7.13-34.73-27.59-46.13-23.45-11.4,4.14-1.03,39.61,15.86,61.45,16.89,21.84,49.39,26.97,60.79,10.21Z" fill="#ff97e4" opacity=".52"/><path d="M288.9,55.22c11.12-15.39,.36-39.24-28.87-46.06-29.23-6.82-32.39-25.88-43.27-21.98-10.88,3.9-.84,37.03,15.02,57.68,15.85,20.65,46,25.75,57.12,10.36Z" fill="#ff9be7" opacity=".48"/><path d="M285.73,53.8c10.84-14.01,.69-37.4-27.21-43.9-27.89-6.51-30.04-24.18-40.41-20.51-10.36,3.66-.65,34.44,14.17,53.91,14.82,19.47,42.61,24.52,53.44,10.51Z" fill="#ffa0e9" opacity=".43"/><path d="M282.56,52.38c10.56-12.64,1.01-35.55-25.55-41.75-26.56-6.19-27.7-22.47-37.54-19.05-9.84,3.42-.46,31.86,13.32,50.14,13.78,18.28,39.21,23.29,49.77,10.66Z" fill="#ffa5ec" opacity=".38"/><path d="M279.39,50.96c10.28-11.26,1.34-33.71-23.89-39.59-25.23-5.88-25.36-20.76-34.68-17.58-9.33,3.18-.27,29.27,12.47,46.36,12.74,17.09,35.82,22.07,46.1,10.81Z" fill="#fae" opacity=".33"/><path d="M276.23,49.54c10-9.88,1.67-31.86-22.23-37.44-23.9-5.57-23.01-19.05-31.82-16.11-8.81,2.94-.08,26.69,11.62,42.59,11.71,15.91,32.43,20.84,42.42,10.95Z" fill="#ffaff0" opacity=".29"/><path d="M273.06,48.13c9.72-8.51,2-30.02-20.57-35.28-22.57-5.26-20.67-17.34-28.96-14.64-8.29,2.7,.11,24.1,10.78,38.82,10.67,14.72,29.03,19.61,38.75,11.1Z" fill="#ffb4f3" opacity=".24"/><path d="M269.89,46.71c9.44-7.13,2.33-28.17-18.91-33.13-21.23-4.95-18.32-15.63-26.1-13.17-7.77,2.46,.3,21.52,9.93,35.05,9.63,13.53,25.64,18.39,35.08,11.25Z" fill="#ffb9f5" opacity=".19"/><path d="M266.72,45.29c9.16-5.76,2.65-26.33-17.25-30.97-19.9-4.64-15.98-13.92-23.24-11.71-7.26,2.22,.49,18.93,9.08,31.28,8.59,12.34,22.24,17.16,31.4,11.4Z" fill="#ffbdf8" opacity=".14"/><path d="M263.55,43.87c8.88-4.38,2.98-24.48-15.59-28.82-18.57-4.33-13.63-12.22-20.37-10.24-6.74,1.98,.68,16.35,8.23,27.5,7.56,11.16,18.85,15.93,27.73,11.55Z" fill="#ffc2fa" opacity=".1"/><path d="M260.39,42.45c8.6-3.01,3.31-22.64-13.93-26.66-17.24-4.02-11.29-10.51-17.51-8.77-6.22,1.74,.87,13.76,7.38,23.73,6.52,9.97,15.46,14.7,24.06,11.7Z" fill="#ffc7fd" opacity=".05"/><path d="M257.22,41.04c8.32-1.63,3.64-20.79-12.27-24.5-15.91-3.71-8.95-8.8-14.65-7.3-5.7,1.5,1.06,11.18,6.54,19.96,5.48,8.78,12.06,13.48,20.38,11.84Z" fill="#fcf" opacity="0"/></g></g></g></g></g></g></g></svg>